<svg version="1.1" xmlns="http://www.w3.org/2000/svg" xmlns:xlink="http://www.w3.org/1999/xlink" width="243.24175" height="273.79144" viewBox="0,0,243.24175,273.79144"><g transform="translate(-136.3972,-145.28069)"><g data-paper-data="{&quot;isPaintingLayer&quot;:true}" fill-rule="nonzero" stroke-linejoin="miter" stroke-miterlimit="10" stroke-dasharray="" stroke-dashoffset="0" style="mix-blend-mode: normal"><path d="M137.1472,418.32214v-160.66066h106.60661v160.66066z" fill="none" stroke="#000000" stroke-width="1.5" stroke-linecap="butt"/><path d="M282.16666,150.73272c0,-3.01107 2.44095,-5.45202 5.45202,-5.45202c3.01107,0 5.45202,2.44095 5.45202,5.45202c0,3.01107 -2.44095,5.45202 -5.45202,5.45202c-3.01107,0 -5.45202,-2.44095 -5.45202,-5.45202z" fill="#838383" stroke="none" stroke-width="0" stroke-linecap="butt"/><path d="M287.58955,165.99331c-0.83748,-2.09369 1.25621,-2.93116 1.25621,-2.93116l1.30795,-0.41881c0.37607,-0.27904 1.13499,-0.88295 1.66414,-1.45966c-0.13074,-0.43935 -0.27113,-0.87137 -0.42555,-1.29257c-0.01249,-0.0141 -0.02522,-0.02874 -0.03813,-0.04389c-0.05191,0.00437 -0.10606,0.0098 -0.1625,0.01633c0,0 -2.2243,-0.37072 -1.85358,-2.59501c0.03243,-0.19458 0.07905,-0.36931 0.13711,-0.52616c-0.45205,-0.52279 -0.91252,-1.0417 -1.29239,-1.61058c0,0 -1.25083,-1.87625 0.62542,-3.12709c1.87625,-1.25083 3.12709,0.62542 3.12709,0.62542c0.73224,1.10029 1.67081,2.07503 2.42473,3.15756c0.34899,0.09923 0.66598,0.25368 0.92221,0.51304c0.69582,0.70433 1.14183,1.41639 1.38825,2.12395c0.04359,0.05799 0.08502,0.11783 0.12405,0.17977c1.40942,2.23714 1.23681,4.07335 0.48105,5.81707c0.17,0.64667 0.35233,1.28334 0.56016,1.90038l0.38261,1.50576c0.86059,0.6517 0.86059,1.83813 0.86059,1.83813c-0.00954,3.03063 -0.37583,5.97347 -0.37583,9.0199l0.80614,0.71898c0,0 1.16017,1.93363 -0.77345,3.0938c-1.93363,1.16017 -3.0938,-0.77345 -3.0938,-0.77345l-1.44883,-3.03932c0,-1.02096 0.04362,-2.03293 0.10117,-3.04106c-0.5744,1.66788 -0.85973,3.43568 -0.85282,5.29603v0.37583c0,0 0,2.25498 -2.25498,2.25498c-2.25498,0 -2.25498,-2.25498 -2.25498,-2.25498v-0.37583c0.00886,-2.81384 0.53154,-5.42902 1.54933,-7.87555c-0.28578,-0.05449 -0.59389,-0.17751 -0.92101,-0.39559c-1.87625,-1.25083 -0.62542,-3.12709 -0.62542,-3.12709l1.42921,-2.13597c0.02104,-0.04175 0.04242,-0.08329 0.06411,-0.12462c-0.41448,0.13213 -2.10624,0.5415 -2.83825,-1.28854z" fill="#838383" stroke="none" stroke-width="0.5" stroke-linecap="butt"/><path d="M349.75004,182.00008v-20" fill="#a7a7a7" stroke="#000000" stroke-width="1.5" stroke-linecap="round"/><path d="M325.75004,162.00001v20" fill="#838383" stroke="#000000" stroke-width="1.5" stroke-linecap="round"/><path d="M301.25004,162.00001v20" fill="none" stroke="#000000" stroke-width="1.5" stroke-linecap="round"/><path d="M261.16665,153.73272c0,-3.01107 2.44095,-5.45202 5.45202,-5.45202c3.01107,0 5.45202,2.44095 5.45202,5.45202c0,3.01107 -2.44095,5.45202 -5.45202,5.45202c-3.01107,0 -5.45202,-2.44095 -5.45202,-5.45202z" fill="#5d5d5d" stroke="none" stroke-width="0" stroke-linecap="butt"/><path d="M287.83333,159.90477c-0.83652,0 -1.32316,-0.34989 -1.60626,-0.75697c-1.17702,-0.38131 -2.0105,-0.66224 -3.03841,-1.48156l-0.56649,1.13297c0,0 -0.89443,1.78885 -2.68328,0.89443c-0.23166,-0.11583 -0.41831,-0.24666 -0.56774,-0.38665c-0.37976,1.61708 -1.10632,3.20008 -1.74898,4.49223l0.21115,0.10557c0,0 0,2 -2,2c-2,0 -2,-2 -2,-2l0.21115,-1.89443c0.42912,-0.85311 3.10291,-6.41161 0.45552,-5.43891c0,0 -1.58289,0 -1.93229,-1.40818c-0.90716,0.04349 -1.81748,0.07484 -2.73437,0.07484c0,0 -2,0 -2,-2c0,-2 2,-2 2,-2c0.6445,0 1.36159,-0.04728 2.12507,-0.11509c0.43781,-1.21822 1.87493,-1.21822 1.87493,-1.21822c4.1468,0.07479 10.93056,-4.81026 11.33013,2.44642c0.016,0.29056 -0.01393,0.57773 -0.07301,0.86203c0.92181,1.01306 1.26407,1.77953 3.37534,2.46083l1.36754,2.2307c0,0 0,2 -2,2zM279.71114,155.67702c0.13603,-0.26925 0.28153,-0.53417 0.42396,-0.80049c-0.33067,-0.01687 -0.67631,-0.01135 -0.96745,-0.0009c0.16823,0.37607 0.28627,0.76596 0.36156,1.16524z" fill="#5d5d5d" stroke="none" stroke-width="0.5" stroke-linecap="butt"/><path d="M294.83333,167.2381c0,2 -2,2 -2,2l-2.32036,-0.02582c-1.38587,-0.44953 -4.21536,-1.19122 -5.19054,-2.33044c-2.42197,-2.82939 -1.01251,-6.29724 0.44109,-8.96935c0,0 0.99228,-1.73649 2.72877,-0.74421c1.73649,0.99228 0.74421,2.72876 0.74421,2.72876c-1.98888,3.24427 -1.31885,4.24258 1.91721,5.36688l1.67963,-0.02582c0,0 2,0 2,2z" fill="#5d5d5d" stroke="none" stroke-width="0.5" stroke-linecap="butt"/><path d="M291.83333,166.90477c0,-1.10457 0.89543,-2 2,-2c1.10457,0 2,0.89543 2,2c0,1.10457 -0.89543,2 -2,2c-1.10457,0 -2,-0.89543 -2,-2z" fill="#5d5d5d" stroke="none" stroke-width="0.5" stroke-linecap="butt"/><path d="M299.5,162.2381c0,2 -2,2 -2,2h-1.66667c-2.9583,-0.00302 -7.78975,0.37521 -9.97718,-2.19414c-0.68267,-0.80187 -0.23743,-2.09279 -0.35615,-3.13919c0,0 0,-2 2,-2c2,0 2,2 2,2c-0.79909,1.9314 4.79157,1.33505 6.33333,1.33333h1.66667c0,0 2,0 2,2z" fill="#5d5d5d" stroke="none" stroke-width="0.5" stroke-linecap="butt"/><path d="M243.75381,415.73582v-232.73273h135.13514v232.73273z" fill="none" stroke="#000000" stroke-width="1.5" stroke-linecap="butt"/><path d="M252.75005,183.00008v-20l121,-1v20" fill="none" stroke="#000000" stroke-width="1.5" stroke-linecap="round"/><path d="M373.25004,168.50008h-121" fill="none" stroke="#000000" stroke-width="1.5" stroke-linecap="round"/><path d="M252.25005,176.00008h121" fill="none" stroke="#000000" stroke-width="1.5" stroke-linecap="round"/><path d="M277.25004,162.00001v20" fill="none" stroke="#000000" stroke-width="1.5" stroke-linecap="round"/></g></g></svg>