<svg version="1.1" xmlns="http://www.w3.org/2000/svg" xmlns:xlink="http://www.w3.org/1999/xlink" width="243.24175" height="257.82828" viewBox="0,0,243.24175,257.82828"><g transform="translate(-145.4062,-164.24689)"><g data-paper-data="{&quot;isPaintingLayer&quot;:true}" fill-rule="nonzero" stroke-linejoin="miter" stroke-miterlimit="10" stroke-dasharray="" stroke-dashoffset="0" style="mix-blend-mode: normal"><path d="M358.75904,185.00311v-20" fill="#a7a7a7" stroke="#000000" stroke-width="1.5" stroke-linecap="round"/><path d="M334.75904,165.003v20" fill="#838383" stroke="#000000" stroke-width="1.5" stroke-linecap="round"/><path d="M310.25904,165.003v20" fill="none" stroke="#000000" stroke-width="1.5" stroke-linecap="round"/><path d="M252.76281,418.73885v-232.73273h135.13514v232.73273z" fill="none" stroke="#000000" stroke-width="1.5" stroke-linecap="butt"/><path d="M261.75905,186.00311v-20l121,-1v20" fill="none" stroke="#000000" stroke-width="1.5" stroke-linecap="round"/><path d="M261.25904,171.50311h121" fill="none" stroke="#000000" stroke-width="1.5" stroke-linecap="round"/><path d="M382.25905,179.00311h-121" fill="none" stroke="#000000" stroke-width="1.5" stroke-linecap="round"/><path d="M286.25904,185.00301v-20" fill="none" stroke="#000000" stroke-width="1.5" stroke-linecap="round"/><path d="M198.64076,240.44097c2.69352,1.34593 3.78597,4.62053 2.44004,7.31404c-1.34593,2.69352 -4.62053,3.78597 -7.31404,2.44004c-2.69352,-1.34593 -3.78597,-4.62053 -2.44004,-7.31404c1.34593,-2.69352 4.62053,-3.78597 7.31404,-2.44004z" fill="#838383" stroke="none" stroke-width="0" stroke-linecap="butt"/><path d="M217.68539,254.87768c-1.16045,1.6289 -2.78937,0.46846 -2.78937,0.46846l-0.81445,-0.58023c-4.44083,-3.18864 -9.0981,-5.87811 -14.35344,-7.4867c0,0 -1.91228,-0.58581 -1.32649,-2.49808c0.58581,-1.91228 2.49808,-1.32649 2.49808,-1.32649c5.68296,1.74226 10.68158,4.64159 15.50277,8.05346l0.81445,0.58023c0,0 1.6289,1.16045 0.46846,2.78937z" fill="#838383" stroke="none" stroke-width="0.5" stroke-linecap="butt"/><path d="M229.03458,257.17854c-0.17861,1.99201 -2.17061,1.81341 -2.17061,1.81341l-0.74238,-0.06656c-2.87718,-0.25797 -5.97443,-0.19879 -8.77644,-0.94468c-0.78899,-0.21003 -1.72338,-0.26782 -2.49893,-0.54631c-2.05167,1.77162 -1.39923,1.77679 1.85275,1.58937l1.33639,0.35235c0,0 1.8333,0.79936 1.03395,2.63268c-0.77766,1.78354 -2.53391,1.0754 -2.62868,1.03564c-1.76762,0.1067 -4.60506,0.31635 -5.75235,-0.82628c-3.40204,-3.38825 0.17296,-6.63784 2.51817,-8.627c0,0 0.13463,-0.11247 0.35744,-0.23092c0.00192,-0.08883 0.00109,-0.17663 -0.00326,-0.26314c0,0 0.17861,-1.99201 2.17061,-1.81341c1.99201,0.17861 1.81341,2.17061 1.81341,2.17061c-0.19338,0.28804 -0.80792,0.60243 -0.58013,0.86411c0.24684,0.28357 0.71837,-0.28351 1.09419,-0.27355c2.77121,0.07341 5.64253,0.64747 8.4201,0.8965l0.74238,0.06656c0,0 1.99201,0.17861 1.81341,2.17061zM216.74175,263.02693l0.16703,-0.00866c-0.05408,0.00261 -0.1098,0.00552 -0.16703,0.00866z" fill="#838383" stroke="none" stroke-width="0.5" stroke-linecap="butt"/><path d="M208.27777,257.45501c-0.07794,0.00409 -0.15302,0.00499 -0.2253,0.00292l-0.13727,1.56879c0,0 -0.17861,1.99201 -2.17061,1.81341c-1.99201,-0.17861 -1.81341,-2.17061 -1.81341,-2.17061l0.12608,-1.36747c0.07457,-1.7315 0.63112,-3.41143 1.07053,-5.0879c0.00225,-0.00857 0.75133,-2.41623 -0.26917,-2.72038c-0.78926,-0.23523 -1.63177,-0.22429 -2.44766,-0.33643c0,0 -1.78771,-0.33338 -1.63586,-2.06906c-0.43777,-0.37924 -0.83246,-1.02278 -0.5171,-2.0404c0.59202,-1.91037 2.50239,-1.31835 2.50239,-1.31835c0.58623,0.18168 4.35736,1.32465 4.63016,1.53398c2.79483,2.14451 2.75248,4.9558 2.67163,8.06715l0.10795,2.02219c0,0 0.1049,1.99726 -1.89234,2.10215z" fill="#838383" stroke="none" stroke-width="0.5" stroke-linecap="butt"/><path d="M199.12603,244.4458c2.0151,2.2374 1.83489,5.68472 -0.40251,7.69981c-2.2374,2.0151 -5.68472,1.83489 -7.69981,-0.40251c-2.0151,-2.2374 -1.83489,-5.68472 0.40251,-7.69981c2.2374,-2.0151 5.68472,-1.83489 7.69981,0.40251z" fill="#5d5d5d" stroke="none" stroke-width="0" stroke-linecap="butt"/><path d="M217.03472,254.78797c-0.82162,1.82343 -2.64507,1.00182 -2.64507,1.00182l-0.91172,-0.41082c-4.97602,-2.26441 -10.06731,-3.99711 -15.53511,-4.55326c0,0 -1.98968,-0.20284 -1.78685,-2.19251c0.20284,-1.98968 2.19252,-1.78685 2.19252,-1.78685c5.91325,0.60414 11.38017,2.47633 16.77269,4.88575l0.91172,0.41082c0,0 1.82344,0.82162 1.00182,2.64506z" fill="#5d5d5d" stroke="none" stroke-width="0.5" stroke-linecap="butt"/><path d="M226.17567,259.90777c0,2 -2,2 -2,2l-1.96579,-0.10263c-1.31932,-0.43977 -3.07646,-0.79997 -4.67471,-1.36805c0.00393,0.22962 -0.03403,0.48551 -0.1288,0.7698c-0.63246,1.89737 -2.52982,1.26491 -2.52982,1.26491l-1,-0.33333c-2.61587,-0.87196 -7.52923,-1.59312 -6.90919,-5.92673c0.1002,-0.7003 6.25728,-2.87047 7.24252,-3.20133c0,0 1.44328,-0.48109 2.23187,0.65469c0.45253,0.4073 0.63128,0.94355 0.63128,0.94355c0.53866,2.54145 4.10736,2.63696 6.40176,3.40176l0.70088,-0.10263c0,0 2,0 2,2zM213.50494,257.7233c0.13615,0.04589 0.26917,0.09248 0.39681,0.13843c-0.03802,-0.08756 -0.07272,-0.17718 -0.10498,-0.26831c-0.09597,0.04357 -0.19347,0.08704 -0.29183,0.12988z" fill="#5d5d5d" stroke="none" stroke-width="0.5" stroke-linecap="butt"/><path d="M199.17567,261.2411c-2,0 -2,-2 -2,-2l0.02721,-0.66213c0.426,-2.55601 1.72507,-5.20612 1.63945,-7.6712c0,0 0,-2 2,-2c0.26361,0 0.49248,0.03475 0.69118,0.09508c1.51909,-0.59156 2.37863,0.91264 2.37863,0.91264c1.66095,2.97729 1.92719,4.59431 1.90436,7.97931l-0.74347,2.31209c0,0 -0.63246,1.89737 -2.52982,1.26491c-1.89737,-0.63246 -1.26491,-2.52982 -1.26491,-2.52982l0.58986,-1.68791c-0.0039,-0.37892 -0.01067,-0.71792 -0.02415,-1.02841c-0.26318,0.97664 -0.52174,1.96802 -0.69555,3.01091l0.02721,0.00454c0,0 0,2 -2,2z" fill="#5d5d5d" stroke="none" stroke-width="0.5" stroke-linecap="butt"/><path d="M146.1562,421.32517v-160.66066h106.60661v160.66066z" fill="none" stroke="#000000" stroke-width="1.5" stroke-linecap="butt"/><path d="M225.5859,265.37418c0,0.75 -0.75,0.75 -0.75,0.75l-0.0181,-0.02239c-0.21229,0.05307 -0.42458,0.10615 -0.63687,0.15922c-0.04304,0.37331 -0.36018,0.66317 -0.74503,0.66317c-0.41421,0 -0.75,-0.33579 -0.75,-0.75c0,-0.10236 0.0205,-0.19992 0.05763,-0.28882l-0.68801,-0.23729c-1.94354,-0.2894 -1.49884,-2.03294 -3.03186,-3.2576c-1.12304,0.39321 0.96558,0.91066 0.5486,2.35626c-0.32797,1.13702 -1.7332,1.67126 -2.6519,2.12707c0.03088,0.06943 0.04314,0.11847 0.04314,0.11847c0.0216,0.08639 0.0432,0.17278 0.06479,0.25917c0.22222,0.05504 0.5576,0.2212 0.5576,0.72273c0,0.01808 -0.00044,0.03572 -0.00129,0.05293c0.13415,-0.00529 0.23319,0.01947 0.23319,0.01947l0.8,0.2c0,0 0.72761,0.1819 0.54571,0.90951c-0.1819,0.72761 -0.90951,0.54571 -0.90951,0.54571l-0.8,-0.2c0,0 -0.64021,-0.16005 -0.56944,-0.78043c-0.03057,0.00281 -0.04867,0.00281 -0.04867,0.00281l-1.12761,-0.5681c-0.06667,-0.26667 -0.13333,-0.53333 -0.2,-0.8c0,0 -0.04943,-0.19772 0.00632,-0.4128c-0.29709,-0.47138 0.13071,-0.89918 0.13071,-0.89918l0.52825,-0.47382c0.18667,-0.09169 1.74122,-0.7464 1.93881,-1.16816c0.18558,-0.39613 -0.5194,-0.64863 -0.84496,-1.00979c-0.80534,0.26307 -1.37019,1.18283 -2.0308,1.82009l-1.15713,0.40686c0,0 -0.20873,0.06958 -0.43777,0.0203c-0.03843,0.07686 -0.07686,0.15371 -0.11528,0.23057c0.45947,0.16305 0.45947,0.70404 0.45947,0.70404c0,0.33333 0,0.66667 0,1l0.12082,0.06459c0,0 0.33541,0.67082 -0.33541,1.00623c-0.67082,0.33541 -1.00623,-0.33541 -1.00623,-0.33541l-0.27918,-0.73541c0,-0.30676 0,-0.61353 0,-0.92029c-0.40001,-0.18648 -0.40001,-0.67973 -0.40001,-0.67973l0.07918,-0.73541c0.13333,-0.26667 0.26667,-0.53333 0.4,-0.8c0,0 0.01357,-0.02715 0.04072,-0.06779c-0.3446,-0.4077 -0.58997,-0.71425 -1.188,-0.46919l0.28892,0.0078c0,0 -0.26717,0.53434 -0.80151,0.41078l-0.37295,0.93237c0,0 -0.27854,0.69636 -0.9749,0.41781c-0.69636,-0.27854 -0.41781,-0.9749 -0.41781,-0.9749l0.4,-1c0,0 0.23994,-0.59986 0.83118,-0.46338l0.68327,-0.7857c1.46484,-0.26897 1.89085,0.18016 2.91223,1.19728c0,0 0.1525,0.1525 0.21217,0.37572l0.26963,-0.08311c0.97053,-1.02243 1.52513,-1.7992 2.76015,-2.03964c0.23387,-0.59381 0.80519,-0.68808 1.56454,-0.97022c0.17235,-0.11867 0.35437,-0.12642 0.50292,-0.09873c0.14241,0.0117 0.30536,0.06185 0.43685,0.20241c0.59889,0.39135 1.39557,0.85733 1.76783,1.48319c0.14276,0.24002 0.11494,0.54885 0.07966,0.85661c0.16468,-0.04117 0.32935,-0.08234 0.49403,-0.12351l0.8,-0.2c0,0 0.14048,-0.03512 0.31341,-0.01277c0.12405,-0.24312 0.37682,-0.4096 0.66848,-0.4096c0.41421,0 0.75,0.33579 0.75,0.75c0,0.41421 -0.33579,0.75 -0.75,0.75c-0.03846,0 -0.07624,-0.00289 -0.11314,-0.00848c-0.11574,0.22522 -0.34477,0.33048 -0.44987,0.36851l0.13995,0.04537c0,0 0.23487,0.07829 0.38974,0.27985c0.21714,-0.05429 0.43428,-0.10857 0.65142,-0.16286l0.3819,-0.02239c0,0 0.75,0 0.75,0.75z" fill="#000000" stroke="none" stroke-width="0.5" stroke-linecap="butt"/><path d="M230.4359,267.32418c-0.36395,0 -0.66736,-0.25924 -0.73563,-0.60315c-0.07048,-0.0646 -0.13163,-0.14974 -0.17038,-0.26195c-0.13793,-0.06818 -0.22434,-0.15459 -0.22434,-0.15459l-0.39728,-0.54843c-0.1306,-0.5766 -0.14324,-1.19277 -0.03794,-1.77704c-0.46682,-0.57294 -0.74547,-1.33746 -0.77803,-2.07128c0,0 0,-0.75 0.75,-0.75c0.01065,0 0.02115,0.00015 0.0315,0.00045c0.2616,-0.45025 0.81707,-0.31139 0.81707,-0.31139c0.50699,0.1361 1.01397,0.27219 1.52096,0.40829l0.80886,0.77125c0.11544,-0.0002 0.19709,0.02021 0.19709,0.02021c0.26667,0.06667 0.53333,0.13333 0.8,0.2l0.54843,0.39728c0,0 0.03412,0.03412 0.0764,0.09371c0.03508,-0.02279 0.05788,-0.03419 0.05788,-0.03419c0.26667,-0.13333 0.53333,-0.26667 0.8,-0.4l0.53541,-0.07918c0,0 0.75,0 0.75,0.75c0,0.75 -0.75,0.75 -0.75,0.75l0.13541,-0.07918c-0.26667,0.13333 -0.53333,0.26667 -0.8,0.4c0,0 -0.07957,0.03978 -0.19759,0.06454c-0.06373,0.3496 -0.36982,0.61464 -0.73782,0.61464c-0.41421,0 -0.75,-0.33579 -0.75,-0.75c0,-0.04502 0.00397,-0.0891 0.01157,-0.13194c-0.11891,-0.06475 -0.1919,-0.13774 -0.1919,-0.13774l0.14843,-0.00272c-0.26667,-0.06667 -0.53333,-0.13333 -0.8,-0.2c0,0 -0.16351,-0.04088 -0.31613,-0.16139c-0.31888,0.0047 -0.55921,-0.23563 -0.55921,-0.23563l-0.50586,-0.54435c-0.27893,-0.0629 -0.55786,-0.12581 -0.83679,-0.18871c0.06817,0.26123 0.20728,0.50776 0.40331,0.6724l0.33333,0.33333c0,0 0.53033,0.53033 0,1.06066c-0.02648,0.02648 -0.05296,0.05031 -0.07937,0.0717c-0.03404,0.29544 -0.01063,0.6011 0.07022,0.88248l0.00272,-0.14843c0,0 0.06828,0.06828 0.13134,0.18034c0.17945,0 0.3589,0 0.53835,0l0.73033,0.41967c0,0 0.53033,0.53033 0,1.06066c-0.2887,0.2887 -0.57739,0.26308 -0.78054,0.1798c-0.13696,0.14755 -0.3326,0.23987 -0.54979,0.23987z" fill="#000000" stroke="none" stroke-width="0.5" stroke-linecap="butt"/><path d="M209.3859,263.77418c0,0.75 -0.75,0.75 -0.75,0.75c-0.26667,0 -0.93333,0 -1.2,0c0,0 -0.53824,0 -0.70278,-0.45596l-0.01021,-0.00114c-0.11889,0.14581 -0.23779,0.29161 -0.35668,0.43742c0,0 -0.03919,0.03919 -0.10691,0.0856c-0.08394,0.11695 -0.17342,0.18407 -0.17342,0.18407c-0.8541,0.49462 -0.56253,1.28791 -0.32239,2.2181l0.0078,-0.28892c0,0 0.48125,0.24062 0.42471,0.72187c0.01321,-0.00069 0.02651,-0.00104 0.03989,-0.00104c0.41421,0 0.75,0.33579 0.75,0.75c0,0.41421 -0.33579,0.75 -0.75,0.75c-0.41421,0 -0.75,-0.33579 -0.75,-0.75c0,-0.01524 0.00045,-0.03038 0.00135,-0.04539c-0.21401,0.00258 -0.38677,-0.0838 -0.38677,-0.0838l-0.7922,-0.68892c-0.33063,-1.35786 -0.43301,-2.26762 0.28468,-3.17985l-0.28097,-0.07146c-0.69262,-0.718 -0.86326,-1.4414 -1.45522,-2.1138c-0.0048,0.00009 -0.00962,0.00014 -0.01445,0.00014c-0.41421,0 -0.75,-0.33579 -0.75,-0.75h-0.00001c0,-0.41421 0.33579,-0.75 0.75,-0.75c0.04477,0 0.08863,0.00392 0.13125,0.01145c0.40091,-0.12328 0.73242,0.20822 0.73242,0.20822c0.76866,0.79683 0.89444,1.6003 1.66667,2.33333l-0.197,-0.21967c0,0 0.3398,0 0.56196,0.22872c0.13709,-0.12396 0.27417,-0.24793 0.41126,-0.37189l1.08701,-0.05709c0,0 0.49325,0 0.67973,0.40001c0.10676,0 0.21352,0 0.32029,0h0.4c0,0 0.75,0 0.75,0.75z" fill="#000000" stroke="none" stroke-width="0.5" stroke-linecap="butt"/><path d="M202.97131,267.045c-0.67082,0.33541 -1.00623,-0.33541 -1.00623,-0.33541l-0.05951,-0.20508c-0.2,-0.2 -0.4,-0.4 -0.6,-0.6c0,0 -0.50166,-0.50166 -0.04124,-1.01707c-0.15809,-0.19018 -0.29211,-0.40258 -0.39197,-0.62597c-0.63029,-0.258 -0.40822,-0.92421 -0.40822,-0.92421l0.30453,-0.88297c0.0296,-0.37019 -0.1723,-0.77737 -0.45668,-1.0162c0,0 -0.53033,-0.53033 0,-1.06066c0.53033,-0.53033 1.06066,0 1.06066,0c0.55623,0.61038 0.84885,1.49179 0.87665,2.31713l-0.16109,0.49687c0.09767,0.19004 0.09767,0.38274 0.09767,0.38274c-0.05808,0.21035 0.17362,0.47661 0.38541,0.52918l0.39492,0.34049c0,0 0.51544,0.51544 0.02186,1.03817l0.31865,0.55676c0,0 0.33541,0.67082 -0.33541,1.00623z" fill="#000000" stroke="none" stroke-width="0.5" stroke-linecap="butt"/><path d="M203.10672,269.50958c-0.33541,0.67082 -1.00623,0.33541 -1.00623,0.33541l-0.8,-0.4c0,0 -0.51837,-0.25919 -0.41592,-0.77756l-0.64868,-0.24325c-0.63312,-0.86728 -0.91011,-1.68181 -1.08854,-2.50179c-0.37293,0.4221 -0.58092,0.84889 -0.56146,1.65179l0.12082,0.06459c0,0 0.09862,0.19723 0.08196,0.43128c0.0787,0.09001 0.11805,0.16871 0.11805,0.16871c0.13333,0.26667 0.26667,0.53333 0.4,0.8l0.25951,0.20508c0,0 0.53033,0.53033 0,1.06066c-0.53033,0.53033 -1.06066,0 -1.06066,0l-0.54049,-0.59492c-0.12868,-0.25735 -0.25735,-0.5147 -0.38603,-0.77206c-0.05986,0.01212 -0.11932,0.03012 -0.17713,0.05317c0.00078,0.15791 -0.05775,0.33586 -0.23569,0.51381c-0.53033,0.53033 -1.06066,0 -1.06066,0l-0.2,-1.26066c0.33192,-0.30014 0.74385,-0.53689 1.18047,-0.67802c0.02852,-1.55939 0.557,-2.24247 1.5276,-3.22841c-0.72533,-0.54599 -0.95609,-1.03724 -0.86952,-1.8052c-0.15544,0.12685 -0.32632,0.16957 -0.32632,0.16957c-1.1185,0.22839 -1.32903,1.24672 -1.9819,2.12239l-0.78397,0.57404c0,0 -0.62404,0.41603 -1.04006,-0.20801c-0.41603,-0.62404 0.20801,-1.04006 0.20801,-1.04006l0.41603,-0.22596c0.9137,-1.21006 1.19249,-2.18365 2.71082,-2.64635c0.11489,-0.26683 0.38022,-0.45365 0.68918,-0.45365c0.18883,0 0.36136,0.06978 0.49321,0.18497c0.00056,-0.00174 0.00113,-0.00348 0.00169,-0.00522c0,0 0.23717,-0.71151 0.94868,-0.47434c0.71151,0.23717 0.47434,0.94868 0.47434,0.94868c-0.01317,0.03818 -0.02625,0.07544 -0.03922,0.11183c0.15058,0.13788 0.21764,0.30554 0.21764,0.30554c0.80848,2.03019 0.33878,3.6392 1.50713,5.35863c0.2221,0.0578 0.54652,0.22665 0.54652,0.71992c0,0.02296 -0.0007,0.04522 -0.00207,0.0668c0.11244,0.02484 0.18748,0.06237 0.18748,0.06237l0.8,0.4c0,0 0.67082,0.33541 0.33541,1.00623z" fill="#000000" stroke="none" stroke-width="0.5" stroke-linecap="butt"/></g></g></svg>