<svg version="1.1" xmlns="http://www.w3.org/2000/svg" xmlns:xlink="http://www.w3.org/1999/xlink" width="243.24175" height="270.9777" viewBox="0,0,243.24175,270.9777"><g transform="translate(-136.3972,-148.09439)"><g data-paper-data="{&quot;isPaintingLayer&quot;:true}" fill-rule="nonzero" stroke-linejoin="miter" stroke-miterlimit="10" stroke-dasharray="" stroke-dashoffset="0" style="mix-blend-mode: normal"><path d="M137.1472,418.3221v-160.66066h106.60661v160.66066z" fill="none" stroke="#000000" stroke-width="1.5" stroke-linecap="butt"/><path d="M292.83333,153.52122c0,-2.99715 2.42968,-5.42683 5.42683,-5.42683c2.99715,0 5.42683,2.42968 5.42683,5.42683c0,2.99715 -2.42968,5.42683 -5.42683,5.42683c-2.99715,0 -5.42683,-2.42968 -5.42683,-5.42683z" fill="#5d5d5d" stroke="none" stroke-width="0" stroke-linecap="butt"/><path d="M312.16667,172.90478c-2,0 -2,-2 -2,-2l0.02721,-0.33787c-0.24139,-1.74505 -1.17842,-3.19804 -2.36169,-4.49154c-0.58006,2.12305 -2.56566,3.47105 -4.77112,4.61828l-2.56109,0.21115c0,0 -2,0 -2,-2l0.00001,-0.00001c0,-2 2,-2 2,-2l0.77224,0.21115c3.83843,-1.80919 2.66879,-2.94855 0.14688,-5.4636c0,0 -0.82406,-0.82406 -0.58504,-1.84315c-0.07495,-0.04049 -0.15107,-0.07907 -0.2285,-0.11556c0,0 -1.78886,-0.89442 -0.89443,-2.68328c0.89443,-1.78886 2.68328,-0.89443 2.68328,-0.89443c0.31018,0.16135 0.62497,0.33639 0.94276,0.52415c0.14992,-0.04091 0.24807,-0.05318 0.24807,-0.05318c3.16015,-0.37814 7.07443,-0.89977 9.26091,2.23195c0.60193,0.86215 0.43589,2.05729 0.65383,3.08594l-0.36055,2.3288c0,0 -0.13314,0.79883 -0.7383,1.29512c0.85018,1.43589 1.46719,2.91849 1.73831,4.38061l0.02721,0.99546c0,0 0,2 -2,2zM308.1427,160.30548c0.46038,0.43636 0.90934,0.89048 1.34147,1.3591c-0.09746,-0.8004 -0.62911,-1.19327 -1.34147,-1.3591z" fill="#5d5d5d" stroke="none" stroke-width="0.5" stroke-linecap="butt"/><path d="M323.95552,176.67703c0.89443,1.78885 -0.89443,2.68328 -0.89443,2.68328l-2.22776,0.87781c-3.64643,-0.00741 -7.91157,0.26165 -9.82622,-3.51791c-0.31696,-0.62569 -0.44437,-1.54175 -0.49221,-2.47495c-1.81373,1.63608 -1.68488,4.55704 -1.68156,7.3262v0.33333c0,0 0,2 -2,2c-2,0 -2,-2 -2,-2v-0.33333c0.00633,-5.74665 0.77808,-10.34782 6.78389,-12.25638c0,0 1.34865,-0.38533 2.10981,0.61882c0.77296,0.5764 0.77296,1.63757 0.77296,1.63757c-0.01552,4.93743 1.57504,4.67759 6.33333,4.66667l0.43891,-0.45552c0,0 1.78885,-0.89443 2.68328,0.89443z" fill="#5d5d5d" stroke="none" stroke-width="0.5" stroke-linecap="butt"/><path d="M243.75381,415.73575v-232.73273h135.13514v232.73273z" fill="none" stroke="#000000" stroke-width="1.5" stroke-linecap="butt"/><path d="M349.75004,182.00003v-20" fill="#a7a7a7" stroke="#000000" stroke-width="1.5" stroke-linecap="round"/><path d="M325.75004,162v20" fill="#838383" stroke="#000000" stroke-width="1.5" stroke-linecap="round"/><path d="M301.25004,162v20" fill="none" stroke="#000000" stroke-width="1.5" stroke-linecap="round"/><path d="M277.25004,162v20" fill="none" stroke="#000000" stroke-width="1.5" stroke-linecap="round"/><path d="M252.75005,183.00003v-20l121,-1v20" fill="none" stroke="#000000" stroke-width="1.5" stroke-linecap="round"/><path d="M373.25004,168.50003h-121" fill="none" stroke="#000000" stroke-width="1.5" stroke-linecap="round"/><path d="M373.25005,176.00003h-121" fill="none" stroke="#000000" stroke-width="1.5" stroke-linecap="round"/></g></g></svg>