<svg version="1.1" xmlns="http://www.w3.org/2000/svg" xmlns:xlink="http://www.w3.org/1999/xlink" width="243.24175" height="257.82828" viewBox="0,0,243.24175,257.82828"><g transform="translate(-143.9047,-147.73037)"><g data-paper-data="{&quot;isPaintingLayer&quot;:true}" fill-rule="nonzero" stroke-linejoin="miter" stroke-miterlimit="10" stroke-dasharray="" stroke-dashoffset="0" style="mix-blend-mode: normal"><path d="M357.25754,168.48659v-20" fill="#a7a7a7" stroke="#000000" stroke-width="1.5" stroke-linecap="round"/><path d="M333.25754,148.48648v20" fill="#838383" stroke="#000000" stroke-width="1.5" stroke-linecap="round"/><path d="M308.75754,148.48648v20" fill="none" stroke="#000000" stroke-width="1.5" stroke-linecap="round"/><path d="M251.26131,402.22233v-232.73273h135.13514v232.73273z" fill="none" stroke="#000000" stroke-width="1.5" stroke-linecap="butt"/><path d="M260.25755,169.48659v-20l121,-1v20" fill="none" stroke="#000000" stroke-width="1.5" stroke-linecap="round"/><path d="M380.75754,154.98659h-121" fill="none" stroke="#000000" stroke-width="1.5" stroke-linecap="round"/><path d="M380.75755,162.48659h-121" fill="none" stroke="#000000" stroke-width="1.5" stroke-linecap="round"/><path d="M284.75754,168.48649v-20" fill="none" stroke="#000000" stroke-width="1.5" stroke-linecap="round"/><path d="M230.62456,152.59594c2.0151,2.2374 1.83489,5.68472 -0.40251,7.69981c-2.2374,2.0151 -5.68472,1.83489 -7.69981,-0.40251c-2.0151,-2.2374 -1.83489,-5.68472 0.40251,-7.69981c2.2374,-2.0151 5.68472,-1.83489 7.69981,0.40251z" fill="#c9c9c9" stroke="none" stroke-width="0" stroke-linecap="butt"/><path d="M220.78063,176.03399c-1.33846,-1.48612 0.14766,-2.82457 0.14766,-2.82457l0.51694,-0.42897c3.16024,-3.94211 4.74437,-8.31894 4.1309,-13.39629c0,0 -0.22536,-1.98727 1.7619,-2.21262c1.98727,-0.22536 2.21263,1.7619 2.21263,1.7619c0.66232,6.17336 -1.14977,11.50552 -4.97629,16.33871l-0.96915,0.90949c0,0 -1.48612,1.33846 -2.82457,-0.14766z" fill="#c9c9c9" stroke="none" stroke-width="0.5" stroke-linecap="butt"/><path d="M211.56385,176.26025c-1.33846,-1.48612 0.14766,-2.82457 0.14766,-2.82457l0.99074,-0.8923c2.93541,-2.63297 7.42378,-6.49837 10.33314,-1.34893c0.48936,0.86615 0.34431,1.95964 0.51646,2.93947c0,0 0.28932,1.97897 -1.68965,2.26828c-1.97897,0.28932 -2.26828,-1.68965 -2.26828,-1.68965c-0.0735,-0.74638 0.47926,-2.3013 -0.2677,-2.23398c-1.19546,0.10772 -3.17075,2.33463 -3.94706,3.03705l-0.99074,0.8923c0,0 -1.48612,1.33846 -2.82457,-0.14766z" fill="#c9c9c9" stroke="none" stroke-width="0.5" stroke-linecap="butt"/><path d="M217.50352,157.4528c1.48612,-1.33846 2.82457,0.14766 2.82457,0.14766l0.75667,0.95513c1.01351,2.07229 1.98572,6.81701 4.2218,3.56961c0,0 1.24585,-1.56457 2.81041,-0.31871c0.16307,0.12986 0.29562,0.26318 0.40221,0.39782c1.92163,0.49982 1.42993,2.42848 1.42993,2.42848c-0.7409,2.82769 -1.64526,6.53658 -5.46964,6.51057c0.19552,0.83326 0.22172,1.87211 0.50926,2.59361c0,0 0.28932,1.97897 -1.68965,2.26828c-1.21028,0.17693 -1.7886,-0.49451 -2.05527,-1.04282c-0.16727,0.25156 -0.35611,0.48779 -0.56158,0.70293c-0.01234,0.01292 -5.76839,4.31502 -5.84097,4.36928l-1.4174,1.27933c0,0 -1.48612,1.33846 -2.82457,-0.14766c-1.33846,-1.48612 0.14766,-2.82457 0.14766,-2.82457l1.55483,-1.39758c1.99014,-1.49122 3.84227,-3.18741 5.97156,-4.47212c1.21503,-0.73308 2.3951,-2.02462 3.68826,-2.51806c-0.20802,-0.14699 -0.4182,-0.28595 -0.63467,-0.4016l-1.54026,-1.5952c0,0 -1.33846,-1.48612 0.14766,-2.82457c0.0287,-0.02584 0.05735,-0.05063 0.08591,-0.07441c-1.00399,-1.40269 -1.77269,-3.19935 -2.52875,-4.74527l-0.13563,-0.0356c0,0 -1.33846,-1.48612 0.14766,-2.82457z" fill="#c9c9c9" stroke="none" stroke-width="0.5" stroke-linecap="butt"/><path d="M223.29121,188.59594c2.0151,2.2374 1.83489,5.68472 -0.40251,7.69981c-2.2374,2.0151 -5.68472,1.83489 -7.69981,-0.40251c-2.0151,-2.2374 -1.83489,-5.68472 0.40251,-7.69981c2.2374,-2.0151 5.68472,-1.83489 7.69981,0.40251z" fill="#acacac" stroke="none" stroke-width="0" stroke-linecap="butt"/><path d="M222.34083,215.05791c-2,0 -2,-2 -2,-2v-1c0.0203,-5.46699 -0.49152,-10.82063 -2.2307,-16.03421c0,0 -0.63245,-1.89737 1.26491,-2.52982c1.89737,-0.63245 2.52982,1.26491 2.52982,1.26491c1.87843,5.63942 2.41738,11.39284 2.43597,17.29913v1c0,0 0,2 -2,2z" fill="#acacac" stroke="none" stroke-width="0.5" stroke-linecap="butt"/><path d="M229.12968,222.95234c-0.89443,1.78886 -2.68328,0.89443 -2.68328,0.89443l-0.66666,-0.33333c-2.40627,-1.31271 -3.58199,-3.04472 -4.2834,-5.10771c-0.20754,1.32878 -0.11968,2.73742 0.15061,4.32339l0.02721,1.99546c0,0 0,2 -2,2c-2,0 -2,-2 -2,-2l0.02722,-1.33787c-0.7481,-4.57624 -0.17558,-8.20444 2.74438,-11.91152c0,0 0.80048,-1.0006 1.92089,-0.75923c1.65841,-0.05151 1.94697,1.67983 1.94697,1.67983c0.46782,2.8069 0.3826,6.32642 3.25498,7.53994l0.66666,0.33333c0,0 1.78886,0.89442 0.89443,2.68328z" fill="#acacac" stroke="none" stroke-width="0.5" stroke-linecap="butt"/><path d="M209.25994,189.97703c1.41421,-1.41421 2.82843,0 2.82843,0l0.48086,0.49816c1.76486,2.26564 4.43604,5.35366 7.43826,5.24939c0,0 0.65191,0 1.21134,0.37219c1.20203,0.27587 1.42811,1.63235 1.42811,1.63235c0.74562,4.81602 -0.79745,6.8888 -5.18495,8.83375l-1.71172,0.68533c0,0 -1.85695,0.74278 -2.59973,-1.11417c-0.74278,-1.85695 1.11417,-2.59973 1.11417,-2.59973l1.62161,-0.648c2.34698,-0.95977 3.11779,-1.39666 2.98643,-3.25462c-3.95286,-0.56587 -6.90532,-3.56754 -9.42699,-6.6577l-0.18581,-0.16851c0,0 -1.41421,-1.41421 0,-2.82843z" fill="#acacac" stroke="none" stroke-width="0.5" stroke-linecap="butt"/><path d="M206.95787,216.26261c2.0151,2.2374 1.83489,5.68472 -0.40251,7.69981c-2.2374,2.0151 -5.68472,1.83489 -7.69981,-0.40251c-2.0151,-2.2374 -1.83489,-5.68472 0.40251,-7.69981c2.2374,-2.0151 5.68472,-1.83489 7.69981,0.40251z" fill="#838383" stroke="none" stroke-width="0" stroke-linecap="butt"/><path d="M219.40705,236.66198c-1.67559,1.09196 -2.76756,-0.58363 -2.76756,-0.58363l-0.54598,-0.8378c-2.96787,-4.59131 -6.31966,-8.79713 -10.62326,-12.21549c0,0 -1.56579,-1.2443 -0.3215,-2.81009c1.2443,-1.56579 2.81009,-0.3215 2.81009,-0.3215c4.65276,3.6991 8.24556,8.22504 11.48586,13.16317l0.54598,0.8378c0,0 1.09196,1.67559 -0.58363,2.76756z" fill="#838383" stroke="none" stroke-width="0.5" stroke-linecap="butt"/><path d="M229.12969,242.95234c-0.89443,1.78885 -2.68328,0.89443 -2.68328,0.89443l-0.66667,-0.33333c-2.58375,-1.29188 -5.48827,-2.36901 -7.8237,-4.08755c-0.65761,-0.48391 -1.50621,-0.87927 -2.12628,-1.42199c-2.55729,0.89901 -1.9519,1.14232 1.14353,2.15665l1.11509,0.81649c0,0 1.41421,1.41421 0,2.82843c-1.37582,1.37582 -2.75165,0.0747 -2.82533,0.00304c-1.68429,-0.54684 -4.40199,-1.38894 -5.05218,-2.87189c-1.928,-4.39737 2.58747,-6.11522 5.49751,-7.1094c0,0 0.16642,-0.05547 0.41712,-0.08428c0.03426,-0.08198 0.06558,-0.16401 0.09315,-0.24612c0,0 0.89443,-1.78885 2.68328,-0.89443c1.78885,0.89443 0.89443,2.68328 0.89443,2.68328c-0.28529,0.19741 -0.97222,0.2654 -0.85586,0.59224c0.1261,0.35418 0.77229,-0.00128 1.11846,0.14537c2.55258,1.08136 5.01533,2.6653 7.50963,3.91245l0.66667,0.33333c0,0 1.78885,0.89443 0.89443,2.68328zM215.54974,243.90228l0.15864,0.053c-0.05129,-0.01734 -0.10422,-0.035 -0.15864,-0.053z" fill="#838383" stroke="none" stroke-width="0.5" stroke-linecap="butt"/><path d="M209.70838,235.62195c-0.07405,-0.02468 -0.14425,-0.05129 -0.21078,-0.07964l-0.70124,1.41004c0,0 -0.89443,1.78885 -2.68328,0.89443c-1.78885,-0.89443 -0.89443,-2.68328 -0.89443,-2.68328l0.61723,-1.22674c0.70236,-1.5844 1.8345,-2.94462 2.85633,-4.34443c0.00522,-0.00715 1.58259,-1.97436 0.7439,-2.6305c-0.64864,-0.50746 -1.43685,-0.80526 -2.15527,-1.20789c0,0 -1.54212,-0.96382 -0.7663,-2.52385c-0.26884,-0.51302 -0.40096,-1.2563 0.26456,-2.08821c1.24939,-1.56174 2.81113,-0.31235 2.81113,-0.31235c0.47925,0.3834 3.57156,2.82582 3.74896,3.12038c1.81747,3.01775 0.75038,5.61899 -0.46224,8.48545l-0.63874,1.92169c0,0 -0.63246,1.89737 -2.52982,1.26491z" fill="#838383" stroke="none" stroke-width="0.5" stroke-linecap="butt"/><path d="M197.62453,227.92928c2.0151,2.2374 1.83489,5.68472 -0.40251,7.69981c-2.2374,2.0151 -5.68472,1.83489 -7.69981,-0.40251c-2.0151,-2.2374 -1.83489,-5.68472 0.40251,-7.69981c2.2374,-2.0151 5.68472,-1.83489 7.69981,0.40251z" fill="#5d5d5d" stroke="none" stroke-width="0" stroke-linecap="butt"/><path d="M215.53322,238.27145c-0.82162,1.82343 -2.64507,1.00182 -2.64507,1.00182l-0.91172,-0.41082c-4.97602,-2.26441 -10.06731,-3.99711 -15.53511,-4.55326c0,0 -1.98968,-0.20284 -1.78685,-2.19251c0.20284,-1.98968 2.19252,-1.78685 2.19252,-1.78685c5.91325,0.60414 11.38017,2.47633 16.77269,4.88575l0.91172,0.41082c0,0 1.82344,0.82162 1.00182,2.64506z" fill="#5d5d5d" stroke="none" stroke-width="0.5" stroke-linecap="butt"/><path d="M224.67417,243.39125c0,2 -2,2 -2,2l-1.96579,-0.10263c-1.31932,-0.43977 -3.07646,-0.79997 -4.67471,-1.36805c0.00393,0.22962 -0.03403,0.48551 -0.1288,0.7698c-0.63246,1.89737 -2.52982,1.26491 -2.52982,1.26491l-1,-0.33333c-2.61587,-0.87196 -7.52923,-1.59312 -6.90919,-5.92673c0.1002,-0.7003 6.25728,-2.87047 7.24252,-3.20133c0,0 1.44328,-0.48109 2.23187,0.65469c0.45253,0.4073 0.63128,0.94355 0.63128,0.94355c0.53866,2.54145 4.10736,2.63696 6.40176,3.40176l0.70088,-0.10263c0,0 2,0 2,2zM212.00344,241.20678c0.13615,0.04589 0.26917,0.09248 0.39681,0.13843c-0.03802,-0.08756 -0.07272,-0.17718 -0.10498,-0.26831c-0.09597,0.04357 -0.19347,0.08704 -0.29183,0.12988z" fill="#5d5d5d" stroke="none" stroke-width="0.5" stroke-linecap="butt"/><path d="M197.67417,244.72458c-2,0 -2,-2 -2,-2l0.02721,-0.66213c0.426,-2.55601 1.72507,-5.20612 1.63945,-7.6712c0,0 0,-2 2,-2c0.26361,0 0.49248,0.03475 0.69118,0.09508c1.51909,-0.59156 2.37863,0.91264 2.37863,0.91264c1.66095,2.97729 1.92719,4.59431 1.90436,7.97931l-0.74347,2.31209c0,0 -0.63246,1.89737 -2.52982,1.26491c-1.89737,-0.63246 -1.26491,-2.52982 -1.26491,-2.52982l0.58986,-1.68791c-0.0039,-0.37892 -0.01067,-0.71792 -0.02415,-1.02841c-0.26318,0.97664 -0.52174,1.96802 -0.69555,3.01091l0.02721,0.00454c0,0 0,2 -2,2z" fill="#5d5d5d" stroke="none" stroke-width="0.5" stroke-linecap="butt"/><path d="M144.6547,404.80865v-160.66066h106.60661v160.66066z" fill="none" stroke="#000000" stroke-width="1.5" stroke-linecap="butt"/><path d="M211.62932,248.62842c-0.23717,-0.71151 0.47434,-0.94868 0.47434,-0.94868l0.84287,-0.25981c0.97053,-1.02243 1.52513,-1.7992 2.76015,-2.03964c0.23387,-0.59381 0.80519,-0.68808 1.56454,-0.97022c0.17235,-0.11867 0.35437,-0.12642 0.50292,-0.09873c0.14241,0.0117 0.30536,0.06185 0.43685,0.20241c0.59889,0.39135 1.39557,0.85733 1.76783,1.48319c0.31994,0.53791 -0.21687,1.42142 0.22568,1.86397c0.14757,0.14757 0.3932,-0.13999 0.58981,-0.20999l1.11703,0.36214c0,0 0.71151,0.23717 0.47434,0.94868c-0.23717,0.71151 -0.94868,0.47434 -0.94868,0.47434l-0.88297,-0.30453c-1.94354,-0.2894 -1.49884,-2.03294 -3.03186,-3.2576c-1.12304,0.39321 0.96558,0.91066 0.5486,2.35626c-0.33715,1.16884 -1.8127,1.70069 -2.72786,2.16517l-0.13841,0.19284c0,0 -0.53033,0.53033 -1.06066,0l-0.00001,0.00002c-0.53033,-0.53033 0,-1.06066 0,-1.06066l0.52825,-0.47382c0.18667,-0.09169 1.74122,-0.7464 1.93881,-1.16816c0.18558,-0.39613 -0.5194,-0.64863 -0.84496,-1.00979c-0.80534,0.26307 -1.37019,1.18283 -2.0308,1.82009l-1.15713,0.40686c0,0 -0.71151,0.23717 -0.94868,-0.47434z" fill="#000000" stroke="none" stroke-width="0.5" stroke-linecap="butt"/><path d="M230.53783,246.58824c-0.53033,0.53033 -1.06066,0 -1.06066,0l-0.50586,-0.54435c-0.27893,-0.0629 -0.55786,-0.12581 -0.83679,-0.18871c0.06817,0.26123 0.20728,0.50776 0.40331,0.6724l0.33333,0.33333c0,0 0.53033,0.53033 0,1.06066c-0.53033,0.53033 -1.06066,0 -1.06066,0l-0.33333,-0.33333c-0.5319,-0.58368 -0.85134,-1.40809 -0.88634,-2.197c0,0 0,-0.75 0.75,-0.75c0.01065,0 0.02115,0.00015 0.0315,0.00045c0.2616,-0.45025 0.81707,-0.31139 0.81707,-0.31139c0.50699,0.1361 1.01397,0.27219 1.52096,0.40829l0.82747,0.78899c0,0 0.53033,0.53033 0,1.06066z" fill="#000000" stroke="none" stroke-width="0.5" stroke-linecap="butt"/><path d="M200.59083,244.72458c0,-0.41421 0.33579,-0.75 0.75,-0.75c0.04477,0 0.08863,0.00392 0.13125,0.01145c0.40091,-0.12328 0.73242,0.20822 0.73242,0.20822c0.76866,0.79683 0.89444,1.6003 1.66667,2.33333l-0.197,-0.21967c0,0 0.75,0 0.75,0.75c0,0.75 -0.75,0.75 -0.75,0.75l-0.86366,-0.21967c-0.69262,-0.718 -0.86326,-1.4414 -1.45522,-2.1138c-0.0048,0.00009 -0.00962,0.00014 -0.01445,0.00014c-0.41421,0 -0.75,-0.33579 -0.75,-0.75z" fill="#000000" stroke="none" stroke-width="0.5" stroke-linecap="butt"/><path d="M199.437,247.76942c-0.71151,-0.23717 -0.47434,-0.94868 -0.47434,-0.94868l0.30453,-0.88297c0.0296,-0.37019 -0.1723,-0.77737 -0.45668,-1.0162c0,0 -0.53033,-0.53033 0,-1.06066c0.53033,-0.53033 1.06066,0 1.06066,0c0.55623,0.61038 0.84885,1.49179 0.87665,2.31713l-0.36214,1.11703c0,0 -0.23717,0.71151 -0.94868,0.47434z" fill="#000000" stroke="none" stroke-width="0.5" stroke-linecap="butt"/><path d="M197.67209,249.06207c-0.67082,-0.33541 -0.33541,-1.00623 -0.33541,-1.00623l0.66874,0.33956c-2.00682,-1.15703 -2.07961,-1.73797 -1.3761,-3.90799c0,0 0.23717,-0.71151 0.94868,-0.47434c0.71151,0.23717 0.47434,0.94868 0.47434,0.94868c-0.45419,1.3169 -0.81288,1.54818 0.6239,2.09201l0.00208,1.6729c0,0 -0.33541,0.67082 -1.00623,0.33541z" fill="#000000" stroke="none" stroke-width="0.5" stroke-linecap="butt"/></g></g></svg>