<svg version="1.1" xmlns="http://www.w3.org/2000/svg" xmlns:xlink="http://www.w3.org/1999/xlink" width="243.24175" height="257.82828" viewBox="0,0,243.24175,257.82828"><g transform="translate(-136.3972,-161.24389)"><g data-paper-data="{&quot;isPaintingLayer&quot;:true}" fill-rule="nonzero" stroke-linejoin="miter" stroke-miterlimit="10" stroke-dasharray="" stroke-dashoffset="0" style="mix-blend-mode: normal"><path d="M349.75004,182.00011v-20" fill="#a7a7a7" stroke="#000000" stroke-width="1.5" stroke-linecap="round"/><path d="M325.75004,162v20" fill="#838383" stroke="#000000" stroke-width="1.5" stroke-linecap="round"/><path d="M301.25004,162v20" fill="none" stroke="#000000" stroke-width="1.5" stroke-linecap="round"/><path d="M243.75381,415.73585v-232.73273h135.13514v232.73273z" fill="none" stroke="#000000" stroke-width="1.5" stroke-linecap="butt"/><path d="M252.75005,183.00011v-20l121,-1v20" fill="none" stroke="#000000" stroke-width="1.5" stroke-linecap="round"/><path d="M252.25004,168.50011h121" fill="none" stroke="#000000" stroke-width="1.5" stroke-linecap="round"/><path d="M373.25005,176.00011h-121" fill="none" stroke="#000000" stroke-width="1.5" stroke-linecap="round"/><path d="M277.25004,182.00001v-20" fill="none" stroke="#000000" stroke-width="1.5" stroke-linecap="round"/><path d="M218.08484,172.41823c2.53839,1.61963 3.28318,4.99035 1.66355,7.52872c-1.61963,2.53839 -4.99035,3.28318 -7.52872,1.66355c-2.53839,-1.61963 -3.28318,-4.99035 -1.66355,-7.52872c1.61963,-2.53839 4.99035,-3.28318 7.52872,-1.66355z" fill="#c9c9c9" stroke="none" stroke-width="0" stroke-linecap="butt"/><path d="M214.84149,197.63184c-1.68604,-1.07579 -0.61025,-2.76181 -0.61025,-2.76181l0.38396,-0.55119c1.99569,-4.64162 2.3564,-9.28231 0.41232,-14.01267c0,0 -0.74669,-1.85539 1.10869,-2.60207c1.85539,-0.74669 2.60208,1.10869 2.60208,1.10869c2.28318,5.77374 1.95728,11.39596 -0.44318,17.07397l-0.6918,1.13483c0,0 -1.07579,1.68604 -2.76181,0.61025z" fill="#c9c9c9" stroke="none" stroke-width="0.5" stroke-linecap="butt"/><path d="M206.01815,200.3056c-1.68604,-1.07579 -0.61025,-2.76181 -0.61025,-2.76181l0.71718,-1.12402c2.12779,-3.31989 5.42403,-8.24143 9.60022,-4.05329c0.70245,0.70446 0.85398,1.79706 1.28097,2.69561c0,0 0.80613,1.83035 -1.02422,2.63647c-1.83035,0.80613 -2.63647,-1.02422 -2.63647,-1.02422c-0.26971,-0.69982 -0.15121,-2.34581 -0.85324,-2.0819c-1.12355,0.42234 -2.43411,3.09505 -2.9952,3.97891l-0.71718,1.12402c0,0 -1.07579,1.68604 -2.76181,0.61025z" fill="#c9c9c9" stroke="none" stroke-width="0.5" stroke-linecap="butt"/><path d="M206.73214,180.59545c1.07579,-1.68604 2.76181,-0.61025 2.76181,-0.61025l0.9838,0.719c1.52901,1.72735 3.73024,6.04153 5.02026,2.31574c0,0 0.78396,-1.83995 2.6239,-1.05599c0.19178,0.08172 0.35506,0.1749 0.49366,0.27628c1.98534,-0.03024 2.02528,1.95971 2.02528,1.95971c0.03929,2.92288 0.15579,6.73865 -3.53727,7.73254c0.41046,0.75105 0.7125,1.74536 1.18188,2.36417c0,0 0.80613,1.83035 -1.02422,2.63647c-1.11939,0.49299 -1.8557,-0.00009 -2.25882,-0.45752c-0.0942,0.28703 -0.21327,0.56504 -0.354,0.82714c-0.00845,0.01574 -4.4102,5.69595 -4.4657,5.76759l-1.0253,1.61073c0,0 -1.07579,1.68604 -2.76181,0.61025c-1.68604,-1.07579 -0.61025,-2.76181 -0.61025,-2.76181l1.12627,-1.76132c1.52088,-1.96756 2.85414,-4.09592 4.56417,-5.90151c0.97579,-1.03031 1.76909,-2.58958 2.88403,-3.40972c-0.23966,-0.08626 -0.47927,-0.16419 -0.71872,-0.21798l-1.9096,-1.12716c0,0 -1.68604,-1.07579 -0.61025,-2.76181c0.02077,-0.03255 0.04179,-0.06408 0.06298,-0.09461c-1.34143,-1.08449 -2.56103,-2.61139 -3.70165,-3.89999l-0.14021,0.00182c0,0 -1.68604,-1.07579 -0.61025,-2.76181z" fill="#c9c9c9" stroke="none" stroke-width="0.5" stroke-linecap="butt"/><path d="M213.52163,203.09348c2.23867,2.01369 2.42105,5.4609 0.40735,7.69956c-2.01369,2.23867 -5.4609,2.42105 -7.69956,0.40735c-2.23867,-2.01369 -2.42105,-5.4609 -0.40735,-7.69956c2.01369,-2.23867 5.4609,-2.42105 7.69956,-0.40735z" fill="#acacac" stroke="none" stroke-width="0" stroke-linecap="butt"/><path d="M215.35212,229.50916c-1.98897,0.20978 -2.19875,-1.77919 -2.19875,-1.77919l-0.10489,-0.99448c-0.55325,-5.43896 -1.6238,-10.70938 -3.90024,-15.71178c0,0 -0.82798,-1.82057 0.99258,-2.64854c1.82057,-0.82798 2.64854,0.99258 2.64854,0.99258c2.45959,5.41128 3.59905,11.07643 4.23706,16.94819l0.10489,0.99448c0,0 0.20978,1.98897 -1.77919,2.19875z" fill="#acacac" stroke="none" stroke-width="0.5" stroke-linecap="butt"/><path d="M222.93158,236.64795c-0.70186,1.87281 -2.57466,1.17095 -2.57466,1.17095l-0.69795,-0.26156c-2.53069,-1.05307 -3.88159,-2.65221 -4.79553,-4.63024c-0.06702,1.34322 0.16811,2.73487 0.60326,4.28374l0.23637,1.9816c0,0 0.20978,1.98897 -1.77919,2.19875c-1.98897,0.20978 -2.19875,-1.77919 -2.19875,-1.77919l-0.11326,-1.33335c-1.22398,-4.47253 -1.03518,-8.14077 1.47983,-12.13367c0,0 0.69111,-1.07904 1.83066,-0.95653c1.64386,-0.22518 2.11243,1.46634 2.11243,1.46634c0.75966,2.74235 1.04408,6.25139 4.0279,7.15693l0.69795,0.26156c0,0 1.87281,0.70185 1.17095,2.57466z" fill="#acacac" stroke="none" stroke-width="0.5" stroke-linecap="butt"/><path d="M199.71263,205.93871c1.25807,-1.55475 2.81283,-0.29668 2.81283,-0.29668l0.53046,0.44497c1.99277,2.06802 4.97312,4.85883 7.94784,4.44022c0,0 0.64831,-0.06838 1.2437,0.24308c1.22434,0.14827 1.59145,1.47355 1.59145,1.47355c1.24667,4.71124 -0.07048,6.93444 -4.22977,9.32888l-1.63039,0.86109c0,0 -1.7688,0.93346 -2.70226,-0.83534c-0.93346,-1.7688 0.83534,-2.70226 0.83534,-2.70226l1.5447,-0.81452c2.23336,-1.20065 2.95409,-1.71598 2.62857,-3.54992c-3.99041,-0.14813 -7.24143,-2.82355 -10.07332,-5.63217l-0.20246,-0.14809c0,0 -1.55475,-1.25807 -0.29668,-2.81283z" fill="#acacac" stroke="none" stroke-width="0.5" stroke-linecap="butt"/><path d="M195.61716,231.41346c2.36914,1.85842 2.78316,5.28553 0.92474,7.65467c-1.85842,2.36914 -5.28553,2.78316 -7.65467,0.92474c-2.36914,-1.85842 -2.78316,-5.28553 -0.92474,-7.65467c1.85842,-2.36914 5.28553,-2.78316 7.65467,-0.92474z" fill="#838383" stroke="none" stroke-width="0" stroke-linecap="butt"/><path d="M211.38218,249.37399c-1.46336,1.36329 -2.82666,-0.10006 -2.82666,-0.10006l-0.68165,-0.73168c-3.71171,-4.01392 -7.73549,-7.5822 -12.56184,-10.21136c0,0 -1.75608,-0.95716 -0.79894,-2.71324c0.95716,-1.75608 2.71324,-0.79894 2.71324,-0.79894c5.21851,2.84582 9.53466,6.68811 13.57427,10.99696l0.68165,0.73168c0,0 1.36329,1.46336 -0.10006,2.82666z" fill="#838383" stroke="none" stroke-width="0.5" stroke-linecap="butt"/><path d="M222.04002,253.90265c-0.5742,1.9158 -2.49,1.34161 -2.49,1.34161l-0.71398,-0.21399c-2.76711,-0.82935 -5.81338,-1.39209 -8.40907,-2.68438c-0.73089,-0.36389 -1.63475,-0.60776 -2.33875,-1.03603c-2.36509,1.3245 -1.72693,1.46032 1.49665,1.92843l1.23866,0.61303c0,0 1.63591,1.15056 0.48535,2.78648c-1.11932,1.5915 -2.69802,0.54577 -2.7829,0.48782c-1.75314,-0.24971 -4.57504,-0.61296 -5.47005,-1.96234c-2.65398,-4.0013 1.49973,-6.46852 4.196,-7.94731c0,0 0.15443,-0.0832 0.39647,-0.15461c0.01968,-0.08664 0.03646,-0.17283 0.04953,-0.25845c0,0 0.5742,-1.9158 2.49,-1.34161c1.9158,0.5742 1.34161,2.49 1.34161,2.49c-0.24718,0.24344 -0.91226,0.42829 -0.74154,0.73032c0.18501,0.32729 0.76061,-0.13378 1.12682,-0.04871c2.70028,0.6273 5.3983,1.76514 8.06961,2.56578l0.71398,0.21399c0,0 1.9158,0.5742 1.34161,2.49zM208.82451,257.1688l0.16538,0.02499c-0.0535,-0.00828 -0.10868,-0.0166 -0.16538,-0.02499z" fill="#838383" stroke="none" stroke-width="0.5" stroke-linecap="butt"/><path d="M201.64891,250.01366c-0.07719,-0.01161 -0.15091,-0.02578 -0.22132,-0.04229l-0.44888,1.50946c0,0 -0.5742,1.9158 -2.49,1.34161c-1.9158,-0.5742 -1.34161,-2.49 -1.34161,-2.49l0.39757,-1.31446c0.42006,-1.68142 1.302,-3.21574 2.06846,-4.77013c0.00392,-0.00794 1.22032,-2.21664 0.28148,-2.71913c-0.7261,-0.38863 -1.55372,-0.54675 -2.33057,-0.82013c0,0 -1.68464,-0.6849 -1.18802,-2.35492c-0.35289,-0.45928 -0.61059,-1.16886 -0.0977,-2.10263c0.96287,-1.75297 2.71583,-0.7901 2.71583,-0.7901c0.53793,0.29547 4.00349,2.17103 4.2288,2.43078c2.30835,2.66111 1.70346,5.40688 1.00071,8.4389l-0.29951,2.00279c0,0 -0.29749,1.97776 -2.27524,1.68026z" fill="#838383" stroke="none" stroke-width="0.5" stroke-linecap="butt"/><path d="M190.11703,241.4428c2.0151,2.2374 1.83489,5.68472 -0.40251,7.69981c-2.2374,2.0151 -5.68472,1.83489 -7.69981,-0.40251c-2.0151,-2.2374 -1.83489,-5.68472 0.40251,-7.69981c2.2374,-2.0151 5.68472,-1.83489 7.69981,0.40251z" fill="#5d5d5d" stroke="none" stroke-width="0" stroke-linecap="butt"/><path d="M208.02572,251.78497c-0.82162,1.82343 -2.64507,1.00182 -2.64507,1.00182l-0.91172,-0.41082c-4.97602,-2.26441 -10.06731,-3.99711 -15.53511,-4.55326c0,0 -1.98968,-0.20284 -1.78685,-2.19251c0.20284,-1.98968 2.19252,-1.78685 2.19252,-1.78685c5.91325,0.60414 11.38017,2.47633 16.77269,4.88575l0.91172,0.41082c0,0 1.82344,0.82162 1.00182,2.64506z" fill="#5d5d5d" stroke="none" stroke-width="0.5" stroke-linecap="butt"/><path d="M217.16667,256.90477c0,2 -2,2 -2,2l-1.96579,-0.10263c-1.31932,-0.43977 -3.07646,-0.79997 -4.67471,-1.36805c0.00393,0.22962 -0.03403,0.48551 -0.1288,0.7698c-0.63246,1.89737 -2.52982,1.26491 -2.52982,1.26491l-1,-0.33333c-2.61587,-0.87196 -7.52923,-1.59312 -6.90919,-5.92673c0.1002,-0.7003 6.25728,-2.87047 7.24252,-3.20133c0,0 1.44328,-0.48109 2.23187,0.65469c0.45253,0.4073 0.63128,0.94355 0.63128,0.94355c0.53866,2.54145 4.10736,2.63696 6.40176,3.40176l0.70088,-0.10263c0,0 2,0 2,2zM204.49594,254.7203c0.13615,0.04589 0.26917,0.09248 0.39681,0.13843c-0.03802,-0.08756 -0.07272,-0.17718 -0.10498,-0.26831c-0.09597,0.04357 -0.19347,0.08704 -0.29183,0.12988z" fill="#5d5d5d" stroke="none" stroke-width="0.5" stroke-linecap="butt"/><path d="M190.16667,258.2381c-2,0 -2,-2 -2,-2l0.02721,-0.66213c0.426,-2.55601 1.72507,-5.20612 1.63945,-7.6712c0,0 0,-2 2,-2c0.26361,0 0.49248,0.03475 0.69118,0.09508c1.51909,-0.59156 2.37863,0.91264 2.37863,0.91264c1.66095,2.97729 1.92719,4.59431 1.90436,7.97931l-0.74347,2.31209c0,0 -0.63246,1.89737 -2.52982,1.26491c-1.89737,-0.63246 -1.26491,-2.52982 -1.26491,-2.52982l0.58986,-1.68791c-0.0039,-0.37892 -0.01067,-0.71792 -0.02415,-1.02841c-0.26318,0.97664 -0.52174,1.96802 -0.69555,3.01091l0.02721,0.00454c0,0 0,2 -2,2z" fill="#5d5d5d" stroke="none" stroke-width="0.5" stroke-linecap="butt"/><path d="M137.1472,418.32217v-160.66066h106.60661v160.66066z" fill="none" stroke="#000000" stroke-width="1.5" stroke-linecap="butt"/><path d="M214.75451,260.58927c0.15097,0.60387 -0.32453,0.83185 -0.49062,0.89194l0.13995,0.04537c0,0 0.71151,0.23717 0.47434,0.94868c-0.23717,0.71151 -0.94868,0.47434 -0.94868,0.47434l-0.88297,-0.30453c-1.94354,-0.2894 -1.49884,-2.03294 -3.03186,-3.2576c-1.12304,0.39321 0.96558,0.91066 0.5486,2.35626c-0.32797,1.13702 -1.7332,1.67126 -2.6519,2.12707c0.03088,0.06943 0.04314,0.11847 0.04314,0.11847c0.0216,0.08639 0.0432,0.17278 0.06479,0.25917c0.22222,0.05504 0.5576,0.2212 0.5576,0.72273c0,0.75 -0.75,0.75 -0.75,0.75l-1.12761,-0.5681c-0.06667,-0.26667 -0.13333,-0.53333 -0.2,-0.8c0,0 -0.04943,-0.19772 0.00632,-0.4128c-0.29709,-0.47138 0.13071,-0.89918 0.13071,-0.89918l0.52825,-0.47382c0.18667,-0.09169 1.74122,-0.7464 1.93881,-1.16816c0.18558,-0.39613 -0.5194,-0.64863 -0.84496,-1.00979c-0.80534,0.26307 -1.37019,1.18283 -2.0308,1.82009l-1.15713,0.40686c0,0 -0.20873,0.06958 -0.43777,0.0203c-0.045,0.09 -0.09,0.18 -0.135,0.27l0.07918,0.06459c0,0 0,0.75 -0.75,0.75c-0.75,0 -0.75,-0.75 -0.75,-0.75l0.07918,-0.73541c0.13333,-0.26667 0.26667,-0.53333 0.4,-0.8c0,0 0.01357,-0.02715 0.04072,-0.06779c-0.3446,-0.4077 -0.58997,-0.71425 -1.188,-0.46919l0.28892,0.0078c0,0 -0.33541,0.67082 -1.00623,0.33541c-0.67082,-0.33541 -0.33541,-1.00623 -0.33541,-1.00623l0.68892,-0.7922c1.46484,-0.26897 1.89085,0.18016 2.91223,1.19728c0,0 0.1525,0.1525 0.21217,0.37572l0.26963,-0.08311c0.97053,-1.02243 1.52513,-1.7992 2.76015,-2.03964c0.23387,-0.59381 0.80519,-0.68808 1.56454,-0.97022c0.17235,-0.11867 0.35437,-0.12642 0.50292,-0.09873c0.14241,0.0117 0.30536,0.06185 0.43685,0.20241c0.59889,0.39135 1.39557,0.85733 1.76783,1.48319c0.14276,0.24002 0.11494,0.54885 0.07966,0.85661c0.16468,-0.04117 0.32935,-0.08234 0.49403,-0.12351l0.8,-0.2c0,0 0.72761,-0.1819 0.90951,0.54571z" fill="#000000" stroke="none" stroke-width="0.5" stroke-linecap="butt"/><path d="M224.55723,260.7015c-0.53033,0.53033 -1.06066,0 -1.06066,0l0.14843,-0.00272c-0.26667,-0.06667 -0.53333,-0.13333 -0.8,-0.2c0,0 -0.16351,-0.04088 -0.31613,-0.16139c-0.31888,0.0047 -0.55921,-0.23563 -0.55921,-0.23563l-0.50586,-0.54435c-0.27893,-0.0629 -0.55786,-0.12581 -0.83679,-0.18871c0.06817,0.26123 0.20728,0.50776 0.40331,0.6724l0.33333,0.33333c0,0 0.53033,0.53033 0,1.06066c-0.02648,0.02648 -0.05296,0.05031 -0.07937,0.0717c-0.03404,0.29544 -0.01063,0.6011 0.07022,0.88248l0.00272,-0.14843c0,0 0.53033,0.53033 0,1.06066c-0.53033,0.53033 -1.06066,0 -1.06066,0l-0.39728,-0.54843c-0.1306,-0.5766 -0.14324,-1.19277 -0.03794,-1.77704c-0.46682,-0.57294 -0.74547,-1.33746 -0.77803,-2.07128c0,0 0,-0.75 0.75,-0.75c0.01065,0 0.02115,0.00015 0.0315,0.00045c0.2616,-0.45025 0.81707,-0.31139 0.81707,-0.31139c0.50699,0.1361 1.01397,0.27219 1.52096,0.40829l0.80886,0.77125c0.11544,-0.0002 0.19709,0.02021 0.19709,0.02021c0.26667,0.06667 0.53333,0.13333 0.8,0.2l0.54843,0.39728c0,0 0.53033,0.53033 0,1.06066z" fill="#000000" stroke="none" stroke-width="0.5" stroke-linecap="butt"/><path d="M198.9769,260.37117c0,0.75 -0.75,0.75 -0.75,0.75l-0.51299,-0.05709c-0.11889,0.14581 -0.23779,0.29161 -0.35668,0.43742c0,0 -0.03919,0.03919 -0.10691,0.0856c-0.08394,0.11695 -0.17342,0.18407 -0.17342,0.18407c-0.8541,0.49462 -0.56253,1.28791 -0.32239,2.2181l0.0078,-0.28892c0,0 0.67082,0.33541 0.33541,1.00623c-0.33541,0.67082 -1.00623,0.33541 -1.00623,0.33541l-0.7922,-0.68892c-0.33063,-1.35786 -0.43301,-2.26762 0.28468,-3.17985l-0.28097,-0.07146c-0.69262,-0.718 -0.86326,-1.4414 -1.45522,-2.1138c-0.0048,0.00009 -0.00962,0.00014 -0.01445,0.00014c-0.41421,0 -0.75,-0.33579 -0.75,-0.75h-0.00001c0,-0.41421 0.33579,-0.75 0.75,-0.75c0.04477,0 0.08863,0.00392 0.13125,0.01145c0.40091,-0.12328 0.73242,0.20822 0.73242,0.20822c0.76866,0.79683 0.89444,1.6003 1.66667,2.33333l-0.197,-0.21967c0,0 0.3398,0 0.56196,0.22872c0.13709,-0.12396 0.27417,-0.24793 0.41126,-0.37189l1.08701,-0.05709c0,0 0.75,0 0.75,0.75z" fill="#000000" stroke="none" stroke-width="0.5" stroke-linecap="butt"/><path d="M193.95723,262.5015c-0.53033,0.53033 -1.06066,0 -1.06066,0l-0.00508,-0.05951c-0.43458,-0.26665 -0.81166,-0.69925 -1.02812,-1.18352c-0.63029,-0.258 -0.40822,-0.92421 -0.40822,-0.92421l0.30453,-0.88297c0.0296,-0.37019 -0.1723,-0.77737 -0.45668,-1.0162c0,0 -0.53033,-0.53033 0,-1.06066c0.53033,-0.53033 1.06066,0 1.06066,0c0.55623,0.61038 0.84885,1.49179 0.87665,2.31713l-0.16109,0.49687c0.09767,0.19004 0.09767,0.38274 0.09767,0.38274c-0.05808,0.21035 0.17362,0.47661 0.38541,0.52918l0.39492,0.34049c0,0 0.53033,0.53033 0,1.06066z" fill="#000000" stroke="none" stroke-width="0.5" stroke-linecap="butt"/><path d="M189.36231,265.64199c-0.67082,0.33541 -1.00623,-0.33541 -1.00623,-0.33541l-0.27918,-0.73541c0.02679,-1.5653 0.55542,-2.24905 1.52775,-3.23675c-1.11491,-0.83924 -1.06131,-1.54916 -0.48284,-3.33349c0,0 0.23717,-0.71151 0.94868,-0.47434c0.71151,0.23717 0.47434,0.94868 0.47434,0.94868c-0.01317,0.03818 -0.02625,0.07544 -0.03922,0.11183c0.15058,0.13788 0.21764,0.30554 0.21764,0.30554c0.80848,2.03019 0.33878,3.6392 1.50713,5.35863c0.2221,0.0578 0.54652,0.22665 0.54652,0.71992c0,0.75 -0.75,0.75 -0.75,0.75l-0.8,-0.3c-0.63312,-0.86728 -0.91011,-1.68181 -1.08854,-2.50179c-0.37293,0.4221 -0.58092,0.84889 -0.56146,1.65179l0.12082,0.06459c0,0 0.33541,0.67082 -0.33541,1.00623z" fill="#000000" stroke="none" stroke-width="0.5" stroke-linecap="butt"/></g></g></svg>