<svg version="1.1" xmlns="http://www.w3.org/2000/svg" xmlns:xlink="http://www.w3.org/1999/xlink" width="361.86038" height="383.60122" viewBox="0,0,361.86038,383.60122"><g transform="translate(-152.91371,-94.0295)"><g data-paper-data="{&quot;isPaintingLayer&quot;:true}" fill-rule="nonzero" stroke-linejoin="miter" stroke-miterlimit="10" stroke-dasharray="" stroke-dashoffset="0" style="mix-blend-mode: normal"><path d="M470.58719,94.78573v29.81366" fill="#a7a7a7" stroke="#000000" stroke-width="1.5" stroke-linecap="round"/><path d="M434.8108,124.59923v-29.81366" fill="#838383" stroke="#000000" stroke-width="1.5" stroke-linecap="round"/><path d="M398.28906,124.59923v-29.81366" fill="none" stroke="#000000" stroke-width="1.5" stroke-linecap="round"/><path d="M312.5804,473.02534v-346.93077h201.44369v346.93077z" fill="none" stroke="#000000" stroke-width="1.5" stroke-linecap="butt"/><path d="M325.99093,126.09008v-29.81366l180.37266,-1.49069v29.81366" fill="none" stroke="#000000" stroke-width="1.5" stroke-linecap="round"/><path d="M505.61825,104.47518h-180.37266" fill="none" stroke="#000000" stroke-width="1.5" stroke-linecap="round"/><path d="M505.61827,115.65529h-180.37266" fill="none" stroke="#000000" stroke-width="1.5" stroke-linecap="round"/><path d="M362.51266,124.59925v-29.81366" fill="none" stroke="#000000" stroke-width="1.5" stroke-linecap="round"/><path d="M232.62495,213.20962c3.00388,3.33525 2.73524,8.47411 -0.60001,11.47798c-3.33525,3.00388 -8.47411,2.73524 -11.47798,-0.60001c-3.00388,-3.33525 -2.73524,-8.47411 0.60001,-11.47798c3.33525,-3.00388 8.47411,-2.73524 11.47798,0.60001z" fill="#5d5d5d" stroke="none" stroke-width="0" stroke-linecap="butt"/><path d="M259.32113,228.62652c-1.22478,2.71816 -3.94296,1.4934 -3.94296,1.4934l-1.35909,-0.6124c-7.41767,-3.37551 -15.00717,-5.95842 -23.15793,-6.78746c0,0 -2.96599,-0.30237 -2.66363,-3.26834c0.30237,-2.96599 3.26835,-2.66363 3.26835,-2.66363c8.81479,0.90059 16.96423,3.69142 25.00276,7.2831l1.35909,0.6124c0,0 2.71817,1.22478 1.4934,3.94295z" fill="#5d5d5d" stroke="none" stroke-width="0.5" stroke-linecap="butt"/><path d="M272.9474,236.25852c0,2.98136 -2.98136,2.98136 -2.98136,2.98136l-2.93037,-0.15299c-1.96669,-0.65556 -4.58603,-1.1925 -6.96851,-2.03933c0.00586,0.34229 -0.05073,0.72374 -0.192,1.14753c-0.9428,2.82838 -3.77116,1.88558 -3.77116,1.88558l-1.49069,-0.49689c-3.89944,-1.29981 -11.2237,-2.37484 -10.29941,-8.83488c0.14936,-1.04393 9.32762,-4.27896 10.7963,-4.77216c0,0 2.15147,-0.71715 3.32701,0.97594c0.67458,0.60715 0.94104,1.40654 0.94104,1.40654c0.80297,3.7885 6.12277,3.93087 9.543,5.07095l1.04479,-0.15299c0,0 2.98136,0 2.98136,2.98136zM254.05935,233.00217c0.20296,0.06841 0.40125,0.13786 0.59151,0.20635c-0.05668,-0.13052 -0.1084,-0.26411 -0.15649,-0.39996c-0.14306,0.06495 -0.2884,0.12975 -0.43503,0.19361z" fill="#5d5d5d" stroke="none" stroke-width="0.5" stroke-linecap="butt"/><path d="M232.69895,238.24609c-2.98136,0 -2.98136,-2.98136 -2.98136,-2.98136l0.04056,-0.98703c0.63504,-3.8102 2.57154,-7.76068 2.4439,-11.43533c0,0 0,-2.98136 2.98136,-2.98136c0.39296,0 0.73414,0.0518 1.03033,0.14174c2.26449,-0.88183 3.54579,1.36046 3.54579,1.36046c2.47595,4.4382 2.87283,6.84866 2.8388,11.89462l-1.10828,3.4466c0,0 -0.9428,2.82838 -3.77116,1.88558c-2.82838,-0.9428 -1.88558,-3.77116 -1.88558,-3.77116l0.8793,-2.51614c-0.00581,-0.56485 -0.0159,-1.07019 -0.036,-1.53304c-0.39231,1.45586 -0.77775,2.9337 -1.03685,4.48831l0.04056,0.00676c0,0 0,2.98136 -2.98136,2.98136z" fill="#5d5d5d" stroke="none" stroke-width="0.5" stroke-linecap="butt"/><path d="M153.66371,476.88073v-239.49415h158.91669v239.49415z" fill="none" stroke="#000000" stroke-width="1.5" stroke-linecap="butt"/><path d="M272.06823,244.4072c0,1.11801 -1.11801,1.11801 -1.11801,1.11801l-0.02699,-0.03338c-0.31646,0.07911 -0.63291,0.15824 -0.94937,0.23735c-0.06416,0.55649 -0.53691,0.98858 -1.1106,0.98858c-0.61745,0 -1.11801,-0.50056 -1.11801,-1.11801c0,-0.15259 0.03056,-0.29801 0.08591,-0.43054l-1.0256,-0.35372c-2.8972,-0.4314 -2.2343,-3.03047 -4.51954,-4.85605c-1.6741,0.58615 1.43937,1.3575 0.81779,3.51244c-0.4889,1.69494 -2.58365,2.49131 -3.95314,3.17079c0.04604,0.1035 0.06431,0.1766 0.06431,0.1766c0.0322,0.12878 0.0644,0.25756 0.09659,0.38634c0.33126,0.08205 0.8312,0.32974 0.8312,1.07736c0,0.02695 -0.00065,0.05325 -0.00192,0.0789c0.19998,-0.00789 0.34761,0.02902 0.34761,0.02902l1.19255,0.29814c0,0 1.08464,0.27115 0.81349,1.35579c-0.27115,1.08464 -1.35579,0.81349 -1.35579,0.81349l-1.19255,-0.29814c0,0 -0.95435,-0.23859 -0.84885,-1.16337c-0.04557,0.00419 -0.07255,0.00419 -0.07255,0.00419l-1.68091,-0.84686c-0.09939,-0.39752 -0.19875,-0.79503 -0.29814,-1.19255c0,0 -0.07369,-0.29474 0.00942,-0.61535c-0.44286,-0.70268 0.19485,-1.34039 0.19485,-1.34039l0.78745,-0.70631c0.27826,-0.13669 2.59561,-1.11265 2.89015,-1.74136c0.27664,-0.5905 -0.77426,-0.9669 -1.25956,-1.50528c-1.20051,0.39215 -2.04251,1.76322 -3.02728,2.71318l-1.72491,0.6065c0,0 -0.31115,0.10372 -0.65258,0.03026c-0.05729,0.11457 -0.11457,0.22914 -0.17185,0.34371c0.68492,0.24305 0.68492,1.0495 0.68492,1.0495c0,0.49689 0,0.9938 0,1.49069l0.1801,0.09629c0,0 0.49999,0.99998 -0.49999,1.49997c-0.99998,0.49999 -1.49997,-0.49999 -1.49997,-0.49999l-0.41616,-1.09626c0,-0.45729 0,-0.91458 0,-1.37186c-0.59629,-0.27799 -0.59629,-1.01326 -0.59629,-1.01326l0.11804,-1.09626c0.19875,-0.39752 0.39752,-0.79503 0.59627,-1.19255c0,0 0.02023,-0.04047 0.0607,-0.10105c-0.51369,-0.60775 -0.87946,-1.06472 -1.77094,-0.69941l0.43069,0.01163c0,0 -0.39826,0.79654 -1.1948,0.61234l-0.55595,1.38986c0,0 -0.41521,1.03805 -1.45326,0.62282c-1.03805,-0.41521 -0.62282,-1.45326 -0.62282,-1.45326l0.59627,-1.49069c0,0 0.35767,-0.8942 1.23903,-0.69075l1.01854,-1.17123c2.18361,-0.40095 2.81866,0.26856 4.34121,1.78476c0,0 0.22733,0.22733 0.31628,0.56008l0.40194,-0.12389c1.44675,-1.52411 2.27349,-2.68204 4.11451,-3.04046c0.34863,-0.88519 1.20029,-1.02571 2.33224,-1.44629c0.25691,-0.1769 0.52825,-0.18845 0.7497,-0.14718c0.21229,0.01744 0.4552,0.0922 0.6512,0.30173c0.89275,0.58338 2.08035,1.27801 2.63527,2.21096c0.21281,0.3578 0.17134,0.81816 0.11875,1.27694c0.24549,-0.06137 0.49096,-0.12274 0.73644,-0.18411l1.19255,-0.29814c0,0 0.20941,-0.05235 0.4672,-0.01904c0.18491,-0.36241 0.56171,-0.61059 0.99649,-0.61059c0.61745,0 1.11801,0.50056 1.11801,1.11801c0,0.61745 -0.50056,1.11801 -1.11801,1.11801c-0.05734,0 -0.11365,-0.00431 -0.16865,-0.01264c-0.17254,0.33574 -0.51394,0.49264 -0.67061,0.54934l0.20862,0.06764c0,0 0.35011,0.1167 0.58098,0.41716c0.32369,-0.08093 0.64737,-0.16184 0.97106,-0.24277l0.56929,-0.03338c0,0 1.11801,0 1.11801,1.11801z" fill="#000000" stroke="none" stroke-width="0.5" stroke-linecap="butt"/><path d="M279.29805,247.31403c-0.54254,0 -0.99482,-0.38645 -1.09659,-0.8991c-0.10506,-0.0963 -0.19621,-0.22321 -0.25399,-0.39049c-0.20561,-0.10164 -0.33442,-0.23045 -0.33442,-0.23045l-0.59221,-0.81754c-0.19469,-0.85953 -0.21353,-1.77804 -0.05656,-2.649c-0.69589,-0.85407 -1.11126,-1.99373 -1.1598,-3.08762c0,0 0,-1.11801 1.11801,-1.11801c0.01588,0 0.03153,0.00022 0.04696,0.00067c0.38996,-0.67118 1.21799,-0.46419 1.21799,-0.46419c0.75576,0.20289 1.51151,0.40575 2.26727,0.60864l1.20575,1.14969c0.17209,-0.0003 0.2938,0.03013 0.2938,0.03013c0.39752,0.09939 0.79503,0.19875 1.19255,0.29814l0.81754,0.59221c0,0 0.05086,0.05086 0.11389,0.13969c0.05229,-0.03397 0.08629,-0.05096 0.08629,-0.05096c0.39752,-0.19875 0.79503,-0.39752 1.19255,-0.59627l0.79813,-0.11804c0,0 1.11801,0 1.11801,1.11801c0,1.11801 -1.11801,1.11801 -1.11801,1.11801l0.20185,-0.11804c-0.39752,0.19875 -0.79503,0.39752 -1.19255,0.59627c0,0 -0.11861,0.0593 -0.29455,0.09621c-0.095,0.52114 -0.55129,0.91624 -1.09985,0.91624c-0.61745,0 -1.11801,-0.50056 -1.11801,-1.11801c0,-0.06711 0.00591,-0.13282 0.01725,-0.19669c-0.17726,-0.09652 -0.28606,-0.20533 -0.28606,-0.20533l0.22126,-0.00405c-0.39752,-0.09939 -0.79503,-0.19875 -1.19255,-0.29814c0,0 -0.24374,-0.06094 -0.47125,-0.24059c-0.47535,0.007 -0.8336,-0.35125 -0.8336,-0.35125l-0.75408,-0.81145c-0.4158,-0.09376 -0.83159,-0.18754 -1.24739,-0.28131c0.10162,0.38941 0.30899,0.75691 0.60121,1.00234l0.49689,0.49689c0,0 0.79055,0.79055 0,1.58111c-0.03947,0.03947 -0.07895,0.075 -0.11831,0.10689c-0.05074,0.44041 -0.01585,0.89605 0.10468,1.3155l0.00405,-0.22126c0,0 0.10179,0.10179 0.19579,0.26883c0.2675,0 0.535,0 0.80251,0l1.08869,0.6256c0,0 0.79055,0.79055 0,1.58111c-0.43036,0.43036 -0.8607,0.39216 -1.16354,0.26802c-0.20416,0.21995 -0.4958,0.35757 -0.81956,0.35757z" fill="#000000" stroke="none" stroke-width="0.5" stroke-linecap="butt"/><path d="M247.91916,242.02212c0,1.11801 -1.11801,1.11801 -1.11801,1.11801c-0.39752,0 -1.3913,0 -1.78882,0c0,0 -0.80235,0 -1.04762,-0.67969l-0.01522,-0.0017c-0.17723,0.21736 -0.35447,0.4347 -0.5317,0.65205c0,0 -0.05842,0.05842 -0.15936,0.1276c-0.12513,0.17434 -0.25851,0.27439 -0.25851,0.27439c-1.27319,0.73732 -0.83855,1.91986 -0.48059,3.30649l0.01163,-0.43069c0,0 0.71739,0.35869 0.63311,1.07608c0.01969,-0.00103 0.03951,-0.00155 0.05946,-0.00155c0.61745,0 1.11801,0.50056 1.11801,1.11801c0,0.61745 -0.50056,1.11801 -1.11801,1.11801c-0.61745,0 -1.11801,-0.50056 -1.11801,-1.11801c0,-0.02271 0.00067,-0.04529 0.00201,-0.06766c-0.31902,0.00385 -0.57655,-0.12491 -0.57655,-0.12491l-1.18091,-1.02696c-0.49286,-2.02414 -0.64549,-3.3803 0.42436,-4.74015l-0.41884,-0.10652c-1.03248,-1.07031 -1.28685,-2.14867 -2.16927,-3.151c-0.00715,0.00014 -0.01434,0.00021 -0.02154,0.00021c-0.61745,0 -1.11801,-0.50056 -1.11801,-1.11801h-0.00001c0,-0.61745 0.50056,-1.11801 1.11801,-1.11801c0.06674,0 0.13211,0.00584 0.19565,0.01706c0.59763,-0.18377 1.0918,0.31039 1.0918,0.31039c1.14583,1.18782 1.33333,2.38554 2.48448,3.47825l-0.29366,-0.32746c0,0 0.50654,0 0.8377,0.34095c0.20436,-0.18479 0.4087,-0.36959 0.61306,-0.55437l1.62039,-0.0851c0,0 0.73528,0 1.01326,0.59629c0.15915,0 0.31829,0 0.47745,0h0.59627c0,0 1.11801,0 1.11801,1.11801z" fill="#000000" stroke="none" stroke-width="0.5" stroke-linecap="butt"/><path d="M238.35705,246.89787c-0.99998,0.49999 -1.49997,-0.49999 -1.49997,-0.49999l-0.08871,-0.30571c-0.29814,-0.29814 -0.59627,-0.59627 -0.89441,-0.89441c0,0 -0.74781,-0.74781 -0.06148,-1.51613c-0.23566,-0.2835 -0.43544,-0.60011 -0.5843,-0.93312c-0.93956,-0.3846 -0.60853,-1.3777 -0.60853,-1.3777l0.45396,-1.31623c0.04412,-0.55184 -0.25685,-1.15881 -0.68076,-1.51484c0,0 -0.79055,-0.79055 0,-1.58111c0.79055,-0.79055 1.58111,0 1.58111,0c0.82916,0.90989 1.26536,2.22379 1.30681,3.45411l-0.24014,0.74068c0.1456,0.28329 0.1456,0.57055 0.1456,0.57055c-0.08658,0.31356 0.25881,0.71047 0.57452,0.78884l0.5887,0.50756c0,0 0.76836,0.76836 0.03259,1.54759l0.475,0.82995c0,0 0.49999,0.99998 -0.49999,1.49997z" fill="#000000" stroke="none" stroke-width="0.5" stroke-linecap="butt"/><path d="M238.5589,250.57178c-0.49999,0.99998 -1.49997,0.49999 -1.49997,0.49999l-1.19255,-0.59627c0,0 -0.77273,-0.38637 -0.62,-1.1591l-0.96698,-0.36261c-0.94379,-1.29284 -1.35669,-2.50705 -1.62266,-3.72938c-0.55592,0.62921 -0.86596,1.26543 -0.83696,2.4623l0.1801,0.09629c0,0 0.14701,0.29401 0.12218,0.6429c0.11731,0.13418 0.17598,0.25149 0.17598,0.25149c0.19875,0.39752 0.39752,0.79503 0.59627,1.19255l0.38685,0.30571c0,0 0.79055,0.79055 0,1.58111c-0.79055,0.79055 -1.58111,0 -1.58111,0l-0.8057,-0.88684c-0.19182,-0.38363 -0.38363,-0.76725 -0.57545,-1.1509c-0.08924,0.01806 -0.17786,0.0449 -0.26405,0.07926c0.00116,0.2354 -0.08609,0.50066 -0.35134,0.76593c-0.79055,0.79055 -1.58111,0 -1.58111,0l-0.29814,-1.87925c0.49479,-0.44741 1.10885,-0.80034 1.75971,-1.01071c0.04251,-2.32456 0.83031,-3.34281 2.27716,-4.81254c-1.08124,-0.8139 -1.42523,-1.5462 -1.29618,-2.69099c-0.23171,0.18909 -0.48644,0.25278 -0.48644,0.25278c-1.66733,0.34046 -1.98116,1.85846 -2.95439,3.16381l-1.16865,0.85571c0,0 -0.93025,0.62016 -1.5504,-0.31008c-0.62016,-0.93025 0.31008,-1.5504 0.31008,-1.5504l0.62016,-0.33684c1.36204,-1.80381 1.77762,-3.25513 4.04097,-3.94487c0.17126,-0.39776 0.56679,-0.67625 1.02735,-0.67625c0.28149,0 0.53867,0.10402 0.73522,0.27574c0.00084,-0.0026 0.00169,-0.00519 0.00251,-0.00779c0,0 0.35355,-1.06064 1.41419,-0.70709c1.06064,0.35355 0.70709,1.41419 0.70709,1.41419c-0.01964,0.05691 -0.03913,0.11246 -0.05846,0.1667c0.22446,0.20554 0.32444,0.45546 0.32444,0.45546c1.20519,3.02637 0.50501,5.4249 2.24665,7.98802c0.33109,0.08616 0.81469,0.33786 0.81469,1.07317c0,0.03423 -0.00104,0.06741 -0.00309,0.09958c0.16761,0.03703 0.27947,0.09297 0.27947,0.09297l1.19255,0.59627c0,0 0.99998,0.49999 0.49999,1.49997z" fill="#000000" stroke="none" stroke-width="0.5" stroke-linecap="butt"/></g></g></svg>