<svg version="1.1" xmlns="http://www.w3.org/2000/svg" xmlns:xlink="http://www.w3.org/1999/xlink" width="598.88161" height="610.32782" viewBox="0,0,598.88161,610.32782"><g transform="translate(-132.72528,-15.95155)"><g data-paper-data="{&quot;isPaintingLayer&quot;:true}" fill-rule="nonzero" stroke-linejoin="miter" stroke-miterlimit="10" stroke-dasharray="" stroke-dashoffset="0" style="mix-blend-mode: normal"><path d="M661.64552,16.70775v47.50441" fill="#a7a7a7" stroke="#000000" stroke-width="1.5" stroke-linecap="round"/><path d="M604.64022,16.70751v47.50441" fill="#838383" stroke="#000000" stroke-width="1.5" stroke-linecap="round"/><path d="M546.4473,16.70751v47.50441" fill="none" stroke="#000000" stroke-width="1.5" stroke-linecap="round"/><path d="M409.88103,619.3863v-552.79173h320.97587v552.79173z" fill="none" stroke="#000000" stroke-width="1.5" stroke-linecap="butt"/><path d="M431.24907,66.58741v-47.50441l287.40177,-2.37523v47.50441" fill="none" stroke="#000000" stroke-width="1.5" stroke-linecap="round"/><path d="M430.06145,32.1467h287.40177" fill="none" stroke="#000000" stroke-width="1.5" stroke-linecap="round"/><path d="M430.06149,49.96086h287.40177" fill="none" stroke="#000000" stroke-width="1.5" stroke-linecap="round"/><path d="M489.44198,16.70755v47.50441" fill="none" stroke="#000000" stroke-width="1.5" stroke-linecap="round"/><path d="M156.66672,625.52937v-381.60462h253.2143v381.60462z" fill="none" stroke="#000000" stroke-width="1.5" stroke-linecap="butt"/><path d="M345.32984,255.11127c0,1.78141 -1.78141,1.78141 -1.78141,1.78141l-0.043,-0.05318c-0.50424,0.12605 -1.00846,0.25214 -1.5127,0.37819c-0.10223,0.8867 -0.8555,1.57518 -1.7696,1.57518c-0.98383,0 -1.78141,-0.79758 -1.78141,-1.78141c0,-0.24313 0.04869,-0.47484 0.13689,-0.68601l-1.63417,-0.56361c-4.61633,-0.68739 -3.56008,-4.82868 -7.20133,-7.73752c-2.66748,0.93396 2.29346,2.16301 1.30305,5.59665c-0.77901,2.70067 -4.11673,3.9696 -6.29884,5.05226c0.07336,0.16492 0.10247,0.28139 0.10247,0.28139c0.05131,0.20519 0.10261,0.41039 0.1539,0.61558c0.52782,0.13073 1.32442,0.5254 1.32442,1.71664c0,0.04294 -0.00104,0.08484 -0.00305,0.12572c0.31865,-0.01257 0.55387,0.04624 0.55387,0.04624l1.90019,0.47506c0,0 1.72824,0.43204 1.2962,2.16029c-0.43204,1.72824 -2.16029,1.2962 -2.16029,1.2962l-1.90019,-0.47506c0,0 -1.52064,-0.38017 -1.35254,-1.85369c-0.07261,0.00667 -0.1156,0.00667 -0.1156,0.00667l-2.67832,-1.34937c-0.15837,-0.6334 -0.31669,-1.26679 -0.47506,-1.90019c0,0 -0.11742,-0.46964 0.01501,-0.98048c-0.70564,-1.11963 0.31047,-2.13575 0.31047,-2.13575l1.25471,-1.12542c0.44337,-0.2178 4.13578,-1.77287 4.6051,-2.77465c0.44079,-0.94089 -1.23369,-1.54064 -2.00695,-2.39848c-1.91287,0.62485 -3.25449,2.80948 -4.8236,4.32312l-2.74843,0.96639c0,0 -0.49578,0.16527 -1.03981,0.04822c-0.09128,0.18255 -0.18255,0.36511 -0.27382,0.54766c1.09134,0.38727 1.09134,1.67225 1.09134,1.67225c0,0.79173 0,1.5835 0,2.37523l0.28696,0.15342c0,0 0.79668,1.59335 -0.79668,2.39001c-1.59335,0.79668 -2.39001,-0.79668 -2.39001,-0.79668l-0.6631,-1.74675c0,-0.72864 0,-1.45727 0,-2.18589c-0.95011,-0.44294 -0.95011,-1.6145 -0.95011,-1.6145l0.18808,-1.74675c0.31669,-0.6334 0.6334,-1.26679 0.95009,-1.90019c0,0 0.03224,-0.06448 0.09672,-0.16101c-0.81851,-0.96838 -1.40131,-1.6965 -2.82177,-1.11443l0.68626,0.01853c0,0 -0.63458,1.26919 -1.90377,0.97568l-0.88584,2.21457c0,0 -0.66159,1.654 -2.31559,0.99239c-1.654,-0.66159 -0.99239,-2.31559 -0.99239,-2.31559l0.95009,-2.37523c0,0 0.5699,-1.4248 1.97424,-1.10063l1.62292,-1.86621c3.47932,-0.63886 4.49119,0.42792 6.91718,2.84379c0,0 0.36223,0.36223 0.50396,0.89242l0.64045,-0.1974c2.30522,-2.42848 3.62253,-4.27351 6.55596,-4.8446c0.5555,-1.41044 1.91252,-1.63434 3.71614,-2.30449c0.40935,-0.28187 0.8417,-0.30028 1.19455,-0.23451c0.33826,0.02779 0.7253,0.14691 1.0376,0.48077c1.42248,0.92955 3.31479,2.03635 4.19898,3.52289c0.33908,0.57011 0.273,1.30364 0.18921,2.03464c0.39116,-0.09778 0.78229,-0.19557 1.17343,-0.29335l1.90019,-0.47506c0,0 0.33367,-0.08341 0.74443,-0.03034c0.29463,-0.57745 0.89501,-0.9729 1.58779,-0.9729c0.98383,0 1.78141,0.79758 1.78141,1.78141c0,0.98383 -0.79758,1.78141 -1.78141,1.78141c-0.09136,0 -0.18109,-0.00687 -0.26872,-0.02015c-0.27492,0.53496 -0.8189,0.78496 -1.06854,0.87531l0.33241,0.10777c0,0 0.55785,0.18594 0.92572,0.6647c0.51576,-0.12895 1.03151,-0.25787 1.54727,-0.38683l0.90709,-0.05318c0,0 1.78141,0 1.78141,1.78141z" fill="#000000" stroke="none" stroke-width="0.5" stroke-linecap="butt"/><path d="M356.84968,259.74295c-0.86447,0 -1.58513,-0.61577 -1.74728,-1.43261c-0.1674,-0.15345 -0.31264,-0.35566 -0.4047,-0.6222c-0.32761,-0.16195 -0.53285,-0.36719 -0.53285,-0.36719l-0.94362,-1.30266c-0.31022,-1.36956 -0.34024,-2.83309 -0.09013,-4.22085c-1.10882,-1.36085 -1.77065,-3.17677 -1.848,-4.91974c0,0 0,-1.78141 1.78141,-1.78141c0.0253,0 0.05024,0.00035 0.07482,0.00106c0.62135,-1.06944 1.94071,-0.73963 1.94071,-0.73963c1.20421,0.32328 2.40841,0.64651 3.61262,0.96979l1.92121,1.83189c0.2742,-0.00048 0.46813,0.048 0.46813,0.048c0.6334,0.15837 1.26679,0.31669 1.90019,0.47506l1.30266,0.94362c0,0 0.08104,0.08104 0.18148,0.22258c0.08332,-0.05412 0.1375,-0.0812 0.1375,-0.0812c0.6334,-0.31669 1.26679,-0.6334 1.90019,-0.95009l1.27172,-0.18808c0,0 1.78141,0 1.78141,1.78141c0,1.78141 -1.78141,1.78141 -1.78141,1.78141l0.32162,-0.18808c-0.6334,0.31669 -1.26679,0.6334 -1.90019,0.95009c0,0 -0.18899,0.09448 -0.46933,0.1533c-0.15137,0.83037 -0.87841,1.45991 -1.75248,1.45991c-0.98383,0 -1.78141,-0.79758 -1.78141,-1.78141c0,-0.10694 0.00942,-0.21163 0.02749,-0.3134c-0.28244,-0.1538 -0.4558,-0.32717 -0.4558,-0.32717l0.35256,-0.00646c-0.6334,-0.15837 -1.26679,-0.31669 -1.90019,-0.47506c0,0 -0.38837,-0.09711 -0.75088,-0.38336c-0.75741,0.01115 -1.32824,-0.55967 -1.32824,-0.55967l-1.20153,-1.29295c-0.66253,-0.1494 -1.32504,-0.29882 -1.98757,-0.44824c0.16192,0.62048 0.49234,1.20605 0.95795,1.59711l0.79173,0.79173c0,0 1.25965,1.25965 0,2.5193c-0.06289,0.06289 -0.1258,0.1195 -0.18851,0.17031c-0.08085,0.70174 -0.02526,1.42774 0.16679,2.09608l0.00646,-0.35256c0,0 0.16219,0.16219 0.31197,0.42835c0.42623,0 0.85246,0 1.2787,0l1.73469,0.99681c0,0 1.25965,1.25965 0,2.5193c-0.68572,0.68572 -1.37142,0.62486 -1.85396,0.42706c-0.32531,0.35046 -0.79,0.56974 -1.30587,0.56974z" fill="#000000" stroke="none" stroke-width="0.5" stroke-linecap="butt"/><path d="M306.85125,251.31093c0,1.78141 -1.78141,1.78141 -1.78141,1.78141c-0.6334,0 -2.21686,0 -2.85026,0c0,0 -1.27845,0 -1.66926,-1.083l-0.02425,-0.0027c-0.28239,0.34633 -0.56481,0.69264 -0.8472,1.03896c0,0 -0.09309,0.09309 -0.25392,0.20332c-0.19938,0.27779 -0.41191,0.43721 -0.41191,0.43721c-2.02867,1.17483 -1.33612,3.05907 -0.76576,5.26849l0.01853,-0.68626c0,0 1.14308,0.57153 1.00878,1.71461c0.03138,-0.00164 0.06296,-0.00247 0.09474,-0.00247c0.98383,0 1.78141,0.79758 1.78141,1.78141c0,0.98383 -0.79758,1.78141 -1.78141,1.78141c-0.98383,0 -1.78141,-0.79758 -1.78141,-1.78141c0,-0.03618 0.00106,-0.07216 0.0032,-0.10781c-0.50832,0.00613 -0.91867,-0.19903 -0.91867,-0.19903l-1.88164,-1.63633c-0.78531,-3.22522 -1.02851,-5.38609 0.67617,-7.55285l-0.66737,-0.16972c-1.64513,-1.70541 -2.05043,-3.42365 -3.45647,-5.02073c-0.01139,0.00023 -0.02285,0.00034 -0.03432,0.00034c-0.98383,0 -1.78141,-0.79758 -1.78141,-1.78141h-0.00001c0,-0.98383 0.79758,-1.78141 1.78141,-1.78141c0.10635,0 0.2105,0.00931 0.31175,0.02718c0.95225,-0.29281 1.73965,0.49457 1.73965,0.49457c1.82574,1.89264 2.1245,3.80106 3.95872,5.54216l-0.46791,-0.52177c0,0 0.8071,0 1.33477,0.54326c0.32562,-0.29444 0.65121,-0.5889 0.97684,-0.88332l2.5819,-0.1356c0,0 1.17158,0 1.6145,0.95011c0.25358,0 0.50716,0 0.76076,0h0.95009c0,0 1.78141,0 1.78141,1.78141z" fill="#000000" stroke="none" stroke-width="0.5" stroke-linecap="butt"/><path d="M291.6152,259.07984c-1.59335,0.79668 -2.39001,-0.79668 -2.39001,-0.79668l-0.14134,-0.48711c-0.47506,-0.47506 -0.95009,-0.95009 -1.42513,-1.42513c0,0 -1.19155,-1.19155 -0.09797,-2.41577c-0.37549,-0.45172 -0.69382,-0.95621 -0.93101,-1.48681c-1.49707,-0.61281 -0.96962,-2.19519 -0.96962,-2.19519l0.72333,-2.09725c0.0703,-0.87929 -0.40926,-1.84643 -1.08471,-2.41371c0,0 -1.25965,-1.25965 0,-2.5193c1.25965,-1.25965 2.5193,0 2.5193,0c1.32116,1.4498 2.01619,3.54334 2.08224,5.5037l-0.38263,1.18018c0.23199,0.45139 0.23199,0.9091 0.23199,0.9091c-0.13795,0.49962 0.41238,1.13205 0.91543,1.25692l0.93802,0.80873c0,0 1.22429,1.22429 0.05193,2.4659l0.75685,1.32243c0,0 0.79668,1.59335 -0.79668,2.39001z" fill="#000000" stroke="none" stroke-width="0.5" stroke-linecap="butt"/><path d="M291.93683,264.93377c-0.79668,1.59335 -2.39001,0.79668 -2.39001,0.79668l-1.90019,-0.95009c0,0 -1.23125,-0.61563 -0.98789,-1.84689l-1.54077,-0.57777c-1.50381,-2.05998 -2.16172,-3.99468 -2.58552,-5.94231c-0.8858,1.00257 -1.3798,2.01631 -1.33359,3.92337l0.28696,0.15342c0,0 0.23424,0.46847 0.19468,1.02438c0.18692,0.2138 0.2804,0.40072 0.2804,0.40072c0.31669,0.6334 0.6334,1.26679 0.95009,1.90019l0.6164,0.48711c0,0 1.25965,1.25965 0,2.5193c-1.25965,1.25965 -2.5193,0 -2.5193,0l-1.28379,-1.41307c-0.30564,-0.61126 -0.61126,-1.22252 -0.91691,-1.83381c-0.14219,0.02878 -0.2834,0.07154 -0.42073,0.12629c0.00184,0.37508 -0.13717,0.79774 -0.55982,1.22041c-1.25965,1.25965 -2.5193,0 -2.5193,0l-0.47506,-2.99436c0.78838,-0.71289 1.76682,-1.27525 2.80389,-1.61044c0.06773,-3.7039 1.32299,-5.32636 3.62838,-7.6682c-1.72283,-1.29685 -2.27093,-2.46368 -2.06531,-4.28776c-0.36921,0.30129 -0.77508,0.40278 -0.77508,0.40278c-2.65669,0.54248 -3.15674,2.96123 -4.70746,5.04115l-1.8621,1.36346c0,0 -1.48224,0.98815 -2.47037,-0.49407c-0.98815,-1.48224 0.49407,-2.47037 0.49407,-2.47037l0.98815,-0.53671c2.17024,-2.87415 2.83241,-5.18665 6.43879,-6.28567c0.27288,-0.63378 0.90311,-1.07752 1.63695,-1.07752c0.44852,0 0.85831,0.16574 1.17148,0.43936c0.00133,-0.00414 0.00269,-0.00827 0.004,-0.01241c0,0 0.56334,-1.69 2.25334,-1.12667c1.69,0.56334 1.12667,2.25334 1.12667,2.25334c-0.0313,0.09068 -0.06235,0.17919 -0.09315,0.26562c0.35765,0.3275 0.51695,0.72572 0.51695,0.72572c1.92032,4.82215 0.80467,8.64391 3.57976,12.72794c0.52755,0.13728 1.29811,0.53834 1.29811,1.70997c0,0.05454 -0.00166,0.10741 -0.00492,0.15867c0.26707,0.059 0.4453,0.14814 0.4453,0.14814l1.90019,0.95009c0,0 1.59335,0.79668 0.79668,2.39001z" fill="#000000" stroke="none" stroke-width="0.5" stroke-linecap="butt"/><path d="M165.713,165.05246c0.64299,7.12301 -4.61011,13.41855 -11.73311,14.06154c-7.12301,0.64299 -13.41855,-4.61011 -14.06154,-11.73311c-0.64299,-7.12301 4.61011,-13.41855 11.73311,-14.06154c7.12301,-0.64299 13.41855,4.61011 14.06154,11.73311z" fill="#5d5d5d" stroke="none" stroke-width="0" stroke-linecap="butt"/><path d="M177.39064,213.34848c-4.46718,1.61583 -6.08304,-2.85134 -6.08304,-2.85134l-0.80792,-2.23361c-4.37154,-12.22743 -9.84007,-23.77178 -17.93684,-34.01166c0,0 -2.94556,-3.72697 0.78138,-6.67252c3.72697,-2.94556 6.67253,0.78138 6.67253,0.78138c8.75184,11.07857 14.60397,23.49392 19.4173,36.67114l0.80791,2.23362c0,0 1.61583,4.46719 -2.85134,6.08304z" fill="#5d5d5d" stroke="none" stroke-width="0.5" stroke-linecap="butt"/><path d="M204.80387,223.88924c0,4 -4,4 -4,4l-2.69548,-0.01643c-6.11149,-0.57914 -14.91572,-2.13057 -19.44137,-6.79711c-1.35044,-1.39248 -2.40656,-3.00543 -3.3704,-4.68164c-0.85531,1.92133 -0.99276,3.97496 0.15886,6.52917c0.72439,1.60663 2.21607,2.75481 3.12544,4.26446c0.82707,1.37303 1.29411,2.99422 2.36499,4.18688l1.75202,1.44178c0,0 3.07289,2.56074 0.51215,5.63362c-2.56074,3.07289 -5.63362,0.51215 -5.63362,0.51215l-2.24798,-1.89155c-1.46731,-1.7521 -2.46301,-3.85116 -3.63501,-5.81312c-3.06418,-5.12952 -6.23151,-9.29341 -4.80792,-15.83915c0.65744,-3.02295 2.6621,-5.42223 4.59528,-7.72587c0.15663,-0.86409 0.66625,-1.77637 1.8697,-2.52853c3.39199,-2.12 5.51199,1.272 5.51199,1.272c1.77417,2.84723 3.14394,6.4437 5.41152,8.93354c0.97441,1.06991 2.90668,1.63814 4.19809,2.08246c3.55137,1.22186 6.62657,2.13172 10.36055,2.45376l1.97119,-0.01643c0,0 4,0 4,4z" fill="#5d5d5d" stroke="none" stroke-width="0.5" stroke-linecap="butt"/><path d="M133.22616,182.43372c1.78885,-3.57771 5.36656,-1.78885 5.36656,-1.78885l1.38749,0.75459c4.12882,1.29412 9.02339,3.32238 11.75439,-1.27981c0.49364,-0.83186 0.68135,-1.81065 1.02203,-2.71597c0,0 0.9862,-2.4655 3.36036,-2.57532c-0.10161,-3.25527 3.30467,-3.8746 3.30467,-3.8746c3.74014,-0.66475 7.23624,-0.95334 11.04888,-0.73119c1.5417,0.08983 3.34328,-0.38802 4.60574,0.50143c1.75186,1.23425 2.92471,3.28125 3.63368,5.30356c1.03903,2.96379 -1.55019,9.29675 -2.34071,12.00833l-3.10856,4.0188c0,0 -2.49878,3.12348 -5.62226,0.6247c-3.12348,-2.49878 -0.6247,-5.62226 -0.6247,-5.62226l2.22477,-2.64787c0.44658,-1.84146 0.82408,-3.69956 1.29073,-5.53604c0.10936,-0.43038 0.96703,-1.48118 0.6689,-1.15207c-1.13899,1.25737 -3.5405,0.50447 -4.72759,0.50143c-1.88332,-0.00483 -3.76648,0.25636 -5.61779,0.60215c0,0 -0.14241,0.02589 -0.37797,0.04074c-0.03144,0.86213 -0.29033,1.50935 -0.29033,1.50935c-0.54821,1.3169 -0.86382,2.75693 -1.64464,3.9507c-5.28893,8.08609 -12.83981,7.16555 -20.91228,4.72019l-2.61251,-1.24541c0,0 -3.57771,-1.78885 -1.78885,-5.36656z" fill="#5d5d5d" stroke="none" stroke-width="0.5" stroke-linecap="butt"/></g></g></svg>