<svg version="1.1" xmlns="http://www.w3.org/2000/svg" xmlns:xlink="http://www.w3.org/1999/xlink" width="509.13388" height="539.7573" viewBox="0,0,509.13388,539.7573"><g transform="translate(-137.8987,-35.47102)"><g data-paper-data="{&quot;isPaintingLayer&quot;:true}" fill-rule="nonzero" stroke-linejoin="miter" stroke-miterlimit="10" stroke-dasharray="" stroke-dashoffset="0" style="mix-blend-mode: normal"><path d="M585.09372,36.22723v41.99802" fill="#a7a7a7" stroke="#000000" stroke-width="1.5" stroke-linecap="round"/><path d="M534.6961,36.22701v41.99802" fill="#838383" stroke="#000000" stroke-width="1.5" stroke-linecap="round"/><path d="M483.24851,78.22503v-41.99802" fill="none" stroke="#000000" stroke-width="1.5" stroke-linecap="round"/><path d="M362.51209,569.0473v-488.7158h283.77049v488.7158z" fill="none" stroke="#000000" stroke-width="1.5" stroke-linecap="butt"/><path d="M381.40329,80.32517v-41.99802l254.08807,-2.09991v41.99802" fill="none" stroke="#000000" stroke-width="1.5" stroke-linecap="round"/><path d="M634.44141,49.87661h-254.08807" fill="none" stroke="#000000" stroke-width="1.5" stroke-linecap="round"/><path d="M634.44144,65.62585h-254.08807" fill="none" stroke="#000000" stroke-width="1.5" stroke-linecap="round"/><path d="M432.85087,78.22506v-41.99802" fill="none" stroke="#000000" stroke-width="1.5" stroke-linecap="round"/><path d="M249.88014,203.04907c4.23152,4.69831 3.85309,11.93734 -0.84522,16.16885c-4.69831,4.23152 -11.93734,3.85309 -16.16885,-0.84522c-4.23152,-4.69831 -3.85309,-11.93734 0.84522,-16.16885c4.69831,-4.23152 11.93734,-3.85309 16.16885,0.84522z" fill="#5d5d5d" stroke="none" stroke-width="0" stroke-linecap="butt"/><path d="M287.48662,224.7666c-1.72533,3.82903 -5.55438,2.10373 -5.55438,2.10373l-1.91453,-0.86268c-10.44915,-4.75503 -21.14036,-8.39353 -32.6222,-9.56139c0,0 -4.17814,-0.42594 -3.75221,-4.60406c0.42594,-4.17814 4.60407,-3.75221 4.60407,-3.75221c12.41725,1.26865 23.89724,5.20004 35.22099,10.25959l1.91453,0.86268c0,0 3.82904,1.72533 2.10373,5.55437z" fill="#5d5d5d" stroke="none" stroke-width="0.5" stroke-linecap="butt"/><path d="M306.68172,235.51768c0,4.19979 -4.19979,4.19979 -4.19979,4.19979l-4.12797,-0.21551c-2.77044,-0.92348 -6.46027,-1.67986 -9.81643,-2.87277c0.00825,0.48218 -0.07146,1.01952 -0.27047,1.61651c-1.32811,3.98429 -5.31237,2.65619 -5.31237,2.65619l-2.09991,-0.69996c-5.49308,-1.83102 -15.81065,-3.3454 -14.50861,-12.44555c0.2104,-1.47057 13.13967,-6.0277 15.20857,-6.72247c0,0 3.03074,-1.01024 4.68671,1.37479c0.95027,0.85528 1.32563,1.98137 1.32563,1.98137c1.13113,5.3368 8.62505,5.53735 13.44307,7.14337l1.47178,-0.21551c0,0 4.19979,0 4.19979,4.19979zM280.07443,230.93051c0.28591,0.09637 0.56523,0.1942 0.83325,0.29068c-0.07984,-0.18386 -0.1527,-0.37205 -0.22044,-0.56342c-0.20153,0.09149 -0.40626,0.18278 -0.61282,0.27274z" fill="#5d5d5d" stroke="none" stroke-width="0.5" stroke-linecap="butt"/><path d="M249.98438,238.31754c-4.19979,0 -4.19979,-4.19979 -4.19979,-4.19979l0.05714,-1.39041c0.89457,-5.36737 3.62249,-10.93235 3.44268,-16.10877c0,0 0,-4.19979 4.19979,-4.19979c0.55356,0 1.03417,0.07297 1.45141,0.19967c3.18995,-1.24222 4.9949,1.91646 4.9949,1.91646c3.48783,6.25202 4.04691,9.6476 3.99897,16.75576l-1.56122,4.85517c0,0 -1.32811,3.98429 -5.31237,2.65619c-3.98429,-1.32811 -2.65619,-5.31237 -2.65619,-5.31237l1.23866,-3.54445c-0.00818,-0.7957 -0.0224,-1.50756 -0.05071,-2.15957c-0.55264,2.05085 -1.0956,4.13266 -1.46059,6.32261l0.05714,0.00952c0,0 0,4.19979 -4.19979,4.19979z" fill="#5d5d5d" stroke="none" stroke-width="0.5" stroke-linecap="butt"/><path d="M138.6487,574.47832v-337.37156h223.86339v337.37156z" fill="none" stroke="#000000" stroke-width="1.5" stroke-linecap="butt"/><path d="M305.44325,246.9966c0,1.57492 -1.57492,1.57492 -1.57492,1.57492l-0.03802,-0.04702c-0.44579,0.11144 -0.89157,0.22291 -1.33736,0.33435c-0.09038,0.78392 -0.75634,1.3926 -1.56448,1.3926c-0.86979,0 -1.57492,-0.70513 -1.57492,-1.57492c0,-0.21495 0.04305,-0.4198 0.12102,-0.60649l-1.44475,-0.49828c-4.08124,-0.60771 -3.14742,-4.26897 -6.3666,-6.84064c-2.35828,0.8257 2.02762,1.91229 1.15201,4.94792c-0.68871,2.38763 -3.63955,3.50947 -5.56872,4.46664c0.06486,0.1458 0.09059,0.24877 0.09059,0.24877c0.04536,0.18141 0.09072,0.36282 0.13606,0.54423c0.46664,0.11558 1.1709,0.4645 1.1709,1.51766c0,0.03796 -0.00092,0.07501 -0.0027,0.11115c0.28171,-0.01111 0.48967,0.04088 0.48967,0.04088l1.67993,0.41999c0,0 1.52791,0.38196 1.14595,1.90988c-0.38196,1.52791 -1.90988,1.14595 -1.90988,1.14595l-1.67993,-0.41999c0,0 -1.34438,-0.3361 -1.19576,-1.63882c-0.06419,0.0059 -0.1022,0.0059 -0.1022,0.0059l-2.36787,-1.19296c-0.14001,-0.55998 -0.27998,-1.11995 -0.41999,-1.67993c0,0 -0.10381,-0.4152 0.01327,-0.86683c-0.62385,-0.98985 0.27448,-1.88819 0.27448,-1.88819l1.10927,-0.99497c0.39198,-0.19255 3.65639,-1.56737 4.07131,-2.45303c0.3897,-0.83183 -1.09069,-1.36206 -1.77432,-2.12046c-1.69114,0.55242 -2.87725,2.48382 -4.26448,3.82201l-2.42985,0.85437c0,0 -0.43831,0.14611 -0.91928,0.04263c-0.0807,0.16139 -0.16139,0.32279 -0.24208,0.48418c0.96484,0.34238 0.96484,1.47841 0.96484,1.47841c0,0.69996 0,1.39995 0,2.09991l0.2537,0.13564c0,0 0.70433,1.40866 -0.70433,2.11298c-1.40866,0.70433 -2.11298,-0.70433 -2.11298,-0.70433l-0.58624,-1.54428c0,-0.64418 0,-1.28835 0,-1.93252c-0.83998,-0.3916 -0.83998,-1.42736 -0.83998,-1.42736l0.16628,-1.54428c0.27998,-0.55998 0.55998,-1.11995 0.83996,-1.67993c0,0 0.0285,-0.05701 0.08551,-0.14235c-0.72363,-0.85613 -1.23888,-1.49985 -2.49469,-0.98525l0.60671,0.01638c0,0 -0.56102,1.12207 -1.6831,0.86259l-0.78316,1.95787c0,0 -0.5849,1.46228 -2.04718,0.87736c-1.46228,-0.5849 -0.87736,-2.04718 -0.87736,-2.04718l0.83996,-2.09991c0,0 0.50384,-1.25965 1.7454,-0.97305l1.4348,-1.64989c3.07602,-0.56481 3.9706,0.37832 6.11539,2.51416c0,0 0.32024,0.32024 0.44554,0.78898l0.56621,-0.17452c2.03801,-2.14699 3.20263,-3.77815 5.79604,-4.28305c0.49111,-1.24695 1.69083,-1.4449 3.28539,-2.03737c0.3619,-0.2492 0.74414,-0.26547 1.05609,-0.20733c0.29905,0.02457 0.64123,0.12988 0.91733,0.42504c1.2576,0.8218 2.93056,1.80031 3.71226,3.11454c0.29978,0.50403 0.24136,1.15253 0.16728,1.7988c0.34582,-0.08645 0.69161,-0.1729 1.03741,-0.25935l1.67993,-0.41999c0,0 0.29499,-0.07374 0.65814,-0.02682c0.26048,-0.51052 0.79127,-0.86013 1.40374,-0.86013c0.86979,0 1.57492,0.70513 1.57492,1.57492c0,0.86979 -0.70513,1.57492 -1.57492,1.57492c-0.08077,0 -0.1601,-0.00607 -0.23757,-0.01781c-0.24305,0.47295 -0.72398,0.69397 -0.94468,0.77385l0.29388,0.09528c0,0 0.49319,0.16439 0.81842,0.58765c0.45598,-0.114 0.91194,-0.22798 1.36792,-0.34199l0.80195,-0.04702c0,0 1.57492,0 1.57492,1.57492z" fill="#000000" stroke="none" stroke-width="0.5" stroke-linecap="butt"/><path d="M315.62778,251.0914c-0.76427,0 -1.40139,-0.54439 -1.54475,-1.26655c-0.148,-0.13566 -0.2764,-0.31443 -0.35779,-0.55008c-0.28964,-0.14318 -0.47109,-0.32463 -0.47109,-0.32463l-0.83424,-1.15166c-0.27426,-1.21081 -0.3008,-2.5047 -0.07968,-3.7316c-0.98029,-1.20311 -1.56541,-2.80854 -1.63379,-4.34948c0,0 0,-1.57492 1.57492,-1.57492c0.02237,0 0.04442,0.00031 0.06615,0.00094c0.54933,-0.94548 1.71576,-0.6539 1.71576,-0.6539c1.06463,0.28581 2.12924,0.57157 3.19387,0.85738l1.69852,1.61955c0.24242,-0.00042 0.41387,0.04244 0.41387,0.04244c0.55998,0.14001 1.11995,0.27998 1.67993,0.41999l1.15166,0.83424c0,0 0.07165,0.07165 0.16044,0.19678c0.07366,-0.04785 0.12156,-0.07179 0.12156,-0.07179c0.55998,-0.27998 1.11995,-0.55998 1.67993,-0.83996l1.12431,-0.16628c0,0 1.57492,0 1.57492,1.57492c0,1.57492 -1.57492,1.57492 -1.57492,1.57492l0.28434,-0.16628c-0.55998,0.27998 -1.11995,0.55998 -1.67993,0.83996c0,0 -0.16708,0.08353 -0.41493,0.13553c-0.13382,0.73412 -0.77659,1.29069 -1.54934,1.29069c-0.86979,0 -1.57492,-0.70513 -1.57492,-1.57492c0,-0.09454 0.00833,-0.1871 0.0243,-0.27707c-0.2497,-0.13597 -0.40297,-0.28925 -0.40297,-0.28925l0.31169,-0.00571c-0.55998,-0.14001 -1.11995,-0.27998 -1.67993,-0.41999c0,0 -0.34335,-0.08585 -0.66384,-0.33892c-0.66962,0.00986 -1.17428,-0.4948 -1.17428,-0.4948l-1.06226,-1.14308c-0.58573,-0.13208 -1.17145,-0.26418 -1.75718,-0.39628c0.14315,0.54856 0.43527,1.06625 0.84691,1.41198l0.69996,0.69996c0,0 1.11364,1.11364 0,2.22728c-0.0556,0.0556 -0.11122,0.10565 -0.16666,0.15057c-0.07148,0.6204 -0.02233,1.26225 0.14746,1.85312l0.00571,-0.31169c0,0 0.14339,0.14339 0.27581,0.3787c0.37682,0 0.75365,0 1.13048,0l1.53362,0.88127c0,0 1.11364,1.11364 0,2.22728c-0.60624,0.60624 -1.21245,0.55243 -1.63906,0.37756c-0.2876,0.30984 -0.69843,0.5037 -1.1545,0.5037z" fill="#000000" stroke="none" stroke-width="0.5" stroke-linecap="butt"/><path d="M271.42484,243.63677c0,1.57492 -1.57492,1.57492 -1.57492,1.57492c-0.55998,0 -1.9599,0 -2.51988,0c0,0 -1.13026,0 -1.47577,-0.95747l-0.02144,-0.00239c-0.24966,0.30619 -0.49934,0.61235 -0.749,0.91853c0,0 -0.0823,0.0823 -0.22449,0.17975c-0.17627,0.24559 -0.36416,0.38653 -0.36416,0.38653c-1.79352,1.03865 -1.18125,2.70448 -0.677,4.6578l0.01638,-0.60671c0,0 1.01058,0.50528 0.89185,1.51586c0.02774,-0.00145 0.05566,-0.00218 0.08376,-0.00218c0.86979,0 1.57492,0.70513 1.57492,1.57492c0,0.86979 -0.70513,1.57492 -1.57492,1.57492c-0.86979,0 -1.57492,-0.70513 -1.57492,-1.57492c0,-0.03199 0.00094,-0.0638 0.00283,-0.09531c-0.4494,0.00542 -0.81218,-0.17596 -0.81218,-0.17596l-1.66353,-1.44666c-0.69428,-2.85137 -0.90929,-4.76177 0.59779,-6.67737l-0.59001,-0.15005c-1.45444,-1.50773 -1.81276,-3.0268 -3.05582,-4.43876c-0.01007,0.0002 -0.0202,0.0003 -0.03034,0.0003c-0.86979,0 -1.57492,-0.70513 -1.57492,-1.57492h-0.00001c0,-0.86979 0.70513,-1.57492 1.57492,-1.57492c0.09402,0 0.1861,0.00823 0.27561,0.02403c0.84187,-0.25887 1.538,0.43724 1.538,0.43724c1.61411,1.67326 1.87824,3.36047 3.49985,4.89975l-0.41367,-0.46129c0,0 0.71355,0 1.18005,0.48029c0.28788,-0.26031 0.57573,-0.52064 0.86361,-0.78093l2.28262,-0.11988c0,0 1.03578,0 1.42736,0.83998c0.22419,0 0.44837,0 0.67258,0h0.83996c0,0 1.57492,0 1.57492,1.57492z" fill="#000000" stroke="none" stroke-width="0.5" stroke-linecap="butt"/><path d="M257.95485,250.50516c-1.40866,0.70433 -2.11298,-0.70433 -2.11298,-0.70433l-0.12496,-0.43065c-0.41999,-0.41999 -0.83996,-0.83996 -1.25994,-1.25994c0,0 -1.05343,-1.05343 -0.08661,-2.13575c-0.33197,-0.39936 -0.6134,-0.84537 -0.82309,-1.31447c-1.32354,-0.54178 -0.85723,-1.94074 -0.85723,-1.94074l0.63949,-1.85415c0.06215,-0.77737 -0.36182,-1.6324 -0.95898,-2.13393c0,0 -1.11364,-1.11364 0,-2.22728c1.11364,-1.11364 2.22728,0 2.22728,0c1.16802,1.28175 1.78249,3.13262 1.84088,4.86575l-0.33828,1.04338c0.2051,0.39907 0.2051,0.80372 0.2051,0.80372c-0.12196,0.44171 0.36458,1.00083 0.80932,1.11123l0.82929,0.71499c0,0 1.08238,1.08238 0.04591,2.18007l0.66912,1.16914c0,0 0.70433,1.40866 -0.70433,2.11298z" fill="#000000" stroke="none" stroke-width="0.5" stroke-linecap="butt"/><path d="M258.2392,255.68054c-0.70433,1.40866 -2.11298,0.70433 -2.11298,0.70433l-1.67993,-0.83996c0,0 -1.08853,-0.54427 -0.87338,-1.63281l-1.36217,-0.5108c-1.3295,-1.8212 -1.91115,-3.53164 -2.28582,-5.25352c-0.78312,0.88636 -1.21986,1.78259 -1.17901,3.4686l0.2537,0.13564c0,0 0.20709,0.41417 0.17211,0.90564c0.16525,0.18902 0.2479,0.35427 0.2479,0.35427c0.27998,0.55998 0.55998,1.11995 0.83996,1.67993l0.54495,0.43065c0,0 1.11364,1.11364 0,2.22728c-1.11364,1.11364 -2.22728,0 -2.22728,0l-1.13498,-1.24928c-0.27021,-0.54041 -0.54041,-1.08081 -0.81063,-1.62125c-0.12571,0.02544 -0.25055,0.06325 -0.37196,0.11165c0.00163,0.3316 -0.12127,0.70527 -0.49493,1.07895c-1.11364,1.11364 -2.22728,0 -2.22728,0l-0.41999,-2.64727c0.697,-0.63026 1.56202,-1.12743 2.47888,-1.42377c0.05988,-3.27457 1.16964,-4.70896 3.2078,-6.77935c-1.52313,-1.14653 -2.0077,-2.17811 -1.82591,-3.79075c-0.32641,0.26637 -0.68524,0.35609 -0.68524,0.35609c-2.34874,0.4796 -2.79083,2.61798 -4.1618,4.45681l-1.64626,1.20542c0,0 -1.31043,0.87361 -2.18402,-0.4368c-0.87361,-1.31043 0.4368,-2.18402 0.4368,-2.18402l0.87361,-0.4745c1.91868,-2.541 2.5041,-4.58545 5.69245,-5.55708c0.24125,-0.56032 0.79843,-0.95262 1.44721,-0.95262c0.39653,0 0.75882,0.14653 1.03569,0.38843c0.00118,-0.00366 0.00238,-0.00731 0.00354,-0.01097c0,0 0.49804,-1.49411 1.99215,-0.99607c1.49411,0.49804 0.99607,1.99215 0.99607,1.99215c-0.02767,0.08017 -0.05512,0.15842 -0.08235,0.23483c0.31619,0.28954 0.45703,0.6416 0.45703,0.6416c1.69773,4.2632 0.7114,7.64197 3.16482,11.2526c0.4664,0.12137 1.14764,0.47594 1.14764,1.51176c0,0.04822 -0.00147,0.09496 -0.00435,0.14028c0.23611,0.05216 0.39368,0.13097 0.39368,0.13097l1.67993,0.83996c0,0 1.40866,0.70433 0.70433,2.11298z" fill="#000000" stroke="none" stroke-width="0.5" stroke-linecap="butt"/></g></g></svg>