<svg version="1.1" xmlns="http://www.w3.org/2000/svg" xmlns:xlink="http://www.w3.org/1999/xlink" width="243.24175" height="268.99436" viewBox="0,0,243.24175,268.99436"><g transform="translate(-136.3972,-150.07771)"><g data-paper-data="{&quot;isPaintingLayer&quot;:true}" fill-rule="nonzero" stroke-linejoin="miter" stroke-miterlimit="10" stroke-dasharray="" stroke-dashoffset="0" style="mix-blend-mode: normal"><path d="M137.1472,418.32207v-160.66066h106.60661v160.66066z" fill="none" stroke="#000000" stroke-width="1.5" stroke-linecap="butt"/><path d="M331.83335,155.07771c0,-2.76142 2.23858,-5 5,-5c2.76142,0 5,2.23858 5,5c0,2.76142 -2.23858,5 -5,5c-2.76142,0 -5,-2.23858 -5,-5z" fill="#5d5d5d" stroke="none" stroke-width="0" stroke-linecap="butt"/><path d="M335.16667,169.41104c0,-1.10457 0.89543,-2 2,-2c0.25268,0 0.49442,0.04686 0.717,0.13236c0.3079,-0.25775 0.69455,-0.42453 1.11861,-0.45904c1.47416,-1.78169 2.35525,-2.99248 0.41685,-4.59245c0,0 -0.94083,-0.94083 -0.52035,-2.05512c-0.12051,-0.04508 -0.24203,-0.0879 -0.36456,-0.12839c0,0 -1.89737,-0.63246 -1.26491,-2.52982c0.63246,-1.89737 2.52982,-1.26491 2.52982,-1.26491c1.51459,0.50863 2.88704,1.26168 4.14352,2.1846c1.60536,-0.5242 3.76351,-1.0608 4.59918,-0.07279c0.63955,0.75614 0.51511,2.95457 0.3025,5.04554c0.57648,0.74996 1.12569,1.52092 1.65311,2.29728l0.08345,0.02852c0,0 0.83332,0.83332 0.58093,1.86028c0.81808,0.67014 0.65142,1.83678 0.65142,1.83678c-0.16732,1.15251 -0.7756,2.36888 -0.39905,3.47092c0.77038,2.25465 4.04545,4.75016 5.41658,6.8035l0.41678,0.36185c0,0 1.41421,1.41421 0,2.82843c-1.41421,1.41421 -2.82843,0 -2.82843,0l-0.91655,-0.97148c-1.67498,-2.5169 -4.97838,-5.01387 -5.91675,-7.86317c-0.04149,-0.12597 -0.07405,-0.26459 -0.09886,-0.41339c-0.66323,0.63216 -1.75256,1.34144 -1.22361,1.8901c0.96517,1.00113 2.33047,1.54994 3.31753,2.5295l0.69519,0.41678c0,0 1.6641,1.1094 0.5547,2.7735c-1.1094,1.6641 -2.7735,0.5547 -2.7735,0.5547l-1.30481,-0.91655c-1.24537,-1.25665 -3.29888,-1.85305 -4.0158,-3.4705c-1.24655,-2.81234 0.58909,-5.62482 2.63533,-7.90448c-0.87198,-0.55595 -0.87198,-1.7059 -0.87198,-1.7059v-0.66667c0.00133,-0.48771 -0.04574,-1.16053 -0.05359,-1.8832c-0.46661,1.53294 -1.46695,2.95558 -2.38467,4.13259l-1.72908,1.04241c-0.27642,0.19867 -0.60559,0.32857 -0.96248,0.36464c-0.28336,0.04 -0.62346,0.03685 -0.95994,-0.08997c-0.34141,0.2714 -0.77356,0.43353 -1.24358,0.43353c-1.10457,0 -2,-0.89543 -2,-2z" fill="#5d5d5d" stroke="none" stroke-width="0.5" stroke-linecap="butt"/><path d="M243.75381,415.73574v-232.73273h135.13514v232.73273z" fill="none" stroke="#000000" stroke-width="1.5" stroke-linecap="butt"/><path d="M325.75004,162v20" fill="none" stroke="#000000" stroke-width="1.5" stroke-linecap="round"/><path d="M301.25004,162v20" fill="none" stroke="#000000" stroke-width="1.5" stroke-linecap="round"/><path d="M277.25004,162v20" fill="none" stroke="#000000" stroke-width="1.5" stroke-linecap="round"/><path d="M252.75005,183v-20l121,-1v20" fill="none" stroke="#000000" stroke-width="1.5" stroke-linecap="round"/><path d="M373.25004,168.5h-121" fill="none" stroke="#000000" stroke-width="1.5" stroke-linecap="round"/><path d="M252.25005,176h121" fill="none" stroke="#000000" stroke-width="1.5" stroke-linecap="round"/><path d="M349.75004,182v-20" fill="none" stroke="#000000" stroke-width="1.5" stroke-linecap="round"/></g></g></svg>