<svg version="1.1" xmlns="http://www.w3.org/2000/svg" xmlns:xlink="http://www.w3.org/1999/xlink" width="243.24176" height="271.3277" viewBox="0,0,243.24176,271.3277"><g transform="translate(-136.39717,-147.74437)"><g data-paper-data="{&quot;isPaintingLayer&quot;:true}" fill-rule="nonzero" stroke-linejoin="miter" stroke-miterlimit="10" stroke-dasharray="" stroke-dashoffset="0" style="mix-blend-mode: normal"><path d="M349.75004,182v-20" fill="none" stroke="#000000" stroke-width="1.5" stroke-linecap="round"/><path d="M325.75003,182v-20" fill="none" stroke="#000000" stroke-width="1.5" stroke-linecap="round"/><path d="M301.25003,182v-20" fill="none" stroke="#000000" stroke-width="1.5" stroke-linecap="round"/><path d="M137.14717,418.32207v-160.66066h106.60661v160.66066z" fill="none" stroke="#000000" stroke-width="1.5" stroke-linecap="butt"/><path d="M362.83338,170.74437c-2,0 -2,-2 -2,-2v-1c0.01897,-6.02676 2.13326,-11.87239 7.22393,-15.33077c0,0 1.6641,-1.1094 2.7735,0.5547c1.1094,1.6641 -0.5547,2.77351 -0.5547,2.77351c-3.97274,2.58418 -5.45983,7.39963 -5.44273,12.00257v1c0,0 0,2 -2,2z" fill="#5d5d5d" stroke="none" stroke-width="0.5" stroke-linecap="butt"/><path d="M353.50004,181.0777c0,-1.0788 0.85414,-1.95811 1.92305,-1.99855c0.2729,-0.42404 0.63217,-0.66419 0.63217,-0.66419l1.02093,-0.68188c0.95728,-0.63894 2.04929,-1.11181 2.87183,-1.91683c1.41351,-1.38338 0.55202,-5.67794 0.55202,-7.40523c0,0 0,-2 2,-2c0.60822,0 1.03147,0.18496 1.32601,0.4424c1.89961,0.54956 4.18389,0.9435 5.37529,2.83948c0.99382,1.58155 0.95928,5.78442 0.96537,7.71813v1.33333c0,0 0,0.60571 -0.33333,1.15045c0,0.17207 0,0.34414 0,0.51621l0.2307,0.36754c0,0 0.63246,1.89737 -1.26491,2.52982c-1.89737,0.63246 -2.52982,-1.26491 -2.52982,-1.26491l-0.43597,-1.63246c0,-0.66667 0,-1.33333 0,-2c0,0 0,-0.60722 0.33458,-1.15249c0.01675,-1.40048 0.17578,-4.33358 -0.36921,-5.46272c-0.22225,-0.46048 -0.67534,-0.67417 -1.20542,-0.79813c0.11538,2.60013 0.12384,5.42299 -1.54126,7.34144c-0.99386,1.14509 -2.45468,1.78058 -3.68202,2.67087l-1.09188,0.73042c0,0 -0.4597,0.30728 -1.05724,0.357c-0.34853,0.5869 -0.98876,0.98027 -1.72087,0.98027c-1.10457,0 -2,-0.89543 -2,-2z" fill="#5d5d5d" stroke="none" stroke-width="0.5" stroke-linecap="butt"/><path d="M376.16671,164.74437c0,2 -2,2 -2,2h-1c-5.329,0 -9.16931,-0.78073 -10.30612,-6.6712c0,0 -0.3288,-1.97279 1.64399,-2.30159c0.08534,-0.01422 0.16761,-0.02414 0.24691,-0.0301c0.25048,-0.49904 0.75048,-0.99712 1.74856,-0.99712c2,0 2,2 2,2c-0.35112,2.60938 0.62725,1.82492 3.5144,2.00821l1.15226,-0.00821c0,0 2,0 2,2c0,0.08516 -0.00363,0.16669 -0.01057,0.24475c0.5035,0.24823 1.01057,0.7482 1.01057,1.75525z" fill="#5d5d5d" stroke="none" stroke-width="0.5" stroke-linecap="butt"/><path d="M367.16671,152.74437c0,-2.76142 2.23858,-5 5,-5c2.76142,0 5,2.23858 5,5c0,2.76142 -2.23858,5 -5,5c-2.76142,0 -5,-2.23858 -5,-5z" fill="#5d5d5d" stroke="none" stroke-width="0" stroke-linecap="butt"/><path d="M243.7538,415.73574v-232.73273h135.13514v232.73273z" fill="none" stroke="#000000" stroke-width="1.5" stroke-linecap="butt"/><path d="M277.25003,182v-20" fill="none" stroke="#000000" stroke-width="1.5" stroke-linecap="round"/><path d="M252.75004,183v-20l121,-1v20" fill="none" stroke="#000000" stroke-width="1.5" stroke-linecap="round"/><path d="M252.25004,168.5h121" fill="none" stroke="#000000" stroke-width="1.5" stroke-linecap="round"/><path d="M252.25004,176h121" fill="none" stroke="#000000" stroke-width="1.5" stroke-linecap="round"/></g></g></svg>