<svg version="1.1" xmlns="http://www.w3.org/2000/svg" xmlns:xlink="http://www.w3.org/1999/xlink" width="243.24175" height="296.43275" viewBox="0,0,243.24175,296.43275"><g transform="translate(-136.3972,-122.63942)"><g data-paper-data="{&quot;isPaintingLayer&quot;:true}" fill-rule="nonzero" stroke-linejoin="miter" stroke-miterlimit="10" stroke-dasharray="" stroke-dashoffset="0" style="mix-blend-mode: normal"><path d="M137.1472,418.32217v-160.66066h106.60661v160.66066z" fill="none" stroke="#000000" stroke-width="1.5" stroke-linecap="butt"/><path d="M349.75004,182.00011v-20" fill="#a7a7a7" stroke="#000000" stroke-width="1.5" stroke-linecap="round"/><path d="M325.75004,162.00001v20" fill="#838383" stroke="#000000" stroke-width="1.5" stroke-linecap="round"/><path d="M301.25004,162.00001v20" fill="none" stroke="#000000" stroke-width="1.5" stroke-linecap="round"/><path d="M247.6152,155.43357c-2.98802,0.37189 -5.71175,-1.7489 -6.08364,-4.73692c-0.37189,-2.98802 1.7489,-5.71175 4.73692,-6.08364c2.98802,-0.37189 5.71175,1.7489 6.08364,4.73692c0.37189,2.98802 -1.7489,5.71175 -4.73692,6.08364z" fill="#c9c9c9" stroke="none" stroke-width="0" stroke-linecap="butt"/><path d="M234.0295,133.94699c1.98469,-0.24701 2.2317,1.73767 2.2317,1.73767l0.0559,0.66942c1.42391,4.84767 4.10635,8.65169 8.621,11.05456c0,0 1.75858,0.95258 0.80601,2.71115c-0.95258,1.75858 -2.71116,0.80601 -2.71116,0.80601c-5.44136,-2.9901 -8.77673,-7.52782 -10.55,-13.43184l-0.19113,-1.31526c0,0 -0.24701,-1.98469 1.73767,-2.2317z" fill="#c9c9c9" stroke="none" stroke-width="0.5" stroke-linecap="butt"/><path d="M239.11902,126.25954c1.98469,-0.24701 2.2317,1.73767 2.2317,1.73767l0.16467,1.32312c0.47906,3.91404 1.07993,9.80689 -4.80784,9.24543c-0.99034,-0.09444 -1.80401,-0.83923 -2.70602,-1.25885c0,0 -1.78838,-0.89538 -0.893,-2.68376c0.89538,-1.78838 2.68376,-0.893 2.68376,-0.893c0.65411,0.3669 1.61282,1.71011 1.98513,1.05906c0.59587,-1.04195 -0.09972,-3.93627 -0.23141,-4.97488l-0.16467,-1.32312c0,0 -0.24701,-1.98469 1.73767,-2.2317z" fill="#c9c9c9" stroke="none" stroke-width="0.5" stroke-linecap="butt"/><path d="M251.14207,141.89432c0.24701,1.98469 -1.73767,2.2317 -1.73767,2.2317l-1.2163,0.07384c-2.27938,-0.35494 -6.72659,-2.27326 -5.34343,1.41896c0,0 0.56994,1.91708 -1.34714,2.48701c-0.19982,0.0594 -0.385,0.09179 -0.55642,0.10214c-1.50967,1.28971 -2.8098,-0.21732 -2.8098,-0.21732c-1.89473,-2.22593 -4.4185,-5.09024 -2.20835,-8.21143c-0.79519,-0.31657 -1.66207,-0.88965 -2.41829,-1.06681c0,0 -1.78838,-0.89538 -0.893,-2.68376c0.54759,-1.09372 1.42918,-1.18367 2.03143,-1.08852c-0.11056,-0.28114 -0.19619,-0.57119 -0.25501,-0.86282c-0.00353,-0.01752 -0.23697,-7.19984 -0.23992,-7.29041l-0.23785,-1.8945c0,0 -0.24701,-1.98469 1.73767,-2.2317c1.98469,-0.24701 2.2317,1.73767 2.2317,1.73767l0.25617,2.07488c0.08381,2.48543 0.41469,4.975 0.24951,7.45635c-0.09426,1.41592 0.28944,3.12278 -0.04605,4.46562c0.23959,-0.08645 0.47383,-0.17927 0.69256,-0.29059l2.18964,-0.35006c0,0 1.98469,-0.24701 2.2317,1.73767c0.00477,0.03832 0.0087,0.076 0.01184,0.11303c1.72485,-0.02048 3.63811,0.37745 5.33851,0.64224l0.10682,-0.09084c0,0 1.98469,-0.24701 2.2317,1.73767z" fill="#c9c9c9" stroke="none" stroke-width="0.5" stroke-linecap="butt"/><path d="M243.75381,415.73585v-232.73273h135.13514v232.73273z" fill="none" stroke="#000000" stroke-width="1.5" stroke-linecap="butt"/><path d="M252.75005,183.00011v-20l121,-1v20" fill="none" stroke="#000000" stroke-width="1.5" stroke-linecap="round"/><path d="M373.25004,168.50011h-121" fill="none" stroke="#000000" stroke-width="1.5" stroke-linecap="round"/><path d="M252.25005,176.00011h121" fill="none" stroke="#000000" stroke-width="1.5" stroke-linecap="round"/><path d="M277.25004,162.00001v20" fill="none" stroke="#000000" stroke-width="1.5" stroke-linecap="round"/><path d="M240.18575,156.9469c-0.94324,2.85952 -4.02598,4.41297 -6.8855,3.46973c-2.85952,-0.94324 -4.41297,-4.02598 -3.46973,-6.8855c0.94324,-2.85952 4.02598,-4.41297 6.8855,-3.46973c2.85952,0.94324 4.41297,4.02598 3.46973,6.8855z" fill="#acacac" stroke="none" stroke-width="0" stroke-linecap="butt"/><path d="M214.95143,160.02495c0.62652,-1.89934 2.52585,-1.27282 2.52585,-1.27282l0.62889,0.23609c4.99052,0.78873 9.57673,-0.00673 13.68117,-3.05787c0,0 1.61379,-1.1814 2.79518,0.43238c1.1814,1.61379 -0.43238,2.79519 -0.43238,2.79519c-5.03189,3.63719 -10.5607,4.70857 -16.65544,3.78329l-1.27044,-0.3904c0,0 -1.89934,-0.62652 -1.27282,-2.52585z" fill="#acacac" stroke="none" stroke-width="0.5" stroke-linecap="butt"/><path d="M210.18329,152.13413c0.62652,-1.89934 2.52585,-1.27282 2.52585,-1.27282l1.26622,0.41768c3.74226,1.24286 9.32494,3.22287 6.2967,8.30331c-0.50936,0.85454 -1.5308,1.27098 -2.29621,1.90648c0,0 -1.57486,1.23282 -2.80767,-0.34204c-1.23282,-1.57486 0.34204,-2.80767 0.34204,-2.80767c0.61163,-0.43404 2.23597,-0.72534 1.80701,-1.34054c-0.6865,-0.9846 -3.59993,-1.59519 -4.59492,-1.92086l-1.26622,-0.41768c0,0 -1.89934,-0.62652 -1.27282,-2.52585z" fill="#acacac" stroke="none" stroke-width="0.5" stroke-linecap="butt"/><path d="M229.46022,147.96282c1.89934,0.62652 1.27282,2.52585 1.27282,2.52585l-0.45403,1.13079c-1.29668,1.90793 -4.93435,5.10558 -1.00546,5.43643c0,0 1.9765,0.30574 1.67075,2.28223c-0.03187,0.20601 -0.08189,0.38723 -0.14593,0.54657c0.51916,1.91649 -1.39941,2.44619 -1.39941,2.44619c-2.82282,0.75925 -6.49187,1.81365 -8.36624,-1.52001c-0.62655,0.58308 -1.5156,1.12112 -1.99947,1.72867c0,0 -1.57486,1.23282 -2.80767,-0.34204c-0.75395,-0.96314 -0.45779,-1.79835 -0.11395,-2.30187c-0.3014,-0.02046 -0.60019,-0.06726 -0.88892,-0.13896c-0.01734,-0.00431 -6.60801,-2.86845 -6.69112,-2.90456l-1.81391,-0.59618c0,0 -1.89934,-0.62652 -1.27282,-2.52585c0.62652,-1.89934 2.52585,-1.27282 2.52585,-1.27282l1.98476,0.65685c2.28199,0.98839 4.6735,1.75528 6.84519,2.96694c1.23922,0.69141 2.94601,1.07545 4.0159,1.95357c0.02445,-0.25353 0.04086,-0.50496 0.03391,-0.75029l0.62114,-2.12867c0,0 0.62652,-1.89934 2.52585,-1.27282c0.03667,0.0121 0.07241,0.02468 0.10722,0.03769c0.71998,-1.56753 1.89876,-3.12618 2.86608,-4.54948l-0.03636,-0.13543c0,0 0.62652,-1.89934 2.52585,-1.27282z" fill="#acacac" stroke="none" stroke-width="0.5" stroke-linecap="butt"/><path d="M223.11706,166.10946c2.0151,2.2374 1.83489,5.68472 -0.40251,7.69981c-2.2374,2.0151 -5.68472,1.83489 -7.69981,-0.40251c-2.0151,-2.2374 -1.83489,-5.68472 0.40251,-7.69981c2.2374,-2.0151 5.68472,-1.83489 7.69981,0.40251z" fill="#838383" stroke="none" stroke-width="0" stroke-linecap="butt"/><path d="M213.27313,189.54751c-1.33846,-1.48612 0.14766,-2.82457 0.14766,-2.82457l0.51694,-0.42897c3.16024,-3.94211 4.74437,-8.31894 4.1309,-13.39629c0,0 -0.22536,-1.98727 1.7619,-2.21262c1.98727,-0.22536 2.21263,1.7619 2.21263,1.7619c0.66232,6.17336 -1.14977,11.50552 -4.97629,16.33871l-0.96915,0.90949c0,0 -1.48612,1.33846 -2.82457,-0.14766z" fill="#838383" stroke="none" stroke-width="0.5" stroke-linecap="butt"/><path d="M204.05635,189.77377c-1.33846,-1.48612 0.14766,-2.82457 0.14766,-2.82457l0.99074,-0.8923c2.93541,-2.63297 7.42378,-6.49837 10.33314,-1.34893c0.48936,0.86615 0.34431,1.95964 0.51646,2.93947c0,0 0.28932,1.97897 -1.68965,2.26828c-1.97897,0.28932 -2.26828,-1.68965 -2.26828,-1.68965c-0.0735,-0.74638 0.47926,-2.3013 -0.2677,-2.23398c-1.19546,0.10772 -3.17075,2.33463 -3.94706,3.03705l-0.99074,0.8923c0,0 -1.48612,1.33846 -2.82457,-0.14766z" fill="#838383" stroke="none" stroke-width="0.5" stroke-linecap="butt"/><path d="M209.99602,170.96632c1.48612,-1.33846 2.82457,0.14766 2.82457,0.14766l0.75667,0.95513c1.01351,2.07229 1.98572,6.81701 4.2218,3.56961c0,0 1.24585,-1.56457 2.81041,-0.31871c0.16307,0.12986 0.29562,0.26318 0.40221,0.39782c1.92163,0.49982 1.42993,2.42848 1.42993,2.42848c-0.7409,2.82769 -1.64526,6.53658 -5.46964,6.51057c0.19552,0.83326 0.22172,1.87211 0.50926,2.59361c0,0 0.28932,1.97897 -1.68965,2.26828c-1.21028,0.17693 -1.7886,-0.49451 -2.05527,-1.04282c-0.16727,0.25156 -0.35611,0.48779 -0.56158,0.70293c-0.01234,0.01292 -5.76839,4.31502 -5.84097,4.36928l-1.4174,1.27933c0,0 -1.48612,1.33846 -2.82457,-0.14766c-1.33846,-1.48612 0.14766,-2.82457 0.14766,-2.82457l1.55483,-1.39758c1.99014,-1.49122 3.84227,-3.18741 5.97156,-4.47212c1.21503,-0.73308 2.3951,-2.02462 3.68826,-2.51806c-0.20802,-0.14699 -0.4182,-0.28595 -0.63467,-0.4016l-1.54026,-1.5952c0,0 -1.33846,-1.48612 0.14766,-2.82457c0.0287,-0.02584 0.05735,-0.05063 0.08591,-0.07441c-1.00399,-1.40269 -1.77269,-3.19935 -2.52875,-4.74527l-0.13563,-0.0356c0,0 -1.33846,-1.48612 0.14766,-2.82457z" fill="#838383" stroke="none" stroke-width="0.5" stroke-linecap="butt"/><path d="M215.78371,201.77613c2.0151,2.2374 1.83489,5.68472 -0.40251,7.69981c-2.2374,2.0151 -5.68472,1.83489 -7.69981,-0.40251c-2.0151,-2.2374 -1.83489,-5.68472 0.40251,-7.69981c2.2374,-2.0151 5.68472,-1.83489 7.69981,0.40251z" fill="#5d5d5d" stroke="none" stroke-width="0" stroke-linecap="butt"/><path d="M214.83333,228.57143c-2,0 -2,-2 -2,-2v-1c0.0203,-5.46699 -0.49152,-10.82063 -2.2307,-16.03421c0,0 -0.63245,-1.89737 1.26491,-2.52982c1.89737,-0.63245 2.52982,1.26491 2.52982,1.26491c1.87843,5.63942 2.41738,11.39284 2.43597,17.29913v1c0,0 0,2 -2,2z" fill="#5d5d5d" stroke="none" stroke-width="0.5" stroke-linecap="butt"/><path d="M221.62218,236.46586c-0.89443,1.78886 -2.68328,0.89443 -2.68328,0.89443l-0.66666,-0.33333c-2.40627,-1.31271 -3.58199,-3.04472 -4.2834,-5.10771c-0.20754,1.32878 -0.11968,2.73742 0.15061,4.32339l0.02721,1.99546c0,0 0,2 -2,2c-2,0 -2,-2 -2,-2l0.02722,-1.33787c-0.7481,-4.57624 -0.17558,-8.20444 2.74438,-11.91152c0,0 0.80048,-1.0006 1.92089,-0.75923c1.65841,-0.05151 1.94697,1.67983 1.94697,1.67983c0.46782,2.8069 0.3826,6.32642 3.25498,7.53994l0.66666,0.33333c0,0 1.78886,0.89442 0.89443,2.68328z" fill="#5d5d5d" stroke="none" stroke-width="0.5" stroke-linecap="butt"/><path d="M201.75244,203.49055c1.41421,-1.41421 2.82843,0 2.82843,0l0.48086,0.49816c1.76486,2.26564 4.43604,5.35366 7.43826,5.24939c0,0 0.65191,0 1.21134,0.37219c1.20203,0.27587 1.42811,1.63235 1.42811,1.63235c0.74562,4.81602 -0.79745,6.8888 -5.18495,8.83375l-1.71172,0.68533c0,0 -1.85695,0.74278 -2.59973,-1.11417c-0.74278,-1.85695 1.11417,-2.59973 1.11417,-2.59973l1.62161,-0.648c2.34698,-0.95977 3.11779,-1.39666 2.98643,-3.25462c-3.95286,-0.56587 -6.90532,-3.56754 -9.42699,-6.6577l-0.18581,-0.16851c0,0 -1.41421,-1.41421 0,-2.82843z" fill="#5d5d5d" stroke="none" stroke-width="0.5" stroke-linecap="butt"/></g></g></svg>