<svg version="1.1" xmlns="http://www.w3.org/2000/svg" xmlns:xlink="http://www.w3.org/1999/xlink" width="243.24175" height="273.99436" viewBox="0,0,243.24175,273.99436"><g transform="translate(-136.3972,-145.07771)"><g data-paper-data="{&quot;isPaintingLayer&quot;:true}" fill-rule="nonzero" stroke-linejoin="miter" stroke-miterlimit="10" stroke-dasharray="" stroke-dashoffset="0" style="mix-blend-mode: normal"><path d="M137.1472,418.32207v-160.66066h106.60661v160.66066z" fill="none" stroke="#000000" stroke-width="1.5" stroke-linecap="butt"/><path d="M344.83335,150.07771c0,-2.76142 2.23858,-5 5,-5c2.76142,0 5,2.23858 5,5c0,2.76142 -2.23858,5 -5,5c-2.76142,0 -5,-2.23858 -5,-5z" fill="#5d5d5d" stroke="none" stroke-width="0" stroke-linecap="butt"/><path d="M357.70807,166.14425c0.31282,0.39761 1.01451,1.53931 -0.12718,2.681c-1.41422,1.41422 -2.82842,0 -2.82842,0l-0.89191,-1.41875c-0.81334,-4.97535 0.1746,-9.06412 -3.77476,-12.91458c0,0 -1.41422,-1.41421 0,-2.82843c1.41422,-1.41422 2.82843,0 2.82843,0c4.45283,4.53956 3.927,8.86033 4.79385,14.48076z" fill="#5d5d5d" stroke="none" stroke-width="0.5" stroke-linecap="butt"/><path d="M364.62219,182.97213c-0.89443,1.78886 -2.68329,0.89443 -2.68329,0.89443l-0.56007,-0.2839c-0.88891,-0.39405 -1.87125,-0.62302 -2.66675,-1.18215c-0.43121,-0.30309 -0.8046,-0.62369 -1.12814,-0.95972c0.01288,0.02536 0.02562,0.05063 0.03825,0.07582l0.21114,1.22776c0,0 0,2 -2,2c-1.64655,0 -1.93754,-1.35557 -1.98896,-1.83469c-2.31543,-4.52411 -6.34116,-10.72459 -1.26839,-15.05398c0.67584,-0.5768 1.57528,-0.82235 2.36292,-1.23353c0,0 1.53389,-0.76694 2.4711,0.53992c0.78469,0.23589 1.36636,0.94075 1.41938,1.78893c0.25734,0.42492 0.31718,0.84384 0.31718,0.84384c0.6334,4.49848 -0.99868,8.1456 3.80794,10.11122l0.77326,0.38277c0,0 1.78886,0.89442 0.89443,2.68328zM355.88845,178.39264c-0.61261,-2.23244 -0.36862,-4.76144 -0.60659,-7.23641c-1.95728,1.88236 -0.80381,4.65932 0.60659,7.23641z" fill="#5d5d5d" stroke="none" stroke-width="0.5" stroke-linecap="butt"/><path d="M355.93891,164.53322c-1.78886,-0.89443 -0.89442,-2.68328 -0.89442,-2.68328l0.33333,-0.66666c1.757,-3.26446 0.79675,-3.28444 -2.42725,-4.18252c0,0 -1.92305,-0.54944 -1.37361,-2.47249c0.54944,-1.92305 2.47249,-1.3736 2.47249,-1.3736c4.34711,1.26761 6.78779,2.07435 6.06372,7.38255c-0.12147,0.89046 -0.77177,1.62328 -1.15765,2.43492l-0.33333,0.66666c0,0 -0.89443,1.78886 -2.68329,0.89443z" fill="#5d5d5d" stroke="none" stroke-width="0.5" stroke-linecap="butt"/><path d="M351.01493,164.68465c-1.94029,-0.48507 -1.45521,-2.42536 -1.45521,-2.42536l0.71188,-2.09765c0.94593,-1.1823 3.18643,-2.16008 1.66667,-2.83455c0,0 -1.24939,-1.56174 0.31235,-2.81113c1.56174,-1.24939 2.81113,0.31235 2.81113,0.31235c0.5905,0.97868 1.83536,1.79481 1.7715,2.93605c-0.04252,0.75986 -2.65304,3.91456 -3.43816,4.89606l0.04521,0.56901c0,0 -0.48507,1.94029 -2.42536,1.45521z" fill="#5d5d5d" stroke="none" stroke-width="0.5" stroke-linecap="butt"/><path d="M325.75004,162v20" fill="none" stroke="#000000" stroke-width="1.5" stroke-linecap="round"/><path d="M301.25004,162v20" fill="none" stroke="#000000" stroke-width="1.5" stroke-linecap="round"/><path d="M277.25004,162v20" fill="none" stroke="#000000" stroke-width="1.5" stroke-linecap="round"/><path d="M252.75005,183v-20l121,-1v20" fill="none" stroke="#000000" stroke-width="1.5" stroke-linecap="round"/><path d="M373.25004,168.5h-121" fill="none" stroke="#000000" stroke-width="1.5" stroke-linecap="round"/><path d="M252.25005,176h121" fill="none" stroke="#000000" stroke-width="1.5" stroke-linecap="round"/><path d="M349.75004,182v-20" fill="none" stroke="#000000" stroke-width="1.5" stroke-linecap="round"/><path d="M243.75381,415.73574v-232.73273h135.13514v232.73273z" fill="none" stroke="#000000" stroke-width="1.5" stroke-linecap="butt"/></g></g></svg>