<svg version="1.1" xmlns="http://www.w3.org/2000/svg" xmlns:xlink="http://www.w3.org/1999/xlink" width="315.31383" height="334.24728" viewBox="0,0,315.31383,334.24728"><g transform="translate(-139.4002,-117.85792)"><g data-paper-data="{&quot;isPaintingLayer&quot;:true}" fill-rule="nonzero" stroke-linejoin="miter" stroke-miterlimit="10" stroke-dasharray="" stroke-dashoffset="0" style="mix-blend-mode: normal"><path d="M416.13773,144.57687v-25.96273" fill="#a7a7a7" stroke="#000000" stroke-width="1.5" stroke-linecap="round"/><path d="M384.98246,118.614v25.96273" fill="#838383" stroke="#000000" stroke-width="1.5" stroke-linecap="round"/><path d="M353.17811,144.57673v-25.96273" fill="none" stroke="#000000" stroke-width="1.5" stroke-linecap="round"/><path d="M278.54015,447.9978v-302.11888h175.42388v302.11888z" fill="none" stroke="#000000" stroke-width="1.5" stroke-linecap="butt"/><path d="M290.21849,145.87501v-25.96273l157.07453,-1.29814v25.96273" fill="none" stroke="#000000" stroke-width="1.5" stroke-linecap="round"/><path d="M446.64395,127.05203h-157.07453" fill="none" stroke="#000000" stroke-width="1.5" stroke-linecap="round"/><path d="M446.64396,136.78805h-157.07453" fill="none" stroke="#000000" stroke-width="1.5" stroke-linecap="round"/><path d="M322.02283,144.57674v-25.96273" fill="none" stroke="#000000" stroke-width="1.5" stroke-linecap="round"/><path d="M208.91228,221.74161c2.61588,2.90445 2.38194,7.37954 -0.52251,9.99541c-2.90445,2.61588 -7.37954,2.38194 -9.99541,-0.52251c-2.61588,-2.90445 -2.38194,-7.37954 0.52251,-9.99541c2.90445,-2.61588 7.37954,-2.38194 9.99541,0.52251z" fill="#5d5d5d" stroke="none" stroke-width="0" stroke-linecap="butt"/><path d="M232.1602,235.16716c-1.06658,2.36706 -3.43366,1.3005 -3.43366,1.3005l-1.18354,-0.5333c-6.45955,-2.93951 -13.06874,-5.18879 -20.1667,-5.91075c0,0 -2.58288,-0.26331 -2.31958,-2.84618c0.26331,-2.58288 2.84619,-2.31958 2.84619,-2.31958c7.67621,0.78426 14.77302,3.21461 21.77324,6.34237l1.18354,0.5333c0,0 2.36707,1.06658 1.3005,3.43365z" fill="#5d5d5d" stroke="none" stroke-width="0.5" stroke-linecap="butt"/><path d="M244.02641,241.81336c0,2.59627 -2.59627,2.59627 -2.59627,2.59627l-2.55186,-0.13323c-1.71266,-0.57088 -3.99367,-1.03847 -6.06841,-1.77592c0.0051,0.29808 -0.04418,0.63026 -0.1672,0.99931c-0.82102,2.46305 -3.28405,1.64203 -3.28405,1.64203l-1.29814,-0.43271c-3.39576,-1.13192 -9.77397,-2.06809 -8.96907,-7.69371c0.13007,-0.90909 8.1228,-3.72626 9.40178,-4.15576c0,0 1.87357,-0.62452 2.89727,0.84988c0.58745,0.52873 0.81949,1.22486 0.81949,1.22486c0.69925,3.29915 5.33191,3.42313 8.31036,4.41595l0.90984,-0.13323c0,0 2.59627,0 2.59627,2.59627zM227.57807,238.97762c0.17674,0.05957 0.34942,0.12005 0.51511,0.1797c-0.04936,-0.11366 -0.0944,-0.23 -0.13628,-0.3483c-0.12458,0.05656 -0.25115,0.11299 -0.37884,0.1686z" fill="#5d5d5d" stroke="none" stroke-width="0.5" stroke-linecap="butt"/><path d="M208.97672,243.5442c-2.59627,0 -2.59627,-2.59627 -2.59627,-2.59627l0.03532,-0.85954c0.55301,-3.31805 2.23938,-6.75826 2.12823,-9.95827c0,0 0,-2.59627 2.59627,-2.59627c0.3422,0 0.63931,0.04511 0.89725,0.12343c1.97199,-0.76793 3.08779,1.18473 3.08779,1.18473c2.15614,3.86493 2.50176,5.96404 2.47212,10.35823l-0.96513,3.00141c0,0 -0.82102,2.46305 -3.28405,1.64203c-2.46305,-0.82102 -1.64203,-3.28405 -1.64203,-3.28405l0.76572,-2.19114c-0.00506,-0.49189 -0.01385,-0.93196 -0.03135,-1.33502c-0.34164,1.26781 -0.67729,2.55476 -0.90292,3.90857l0.03532,0.00589c0,0 0,2.59627 -2.59627,2.59627z" fill="#5d5d5d" stroke="none" stroke-width="0.5" stroke-linecap="butt"/><path d="M140.1502,451.3552v-208.55949h138.38995v208.55949z" fill="none" stroke="#000000" stroke-width="1.5" stroke-linecap="butt"/><path d="M243.2608,248.9095c0,0.9736 -0.9736,0.9736 -0.9736,0.9736l-0.0235,-0.02907c-0.27558,0.06889 -0.55116,0.1378 -0.82674,0.20669c-0.05587,0.48461 -0.46756,0.86089 -0.96715,0.86089c-0.5377,0 -0.9736,-0.4359 -0.9736,-0.9736c0,-0.13288 0.02661,-0.25952 0.07481,-0.37493l-0.89313,-0.30803c-2.52298,-0.37568 -1.9457,-2.63903 -3.93577,-4.22881c-1.45786,0.51044 1.25345,1.18216 0.71216,3.05875c-0.42575,1.47601 -2.24993,2.16952 -3.44253,2.76123c0.04009,0.09013 0.056,0.15379 0.056,0.15379c0.02804,0.11215 0.05608,0.22429 0.08411,0.33644c0.28847,0.07145 0.72384,0.28715 0.72384,0.9382c0,0.02347 -0.00057,0.04637 -0.00167,0.06871c0.17415,-0.00687 0.30271,0.02527 0.30271,0.02527l1.03851,0.25963c0,0 0.94454,0.23613 0.70841,1.18067c-0.23613,0.94454 -1.18067,0.70841 -1.18067,0.70841l-1.03851,-0.25963c0,0 -0.83108,-0.20777 -0.73921,-1.0131c-0.03968,0.00365 -0.06318,0.00365 -0.06318,0.00365l-1.46379,-0.73747c-0.08655,-0.34617 -0.17308,-0.69234 -0.25963,-1.03851c0,0 -0.06417,-0.25667 0.0082,-0.53587c-0.38566,-0.61192 0.16968,-1.16726 0.16968,-1.16726l0.68574,-0.61508c0.24232,-0.11903 2.26034,-0.96893 2.51684,-1.51643c0.24091,-0.51423 -0.67425,-0.84201 -1.09687,-1.31085c-1.04544,0.3415 -1.77869,1.53547 -2.63626,2.36273l-1.50211,0.52816c0,0 -0.27096,0.09032 -0.56829,0.02635c-0.04989,0.09977 -0.09977,0.19954 -0.14965,0.29931c0.59645,0.21166 0.59645,0.91394 0.59645,0.91394c0,0.43271 0,0.86543 0,1.29814l0.15684,0.08385c0,0 0.43541,0.87082 -0.43541,1.30622c-0.87082,0.43541 -1.30622,-0.43541 -1.30622,-0.43541l-0.36241,-0.95466c0,-0.39822 0,-0.79645 0,-1.19466c-0.51927,-0.24208 -0.51927,-0.88238 -0.51927,-0.88238l0.10279,-0.95466c0.17308,-0.34617 0.34617,-0.69234 0.51925,-1.03851c0,0 0.01762,-0.03524 0.05286,-0.088c-0.44734,-0.52925 -0.76586,-0.92719 -1.54219,-0.60907l0.37506,0.01013c0,0 -0.34682,0.69365 -1.04047,0.53325l-0.48414,1.21034c0,0 -0.36158,0.90397 -1.26555,0.54237c-0.90397,-0.36158 -0.54237,-1.26555 -0.54237,-1.26555l0.51925,-1.29814c0,0 0.31147,-0.7787 1.07899,-0.60153l0.88698,-1.01995c1.90156,-0.34916 2.45458,0.23387 3.78047,1.55423c0,0 0.19797,0.19797 0.27543,0.48774l0.35002,-0.10789c1.25988,-1.32725 1.97983,-2.33561 3.58305,-2.64773c0.3036,-0.77085 1.04525,-0.89322 2.03099,-1.25948c0.22373,-0.15405 0.46002,-0.16411 0.65286,-0.12817c0.18487,0.01519 0.3964,0.08029 0.56709,0.26276c0.77744,0.50803 1.81164,1.11293 2.29488,1.92538c0.18532,0.31158 0.14921,0.71248 0.10341,1.112c0.21378,-0.05344 0.42754,-0.10689 0.64132,-0.16033l1.03851,-0.25963c0,0 0.18236,-0.04559 0.40685,-0.01658c0.16103,-0.3156 0.48916,-0.53172 0.86778,-0.53172c0.5377,0 0.9736,0.4359 0.9736,0.9736c0,0.5377 -0.4359,0.9736 -0.9736,0.9736c-0.04993,0 -0.09897,-0.00375 -0.14687,-0.01101c-0.15025,0.29237 -0.44756,0.42901 -0.58399,0.47838l0.18167,0.0589c0,0 0.30489,0.10163 0.50594,0.36328c0.28188,-0.07048 0.56375,-0.14094 0.84563,-0.21141l0.49576,-0.02907c0,0 0.9736,0 0.9736,0.9736z" fill="#000000" stroke="none" stroke-width="0.5" stroke-linecap="butt"/><path d="M249.55677,251.44087c-0.47246,0 -0.86632,-0.33653 -0.95495,-0.78297c-0.09149,-0.08386 -0.17087,-0.19438 -0.22118,-0.34005c-0.17905,-0.08851 -0.29122,-0.20068 -0.29122,-0.20068l-0.51572,-0.71194c-0.16954,-0.74851 -0.18595,-1.54838 -0.04925,-2.30684c-0.606,-0.74375 -0.96772,-1.73621 -1.00999,-2.6888c0,0 0,-0.9736 0.9736,-0.9736c0.01383,0 0.02746,0.00019 0.04089,0.00058c0.33959,-0.58449 1.06067,-0.40423 1.06067,-0.40423c0.65814,0.17668 1.31627,0.35334 1.97441,0.53002l1.05001,1.00119c0.14986,-0.00026 0.25585,0.02624 0.25585,0.02624c0.34617,0.08655 0.69234,0.17308 1.03851,0.25963l0.71194,0.51572c0,0 0.04429,0.04429 0.09918,0.12165c0.04554,-0.02958 0.07514,-0.04438 0.07514,-0.04438c0.34617,-0.17308 0.69234,-0.34617 1.03851,-0.51925l0.69504,-0.10279c0,0 0.9736,0 0.9736,0.9736c0,0.9736 -0.9736,0.9736 -0.9736,0.9736l0.17578,-0.10279c-0.34617,0.17308 -0.69234,0.34617 -1.03851,0.51925c0,0 -0.10329,0.05164 -0.2565,0.08378c-0.08273,0.45383 -0.48008,0.79789 -0.95779,0.79789c-0.5377,0 -0.9736,-0.4359 -0.9736,-0.9736c0,-0.05844 0.00515,-0.11566 0.01502,-0.17128c-0.15436,-0.08405 -0.24911,-0.17881 -0.24911,-0.17881l0.19268,-0.00353c-0.34617,-0.08655 -0.69234,-0.17308 -1.03851,-0.25963c0,0 -0.21226,-0.05307 -0.41038,-0.20951c-0.41395,0.0061 -0.72593,-0.30588 -0.72593,-0.30588l-0.65668,-0.70664c-0.36209,-0.08165 -0.72418,-0.16332 -1.08627,-0.24497c0.08849,0.33911 0.26908,0.65914 0.52355,0.87287l0.43271,0.43271c0,0 0.68844,0.68844 0,1.37688c-0.03437,0.03437 -0.06875,0.06531 -0.10303,0.09308c-0.04419,0.38352 -0.0138,0.78031 0.09116,1.14558l0.00353,-0.19268c0,0 0.08864,0.08864 0.1705,0.23411c0.23295,0 0.4659,0 0.69885,0l0.94807,0.54479c0,0 0.68844,0.68844 0,1.37688c-0.37477,0.37477 -0.74953,0.34151 -1.01325,0.2334c-0.17779,0.19154 -0.43176,0.31138 -0.7137,0.31138z" fill="#000000" stroke="none" stroke-width="0.5" stroke-linecap="butt"/><path d="M222.23099,246.83249c0,0.9736 -0.9736,0.9736 -0.9736,0.9736c-0.34617,0 -1.21159,0 -1.55776,0c0,0 -0.69871,0 -0.9123,-0.5919l-0.01325,-0.00148c-0.15434,0.18928 -0.30868,0.37855 -0.46302,0.56783c0,0 -0.05087,0.05087 -0.13878,0.11112c-0.10897,0.15182 -0.22512,0.23895 -0.22512,0.23895c-1.10874,0.64208 -0.73024,1.67188 -0.41851,2.8794l0.01013,-0.37506c0,0 0.62473,0.31236 0.55133,0.93709c0.01715,-0.0009 0.03441,-0.00135 0.05178,-0.00135c0.5377,0 0.9736,0.4359 0.9736,0.9736c0,0.5377 -0.4359,0.9736 -0.9736,0.9736c-0.5377,0 -0.9736,-0.4359 -0.9736,-0.9736c0,-0.01978 0.00058,-0.03944 0.00175,-0.05892c-0.27781,0.00335 -0.50208,-0.10878 -0.50208,-0.10878l-1.02838,-0.89431c-0.4292,-1.76269 -0.56211,-2.94368 0.36955,-4.12788l-0.36474,-0.09276c-0.89912,-0.93206 -1.12063,-1.87113 -1.88907,-2.744c-0.00623,0.00012 -0.01249,0.00018 -0.01876,0.00018c-0.5377,0 -0.9736,-0.4359 -0.9736,-0.9736h-0.00001c0,-0.5377 0.4359,-0.9736 0.9736,-0.9736c0.05812,0 0.11505,0.00509 0.17038,0.01486c0.52044,-0.16003 0.95078,0.2703 0.95078,0.2703c0.99783,1.03439 1.16111,2.07741 2.16357,3.02898l-0.25573,-0.28516c0,0 0.44111,0 0.7295,0.29691c0.17796,-0.16092 0.35591,-0.32185 0.53387,-0.48276l1.41109,-0.07411c0,0 0.64031,0 0.88238,0.51927c0.13859,0 0.27718,0 0.41578,0h0.51925c0,0 0.9736,0 0.9736,0.9736z" fill="#000000" stroke="none" stroke-width="0.5" stroke-linecap="butt"/><path d="M213.90398,251.07846c-0.87082,0.43541 -1.30622,-0.43541 -1.30622,-0.43541l-0.07725,-0.26622c-0.25963,-0.25963 -0.51925,-0.51925 -0.77888,-0.77888c0,0 -0.65122,-0.65122 -0.05354,-1.3203c-0.20522,-0.24688 -0.3792,-0.5226 -0.50883,-0.81259c-0.8182,-0.33492 -0.52993,-1.19975 -0.52993,-1.19975l0.39532,-1.14622c0.03842,-0.48056 -0.22367,-1.00913 -0.59283,-1.31917c0,0 -0.68844,-0.68844 0,-1.37688c0.68844,-0.68844 1.37688,0 1.37688,0c0.72206,0.79236 1.10192,1.93655 1.13801,3.00795l-0.20912,0.64501c0.12679,0.2467 0.12679,0.49685 0.12679,0.49685c-0.0754,0.27306 0.22538,0.6187 0.50031,0.68695l0.51266,0.442c0,0 0.66911,0.66911 0.02838,1.34769l0.41365,0.72275c0,0 0.43541,0.87082 -0.43541,1.30622z" fill="#000000" stroke="none" stroke-width="0.5" stroke-linecap="butt"/><path d="M214.07976,254.27782c-0.43541,0.87082 -1.30622,0.43541 -1.30622,0.43541l-1.03851,-0.51925c0,0 -0.67292,-0.33646 -0.53992,-1.00938l-0.84208,-0.31577c-0.82188,-1.12585 -1.18145,-2.18322 -1.41307,-3.24767c-0.48411,0.54794 -0.75411,1.10198 -0.72885,2.14425l0.15684,0.08385c0,0 0.12802,0.25603 0.1064,0.55986c0.10216,0.11685 0.15325,0.21901 0.15325,0.21901c0.17308,0.34617 0.34617,0.69234 0.51925,1.03851l0.33688,0.26622c0,0 0.68844,0.68844 0,1.37688c-0.68844,0.68844 -1.37688,0 -1.37688,0l-0.70163,-0.77229c-0.16704,-0.33408 -0.33408,-0.66815 -0.50112,-1.00224c-0.07771,0.01573 -0.15489,0.0391 -0.22994,0.06902c0.00101,0.20499 -0.07497,0.43599 -0.30596,0.667c-0.68844,0.68844 -1.37688,0 -1.37688,0l-0.25963,-1.63651c0.43088,-0.38962 0.96562,-0.69696 1.53241,-0.88016c0.03702,-2.0243 0.72306,-2.91103 1.98303,-4.19092c-0.94158,-0.70877 -1.24114,-1.34648 -1.12876,-2.3434c-0.20178,0.16467 -0.42361,0.22013 -0.42361,0.22013c-1.45197,0.29648 -1.72526,1.61841 -2.57278,2.75515l-1.0177,0.74518c0,0 -0.81009,0.54006 -1.35014,-0.27003c-0.54006,-0.81009 0.27003,-1.35014 0.27003,-1.35014l0.54006,-0.29333c1.18611,-1.57082 1.54801,-2.83468 3.51901,-3.43532c0.14914,-0.34638 0.49358,-0.5889 0.89465,-0.5889c0.24513,0 0.46909,0.09058 0.64025,0.24012c0.00073,-0.00226 0.00147,-0.00452 0.00219,-0.00678c0,0 0.30788,-0.92364 1.23152,-0.61576c0.92364,0.30788 0.61576,1.23152 0.61576,1.23152c-0.0171,0.04956 -0.03408,0.09793 -0.05091,0.14517c0.19547,0.17899 0.28253,0.39663 0.28253,0.39663c1.04952,2.63546 0.43978,4.72418 1.95646,6.95623c0.28832,0.07503 0.70946,0.29422 0.70946,0.93455c0,0.02981 -0.00091,0.0587 -0.00269,0.08672c0.14596,0.03225 0.24337,0.08096 0.24337,0.08096l1.03851,0.51925c0,0 0.87082,0.43541 0.43541,1.30622z" fill="#000000" stroke="none" stroke-width="0.5" stroke-linecap="butt"/></g></g></svg>