<svg version="1.1" xmlns="http://www.w3.org/2000/svg" xmlns:xlink="http://www.w3.org/1999/xlink" width="243.24175" height="277.99437" viewBox="0,0,243.24175,277.99437"><g transform="translate(-136.3972,-141.0777)"><g data-paper-data="{&quot;isPaintingLayer&quot;:true}" fill-rule="nonzero" stroke-linejoin="miter" stroke-miterlimit="10" stroke-dasharray="" stroke-dashoffset="0" style="mix-blend-mode: normal"><path d="M349.75004,182.00001v-20" fill="none" stroke="#000000" stroke-width="1.5" stroke-linecap="round"/><path d="M325.75004,162v20" fill="none" stroke="#000000" stroke-width="1.5" stroke-linecap="round"/><path d="M137.1472,418.32208v-160.66066h106.60661v160.66066z" fill="none" stroke="#000000" stroke-width="1.5" stroke-linecap="butt"/><path d="M349.50002,146.07771c0,-2.76142 2.23858,-5 5,-5c2.76142,0 5,2.23858 5,5c0,2.76142 -2.23858,5 -5,5c-2.76142,0 -5,-2.23858 -5,-5z" fill="#5d5d5d" stroke="none" stroke-width="0" stroke-linecap="butt"/><path d="M243.75381,415.73575v-232.73273h135.13514v232.73273z" fill="none" stroke="#000000" stroke-width="1.5" stroke-linecap="butt"/><path d="M301.25004,162v20" fill="none" stroke="#000000" stroke-width="1.5" stroke-linecap="round"/><path d="M277.25004,162v20" fill="none" stroke="#000000" stroke-width="1.5" stroke-linecap="round"/><path d="M252.75005,183.00001v-20l121,-1v20" fill="none" stroke="#000000" stroke-width="1.5" stroke-linecap="round"/><path d="M252.25004,168.50001h121" fill="none" stroke="#000000" stroke-width="1.5" stroke-linecap="round"/><path d="M252.25005,176.00001h121" fill="none" stroke="#000000" stroke-width="1.5" stroke-linecap="round"/><path d="M353.83333,153.2381c0,-0.28152 0.03963,-0.52342 0.10773,-0.73126c-0.02693,-0.21749 -0.05606,-0.435 -0.08764,-0.65254c0,0 -0.28284,-1.9799 1.69706,-2.26274c1.70725,-0.24389 2.15266,1.19466 2.24295,1.5955c0.3536,0.02052 0.68864,0.09543 0.98362,0.2877c4.46283,2.90896 2.48103,9.76833 -0.04864,13.01274l-0.06905,0.10523c0.04344,0.32763 0.0921,0.65538 0.14675,0.98327l0.02721,1.3288c0,0 0,0.46558 -0.22463,0.94747c0.32237,0.33536 0.52888,0.78292 0.55513,1.27829c0.20327,0.32968 0.27647,0.62248 0.27647,0.62248c0.82446,3.31094 0.5106,7.13866 3.95414,8.69622l1.85312,1.70797c0,0 1.41421,1.41421 0,2.82843c-1.41421,1.41421 -2.82843,0 -2.82843,0l-0.81355,-0.95869c-4.28689,-2.27564 -4.77076,-5.58619 -5.66458,-9.66441c-0.27923,0.70751 0.22568,1.72151 0.22568,2.54223c0,2.29541 -0.00635,2.97929 1.33077,4.8906l-0.10301,-0.34612c0,0 1.78885,0.89443 0.89443,2.68328h-0.00001c-0.89443,1.78885 -2.68328,0.89443 -2.68328,0.89443l-1.43634,-1.01279c-1.73644,-2.69583 -3.63213,-9.14747 -1.31036,-12.25251c0.57348,-0.76695 1.52063,-1.13374 2.3879,-1.58607c-0.41345,-0.57158 -0.41345,-1.27082 -0.41345,-1.27082l0.02721,-0.6712c-0.05669,-0.34014 -0.10692,-0.68014 -0.15156,-1.02c-0.30019,-0.5048 -0.26544,-1.03051 -0.15717,-1.42775c-0.28483,-3.14841 -0.19502,-6.28707 -0.42966,-9.42808c-0.17426,-0.27695 -0.2888,-0.64104 -0.2888,-1.11966z" fill="#5d5d5d" stroke="none" stroke-width="0.5" stroke-linecap="butt"/><path d="M351.58394,161.79984c-1.56174,-1.24939 -0.31235,-2.81113 -0.31235,-2.81113l1.28063,-1.59778c1.30944,-1.8716 1.50765,-2.07388 0.71707,-4.18704c0,0 -0.63246,-1.89737 1.26491,-2.52982c1.89737,-0.63246 2.52982,1.26491 2.52982,1.26491c1.05117,3.41039 0.64324,4.82989 -1.28293,7.81296l-1.38603,1.73555c0,0 -1.24939,1.56174 -2.81113,0.31235z" fill="#5d5d5d" stroke="none" stroke-width="0.5" stroke-linecap="butt"/></g></g></svg>