<svg version="1.1" xmlns="http://www.w3.org/2000/svg" xmlns:xlink="http://www.w3.org/1999/xlink" width="243.24175" height="269.31102" viewBox="0,0,243.24175,269.31102"><g transform="translate(-136.3972,-149.76105)"><g data-paper-data="{&quot;isPaintingLayer&quot;:true}" fill-rule="nonzero" stroke-linejoin="miter" stroke-miterlimit="10" stroke-dasharray="" stroke-dashoffset="0" style="mix-blend-mode: normal"><path d="M137.1472,418.32207v-160.66066h106.60661v160.66066z" fill="none" stroke="#000000" stroke-width="1.5" stroke-linecap="butt"/><path d="M314.50001,155.18788c0,-2.99715 2.42968,-5.42683 5.42683,-5.42683c2.99715,0 5.42683,2.42968 5.42683,5.42683c0,2.99715 -2.42968,5.42683 -5.42683,5.42683c-2.99715,0 -5.42683,-2.42968 -5.42683,-5.42683z" fill="#5d5d5d" stroke="none" stroke-width="0" stroke-linecap="butt"/><path d="M329.41773,157.98595c-0.35211,-0.04485 -0.67828,0.03453 -0.98931,0.18682c0.01455,0.01249 0.02909,0.02502 0.04361,0.03758c0.48161,0.25968 0.93296,0.55467 1.34043,0.88302c-0.04415,-0.6153 -0.15716,-1.07716 -0.39473,-1.10742zM330.69607,153.83696c4.14496,1.55386 3.34051,5.38045 3.34051,8.58669v0.72358c0,0 0,0.69518 -0.3934,1.29872c0.25732,0.37827 0.50794,0.75132 0.75241,1.11506l0.4972,0.9569c0,0 0.34731,0.69461 0.21098,1.46062c0.0301,0.34196 -0.01135,0.5906 -0.01135,0.5906c-0.19191,1.15149 -1.12483,2.30445 -0.7697,3.41649c0.75607,2.36757 5.72398,3.29858 7.63609,3.9356l0.03713,-0.11139c0,0 2.17073,0 2.17073,2.17073c0,2.17073 -2.17073,2.17073 -2.17073,2.17073l-1.41002,-0.11139c-3.73373,-1.24524 -8.9921,-2.60235 -10.45334,-6.91806c-0.07257,-0.21432 0.0214,-1.08936 0.16173,-2.07588c-0.99771,0.49588 -1.91137,1.02328 -2.38061,1.57978c-0.55247,0.65521 0.47319,2.04269 0.70382,2.35773c1.16165,1.58682 2.28478,3.23453 3.07283,5.0363l-0.09849,-0.31806c0,0 1.53494,1.53494 0,3.06988c-1.53494,1.53494 -3.06988,0 -3.06988,0l-0.82207,-1.04164c-1.53682,-3.68026 -6.07179,-6.89786 -3.45913,-11.41897c0.20846,-0.36071 0.53411,-0.70897 0.93709,-1.04491c-0.09105,-0.07058 -0.18242,-0.15108 -0.27379,-0.24245c-1.53494,-1.53494 0,-3.06988 0,-3.06988l0.50706,-0.49445c1.20181,-0.92818 1.83915,-1.75671 1.88393,-2.42896c-0.41063,-0.48981 -0.83653,-0.95544 -1.27141,-1.37106c-0.44695,-0.15562 -1.01302,-0.27149 -1.70058,-0.34282c0,0 -1.41813,-0.20259 -1.78575,-1.43065c-0.02603,0.00136 -0.05202,0.00313 -0.07799,0.00532c0,0 -2.17073,0 -2.17073,-2.17073c0,-2.17073 2.17073,-2.17073 2.17073,-2.17073c0.69047,0.02924 1.35334,0.146 1.9904,0.33634c1.68397,-0.99676 4.48078,-2.71093 6.24633,-2.04905z" fill="#5d5d5d" stroke="none" stroke-width="0.5" stroke-linecap="butt"/><path d="M243.75381,415.73574v-232.73273h135.13514v232.73273z" fill="none" stroke="#000000" stroke-width="1.5" stroke-linecap="butt"/><path d="M349.75004,182v-20" fill="#a7a7a7" stroke="#000000" stroke-width="1.5" stroke-linecap="round"/><path d="M325.75004,162v20" fill="none" stroke="#000000" stroke-width="1.5" stroke-linecap="round"/><path d="M301.25004,162v20" fill="none" stroke="#000000" stroke-width="1.5" stroke-linecap="round"/><path d="M277.25004,162v20" fill="none" stroke="#000000" stroke-width="1.5" stroke-linecap="round"/><path d="M252.75005,183v-20l121,-1v20" fill="none" stroke="#000000" stroke-width="1.5" stroke-linecap="round"/><path d="M373.25004,168.5h-121" fill="none" stroke="#000000" stroke-width="1.5" stroke-linecap="round"/><path d="M252.25005,176h121" fill="none" stroke="#000000" stroke-width="1.5" stroke-linecap="round"/></g></g></svg>