<svg version="1.1" xmlns="http://www.w3.org/2000/svg" xmlns:xlink="http://www.w3.org/1999/xlink" width="243.24175" height="273.79142" viewBox="0,0,243.24175,273.79142"><g transform="translate(-136.3972,-145.28068)"><g data-paper-data="{&quot;isPaintingLayer&quot;:true}" fill-rule="nonzero" stroke-linejoin="miter" stroke-miterlimit="10" stroke-dasharray="" stroke-dashoffset="0" style="mix-blend-mode: normal"><path d="M137.1472,418.32211v-160.66066h106.60661v160.66066z" fill="none" stroke="#000000" stroke-width="1.5" stroke-linecap="butt"/><path d="M282.16666,150.7327c0,-3.01107 2.44095,-5.45202 5.45202,-5.45202c3.01107,0 5.45202,2.44095 5.45202,5.45202c0,3.01107 -2.44095,5.45202 -5.45202,5.45202c-3.01107,0 -5.45202,-2.44095 -5.45202,-5.45202z" fill="#5d5d5d" stroke="none" stroke-width="0" stroke-linecap="butt"/><path d="M287.58955,165.99329c-0.83748,-2.09369 1.25621,-2.93116 1.25621,-2.93116l1.30795,-0.41881c0.37607,-0.27904 1.13499,-0.88295 1.66414,-1.45966c-0.13074,-0.43935 -0.27113,-0.87137 -0.42555,-1.29257c-0.01249,-0.0141 -0.02522,-0.02874 -0.03813,-0.04389c-0.05191,0.00437 -0.10606,0.0098 -0.1625,0.01633c0,0 -2.2243,-0.37072 -1.85358,-2.59501c0.03243,-0.19458 0.07905,-0.36931 0.13711,-0.52616c-0.45205,-0.52279 -0.91252,-1.0417 -1.29239,-1.61058c0,0 -1.25083,-1.87625 0.62542,-3.12709c1.87625,-1.25083 3.12709,0.62542 3.12709,0.62542c0.73224,1.10029 1.67081,2.07503 2.42473,3.15756c0.34899,0.09923 0.66598,0.25368 0.92221,0.51304c0.69582,0.70433 1.14183,1.41639 1.38825,2.12395c0.04359,0.05799 0.08502,0.11783 0.12405,0.17977c1.40942,2.23714 1.23681,4.07335 0.48105,5.81707c0.17,0.64667 0.35233,1.28334 0.56016,1.90038l0.38261,1.50576c0.86059,0.6517 0.86059,1.83813 0.86059,1.83813c-0.00954,3.03063 -0.37583,5.97347 -0.37583,9.0199l0.80614,0.71898c0,0 1.16017,1.93363 -0.77345,3.0938c-1.93363,1.16017 -3.0938,-0.77345 -3.0938,-0.77345l-1.44883,-3.03932c0,-1.02096 0.04362,-2.03293 0.10117,-3.04106c-0.5744,1.66788 -0.85973,3.43568 -0.85282,5.29603v0.37583c0,0 0,2.25498 -2.25498,2.25498c-2.25498,0 -2.25498,-2.25498 -2.25498,-2.25498v-0.37583c0.00886,-2.81384 0.53154,-5.42902 1.54933,-7.87555c-0.28578,-0.05449 -0.59389,-0.17751 -0.92101,-0.39559c-1.87625,-1.25083 -0.62542,-3.12709 -0.62542,-3.12709l1.42921,-2.13597c0.02104,-0.04175 0.04242,-0.08329 0.06411,-0.12462c-0.41448,0.13213 -2.10624,0.5415 -2.83825,-1.28854z" fill="#5d5d5d" stroke="none" stroke-width="0.5" stroke-linecap="butt"/><path d="M243.75381,415.73579v-232.73273h135.13514v232.73273z" fill="none" stroke="#000000" stroke-width="1.5" stroke-linecap="butt"/><path d="M349.75004,182.00005v-20" fill="#a7a7a7" stroke="#000000" stroke-width="1.5" stroke-linecap="round"/><path d="M325.75004,162v20" fill="#838383" stroke="#000000" stroke-width="1.5" stroke-linecap="round"/><path d="M301.25004,162v20" fill="none" stroke="#000000" stroke-width="1.5" stroke-linecap="round"/><path d="M277.25004,162v20" fill="none" stroke="#000000" stroke-width="1.5" stroke-linecap="round"/><path d="M252.75005,183.00005v-20l121,-1v20" fill="none" stroke="#000000" stroke-width="1.5" stroke-linecap="round"/><path d="M373.25004,168.50005h-121" fill="none" stroke="#000000" stroke-width="1.5" stroke-linecap="round"/><path d="M373.25005,176.00005h-121" fill="none" stroke="#000000" stroke-width="1.5" stroke-linecap="round"/></g></g></svg>