<svg version="1.1" xmlns="http://www.w3.org/2000/svg" xmlns:xlink="http://www.w3.org/1999/xlink" width="243.24175" height="277.3277" viewBox="0,0,243.24175,277.3277"><g transform="translate(-136.3972,-141.74437)"><g data-paper-data="{&quot;isPaintingLayer&quot;:true}" fill-rule="nonzero" stroke-linejoin="miter" stroke-miterlimit="10" stroke-dasharray="" stroke-dashoffset="0" style="mix-blend-mode: normal"><path d="M349.75004,182v-20" fill="none" stroke="#000000" stroke-width="1.5" stroke-linecap="round"/><path d="M325.75004,162v20" fill="none" stroke="#000000" stroke-width="1.5" stroke-linecap="round"/><path d="M137.1472,418.32207v-160.66066h106.60661v160.66066z" fill="none" stroke="#000000" stroke-width="1.5" stroke-linecap="butt"/><path d="M355.16669,146.74437c0,-2.76142 2.23858,-5 5,-5c2.76142,0 5,2.23858 5,5c0,2.76142 -2.23858,5 -5,5c-2.76142,0 -5,-2.23858 -5,-5z" fill="#5d5d5d" stroke="none" stroke-width="0" stroke-linecap="butt"/><path d="M359.16669,168.41104c-2,0 -2,-2 -2,-2v-2c0,-4.76826 -0.69371,-10.08271 0.7693,-14.63245c0,0 0.63246,-1.89737 2.52983,-1.26491c1.89736,0.63245 1.26491,2.52982 1.26491,2.52982c-1.3928,3.98557 -0.56403,9.14992 -0.56403,13.36755v2c0,0 0,2 -2,2z" fill="#5d5d5d" stroke="none" stroke-width="0.5" stroke-linecap="butt"/><path d="M360.24757,165.49192c-0.05099,0.05099 -0.10199,0.09831 -0.15291,0.14215c0.3967,0.23124 0.63377,0.52758 0.63377,0.52758c3.43223,4.29774 5.32329,7.99785 4.41105,13.57819l0.02721,0.00454c0,0 0,0.2066 -0.0664,0.487c0.04332,0.16372 0.0664,0.33566 0.0664,0.513c0,1.10457 -0.89543,2 -2,2c-1.10457,0 -2,-0.89543 -2,-2c0,-0.17734 0.02308,-0.34929 0.0664,-0.513c-0.0664,-0.2804 -0.0664,-0.487 -0.0664,-0.487l0.02721,-0.66213c0.51603,-3.0278 -0.09202,-5.22055 -1.41047,-7.40225c-0.47522,1.67317 -0.97684,3.32396 -0.95008,5.06438v2c0,0 0,0.2066 -0.0664,0.487c0.04332,0.16372 0.0664,0.33566 0.0664,0.513c0,0.17265 -0.02188,0.34019 -0.06301,0.5c0.04113,0.15981 0.06301,0.32735 0.06301,0.5c0,1.10457 -0.89543,2 -2,2c-1.10457,0 -2,-0.89543 -2,-2c0,-0.17265 0.02188,-0.34019 0.06301,-0.5c-0.04113,-0.15981 -0.06301,-0.32735 -0.06301,-0.5c0,-0.17734 0.02308,-0.34929 0.0664,-0.513c-0.0664,-0.2804 -0.0664,-0.487 -0.0664,-0.487v-2c0.03401,-3.05612 1.26893,-5.6117 1.68677,-8.61618c0,0 0.11122,-0.77851 0.68234,-1.28944c0.09932,-0.32883 0.31439,-0.66859 0.71301,-0.98799c-0.30797,-0.17049 -0.49633,-0.35885 -0.49633,-0.35885l-1.74271,-1.74704c-0.59284,-0.83214 -1.52955,-1.50549 -1.77851,-2.49641c-0.72788,-2.89715 1.81772,-5.9046 3.30796,-7.99991c0,0 1.16248,-1.62747 2.78994,-0.46499c0.50706,0.36219 0.74329,0.76951 0.82824,1.15869c0.26184,0.4279 0.32252,0.8526 0.32252,0.8526c0.31992,2.30037 -0.01603,3.78422 2.02189,4.61619c0.06716,0.00059 1.99821,0.03477 1.99821,1.99999c0,2 -2,2 -2,2l-1.12117,-0.16171c-0.6095,-0.29979 -1.3245,-0.46531 -1.9532,-0.74067l0.15525,0.15483c0,0 1.41421,1.41421 0,2.82843zM363.18082,159.41607c0.13599,0.05509 0.28249,0.1073 0.44037,0.15668zM358.01742,159.81076c0.02062,0.3523 0.14613,0.69611 0.41353,1.02464c-0.16014,-0.32076 -0.29628,-0.66538 -0.41353,-1.02464z" fill="#5d5d5d" stroke="none" stroke-width="0.5" stroke-linecap="butt"/><path d="M243.75381,415.73574v-232.73273h135.13514v232.73273z" fill="none" stroke="#000000" stroke-width="1.5" stroke-linecap="butt"/><path d="M301.25004,162v20" fill="none" stroke="#000000" stroke-width="1.5" stroke-linecap="round"/><path d="M277.25004,162v20" fill="none" stroke="#000000" stroke-width="1.5" stroke-linecap="round"/><path d="M252.75005,183v-20l121,-1v20" fill="none" stroke="#000000" stroke-width="1.5" stroke-linecap="round"/><path d="M373.25004,168.5h-121" fill="none" stroke="#000000" stroke-width="1.5" stroke-linecap="round"/><path d="M252.25005,176h121" fill="none" stroke="#000000" stroke-width="1.5" stroke-linecap="round"/></g></g></svg>